# This file uses centimeters as units for non-parametric coordinates.

mtllib cresta.mtl
g default
v -1.225337 5.806638 17.817461
v -1.352198 5.420927 16.691849
v -2.390437 5.806638 16.238907
v -3.301816 5.420927 16.911579
v -3.174954 5.806638 18.037191
v -2.136714 5.420927 18.490133
v -1.744457 6.080523 17.590991
v -1.807887 6.569908 17.028184
v -2.327007 6.080523 16.801714
v -2.782697 6.569908 17.138049
v -2.719265 6.080523 17.700856
v -2.200145 6.569908 17.927326
v -2.263576 5.945051 17.364519
v -2.263576 7.222541 17.364519
vt 0.686416 0.863449
vt 0.720544 0.704875
vt 0.805662 0.791412
vt 0.750325 0.846890
vt 0.879660 0.673373
vt 0.862047 0.737000
vt 0.999925 0.782216
vt 0.882424 0.812662
vt 0.947649 0.935766
vt 0.901353 0.888698
vt 0.793256 0.985497
vt 0.825640 0.868514
vt 0.550254 0.152339
vt 0.538309 0.082807
vt 0.602955 0.101122
vt 0.619416 0.166265
vt 0.673660 0.121155
vt 0.651140 0.054295
vt 0.584951 0.029874
vt 0.837908 0.824196
vn 0.723696 0.613666 0.315719
vn 0.623403 0.632184 -0.460122
vn 0.618125 0.640140 -0.456226
vn 0.737830 0.593293 0.321885
vn 0.623403 0.632184 -0.460122
vn -0.088428 0.613666 -0.784599
vn -0.090155 0.593293 -0.799922
vn 0.618125 0.640140 -0.456226
vn -0.088428 0.613666 -0.784599
vn -0.710179 0.632184 -0.309822
vn -0.704166 0.640140 -0.307198
vn -0.090155 0.593293 -0.799922
vn -0.710179 0.632184 -0.309822
vn -0.635268 0.613666 0.468880
vn -0.647676 0.593293 0.478037
vn -0.704166 0.640140 -0.307198
vn -0.635268 0.613666 0.468880
vn 0.086776 0.632184 0.769944
vn 0.086041 0.640140 0.763425
vn -0.647676 0.593293 0.478037
vn 0.086776 0.632184 0.769944
vn 0.723696 0.613666 0.315719
vn 0.737830 0.593293 0.321885
vn 0.086041 0.640140 0.763425
vn -0.337868 -0.907556 0.249375
vn -0.111172 -0.992617 -0.048499
vn 0.000000 -1.000000 0.000000
vn 0.013584 -0.992617 0.120528
vn -0.337868 -0.907556 0.249375
vn 0.000000 -1.000000 0.000000
vn 0.384898 -0.907556 0.167916
vn 0.013584 -0.992617 0.120528
vn 0.000000 -1.000000 0.000000
vn 0.097587 -0.992617 -0.072027
vn 0.384898 -0.907556 0.167916
vn 0.000000 -1.000000 0.000000
vn -0.047030 -0.907556 -0.417290
vn 0.097587 -0.992617 -0.072027
vn 0.000000 -1.000000 0.000000
vn -0.111172 -0.992617 -0.048499
vn -0.047030 -0.907556 -0.417290
vn 0.000000 -1.000000 0.000000
vn 0.737830 0.593293 0.321885
vn 0.618125 0.640140 -0.456226
vn 0.848388 0.443090 0.289670
vn 0.618125 0.640140 -0.456226
vn -0.090155 0.593293 -0.799922
vn -0.026789 0.443090 -0.896077
vn -0.090155 0.593293 -0.799922
vn -0.704166 0.640140 -0.307198
vn -0.173333 0.443090 -0.879561
vn -0.704166 0.640140 -0.307198
vn -0.647676 0.593293 0.478037
vn -0.762630 0.443090 0.471239
vn -0.647676 0.593293 0.478037
vn 0.086041 0.640140 0.763425
vn -0.675055 0.443090 0.589891
vn 0.086041 0.640140 0.763425
vn 0.737830 0.593293 0.321885
vn 0.789420 0.443090 0.424839
s off
g polySurface258 polySurface257
usemtl puerta1:lambert16SG
f 1/1/1 2/2/2 8/3/3 7/4/4
f 2/2/5 3/5/6 9/6/7 8/3/8
f 3/5/9 4/7/10 10/8/11 9/6/12
f 4/7/13 5/9/14 11/10/15 10/8/16
f 5/9/17 6/11/18 12/12/19 11/10/20
f 6/11/21 1/1/22 7/4/23 12/12/24
f 2/13/25 1/14/26 13/15/27
f 3/16/28 2/13/29 13/15/30
f 4/17/31 3/16/32 13/15/33
f 5/18/34 4/17/35 13/15/36
f 6/19/37 5/18/38 13/15/39
f 1/14/40 6/19/41 13/15/42
f 7/4/43 8/3/44 14/20/45
f 8/3/46 9/6/47 14/20/48
f 9/6/49 10/8/50 14/20/51
f 10/8/52 11/10/53 14/20/54
f 11/10/55 12/12/56 14/20/57
f 12/12/58 7/4/59 14/20/60
