# This file uses centimeters as units for non-parametric coordinates.

mtllib media.mtl
g default
v -1.912135 3.897014 19.177650
v -1.124827 3.068379 18.127426
v -1.756612 3.033203 16.583748
v -3.422318 2.982272 16.510090
v -4.209627 3.810907 17.560314
v -3.577840 3.846082 19.103992
v -2.210759 3.938554 18.376415
v -1.671705 4.022084 17.603792
v -2.132998 3.506649 17.079464
v -2.820452 3.979031 16.795124
v -3.359505 3.895501 17.567746
v -2.898212 4.410935 18.092076
v -2.596627 3.681377 17.723690
v -2.324367 4.613591 17.260230
vt 0.633379 0.567067
vt 0.475319 0.473356
vt 0.572517 0.403919
vt 0.638721 0.479205
vt 0.490737 0.271434
vt 0.561743 0.317594
vt 0.670367 0.174528
vt 0.643989 0.290748
vt 0.820498 0.290107
vt 0.736106 0.318940
vt 0.812705 0.489174
vt 0.706083 0.407908
vt 0.907481 0.457413
vt 0.987322 0.501979
vt 0.907412 0.554293
vt 0.825900 0.512210
vt 0.829795 0.610396
vt 0.912222 0.649977
vt 0.996718 0.599792
vt 0.638660 0.366806
vn 0.384817 0.885100 0.261752
vn 0.732697 0.657650 -0.175078
vn 0.727059 0.663289 -0.177294
vn 0.391283 0.874580 0.286369
vn 0.732697 0.657650 -0.175078
vn 0.495742 0.471514 -0.729325
vn 0.505953 0.439608 -0.742130
vn 0.727059 0.663289 -0.177294
vn 0.495742 0.471514 -0.729325
vn -0.115320 0.615387 -0.779744
vn -0.111585 0.621623 -0.775328
vn 0.505953 0.439608 -0.742130
vn -0.115320 0.615387 -0.779744
vn -0.425476 0.850657 -0.308792
vn -0.450783 0.838456 -0.306246
vn -0.111585 0.621623 -0.775328
vn -0.425476 0.850657 -0.308792
vn -0.151772 0.974765 0.163702
vn -0.148062 0.976218 0.158354
vn -0.450783 0.838456 -0.306246
vn -0.151772 0.974765 0.163702
vn 0.384817 0.885100 0.261752
vn 0.391283 0.874580 0.286369
vn -0.148062 0.976218 0.158354
vn -0.431376 -0.863394 0.261659
vn -0.206228 -0.949155 0.237856
vn -0.177053 -0.936918 0.301392
vn -0.217056 -0.908649 0.356713
vn -0.431376 -0.863394 0.261659
vn -0.177053 -0.936918 0.301392
vn -0.058476 -0.847303 0.527881
vn -0.217056 -0.908649 0.356713
vn -0.177053 -0.936918 0.301392
vn -0.107136 -0.945221 0.308350
vn -0.058476 -0.847303 0.527881
vn -0.177053 -0.936918 0.301392
vn -0.030845 -0.994828 0.096781
vn -0.107136 -0.945221 0.308350
vn -0.177053 -0.936918 0.301392
vn -0.206228 -0.949155 0.237856
vn -0.030845 -0.994828 0.096781
vn -0.177053 -0.936918 0.301392
vn 0.391283 0.874580 0.286369
vn 0.727059 0.663289 -0.177294
vn 0.479404 0.771702 0.417909
vn 0.727059 0.663289 -0.177294
vn 0.505953 0.439608 -0.742130
vn 0.607922 0.229237 -0.760185
vn 0.505953 0.439608 -0.742130
vn -0.111585 0.621623 -0.775328
vn 0.499507 0.223056 -0.837101
vn -0.111585 0.621623 -0.775328
vn -0.450783 0.838456 -0.306246
vn -0.602093 0.721432 -0.342081
vn -0.450783 0.838456 -0.306246
vn -0.148062 0.976218 0.158354
vn -0.599725 0.767404 -0.226762
vn -0.148062 0.976218 0.158354
vn 0.391283 0.874580 0.286369
vn 0.370053 0.811141 0.452891
s off
g polySurface261 polySurface257
usemtl puerta1:lambert16SG
f 1/1/1 2/2/2 8/3/3 7/4/4
f 2/2/5 3/5/6 9/6/7 8/3/8
f 3/5/9 4/7/10 10/8/11 9/6/12
f 4/7/13 5/9/14 11/10/15 10/8/16
f 5/9/17 6/11/18 12/12/19 11/10/20
f 6/11/21 1/1/22 7/4/23 12/12/24
f 2/13/25 1/14/26 13/15/27
f 3/16/28 2/13/29 13/15/30
f 4/17/31 3/16/32 13/15/33
f 5/18/34 4/17/35 13/15/36
f 6/19/37 5/18/38 13/15/39
f 1/14/40 6/19/41 13/15/42
f 7/4/43 8/3/44 14/20/45
f 8/3/46 9/6/47 14/20/48
f 9/6/49 10/8/50 14/20/51
f 10/8/52 11/10/53 14/20/54
f 11/10/55 12/12/56 14/20/57
f 12/12/58 7/4/59 14/20/60
