# This file uses centimeters as units for non-parametric coordinates.

mtllib troncoarbol.mtl
g default
v -2.187967 0.371818 18.098873
v -2.033272 0.371818 17.996754
v -1.917705 0.371818 17.851828
v -1.852579 0.371818 17.678284
v -1.844269 0.371818 17.493108
v -1.893587 0.371818 17.314428
v -1.995708 0.371818 17.159733
v -2.140633 0.371818 17.044166
v -2.314177 0.371818 16.979040
v -2.499352 0.371818 16.970729
v -2.678033 0.371818 17.020048
v -2.832727 0.371818 17.122168
v -2.948294 0.371818 17.267094
v -3.013420 0.371818 17.440638
v -3.021731 0.371818 17.625813
v -2.972412 0.371818 17.804494
v -2.870292 0.371818 17.959189
v -2.725366 0.371818 18.074755
v -2.551823 0.371818 18.139881
v -2.366647 0.371818 18.148191
v -2.504008 2.740960 18.459164
v -2.403694 2.712179 18.392986
v -2.330182 2.679362 18.299233
v -2.290665 2.645720 18.187085
v -2.289011 2.614547 18.067518
v -2.325383 2.588896 17.952236
v -2.396220 2.571275 17.852526
v -2.494588 2.563411 17.778147
v -2.610859 2.566073 17.736376
v -2.733652 2.579000 17.731308
v -2.850945 2.600929 17.763435
v -2.951256 2.629710 17.829615
v -3.024770 2.662527 17.923367
v -3.064288 2.696169 18.035515
v -3.065942 2.727342 18.155082
v -3.029570 2.752993 18.270363
v -2.958732 2.770614 18.370073
v -2.860365 2.778478 18.444453
v -2.744092 2.775816 18.486223
v -2.621301 2.762888 18.491291
v -2.215607 4.793981 17.345862
v -2.164096 4.798312 17.312018
v -2.125649 4.804224 17.264011
v -2.104029 4.811137 17.206543
v -2.101355 4.818377 17.145241
v -2.117885 4.825234 17.086102
v -2.152003 4.831036 17.034916
v -2.200370 4.835215 16.996695
v -2.258250 4.837364 16.975179
v -2.319979 4.837269 16.972475
v -2.379512 4.834943 16.988846
v -2.431023 4.830613 17.022691
v -2.469470 4.824700 17.070696
v -2.491089 4.817787 17.128164
v -2.493764 4.810547 17.189467
v -2.477234 4.803691 17.248605
v -2.443115 4.797890 17.299791
v -2.394748 4.793710 17.338013
v -2.336868 4.791562 17.359529
v -2.275141 4.791656 17.362234
v -2.312247 7.014321 17.426499
v -2.529130 0.371818 18.029031
v -2.502842 0.371818 17.900624
v -2.469718 0.371818 17.738820
v -2.432999 0.371818 17.559461
v -2.396282 0.371818 17.380101
v -2.363158 0.371818 17.218298
v -2.336870 0.371818 17.089891
vt 0.252124 0.173249
vt 0.275244 0.174268
vt 0.211600 0.446545
vt 0.197991 0.446024
vt 0.298143 0.175235
vt 0.225145 0.446944
vt 0.320821 0.176587
vt 0.238808 0.447609
vt 0.343259 0.178829
vt 0.252732 0.449014
vt 0.365382 0.182458
vt 0.266932 0.451536
vt 0.387045 0.187891
vt 0.281273 0.455335
vt 0.408047 0.195395
vt 0.295511 0.460392
vt 0.428139 0.205071
vt 0.309356 0.466576
vt 0.447154 0.216766
vt 0.322509 0.473771
vt 0.465057 0.230221
vt 0.334721 0.481802
vt 0.023106 0.143605
vt 0.045430 0.145487
vt 0.074510 0.429274
vt 0.060290 0.427853
vt 0.067781 0.148631
vt 0.088230 0.431499
vt 0.090217 0.152526
vt 0.101623 0.434106
vt 0.112830 0.156688
vt 0.114961 0.436687
vt 0.135700 0.160726
vt 0.128468 0.438999
vt 0.158849 0.164362
vt 0.142230 0.440989
vt 0.182233 0.167433
vt 0.156194 0.442706
vt 0.205349 0.169904
vt 0.170235 0.444070
vt 0.228805 0.171858
vt 0.184203 0.445201
vt 0.154256 0.718118
vt 0.147362 0.715169
vt 0.160734 0.721595
vt 0.166921 0.725389
vt 0.173028 0.729252
vt 0.179253 0.732975
vt 0.185701 0.736441
vt 0.192386 0.739597
vt 0.199256 0.742416
vt 0.206246 0.744848
vt 0.213298 0.746884
vt 0.080831 0.718914
vt 0.073805 0.720962
vt 0.087756 0.716658
vt 0.094706 0.714415
vt 0.101827 0.712471
vt 0.109210 0.711080
vt 0.116845 0.710394
vt 0.124633 0.710472
vt 0.132423 0.711316
vt 0.140051 0.712881
vt 0.239726 0.037573
vt 0.197474 0.039981
vt 0.196683 0.026277
vt 0.219097 0.028523
vt 0.096016 0.980661
vt 0.270573 0.116340
vt 0.202100 0.120200
vt 0.200821 0.098028
vt 0.272767 0.093953
vt 0.199542 0.075856
vt 0.267938 0.071971
vt 0.198389 0.055854
vt 0.256554 0.052544
vt 0.246655 0.153744
vt 0.204169 0.156076
vt 0.203253 0.140202
vt 0.261574 0.136942
vt 0.227280 0.165101
vt 0.161683 0.158408
vt 0.144933 0.143462
vt 0.133627 0.124061
vt 0.128875 0.102103
vt 0.131147 0.079741
vt 0.140224 0.059164
vt 0.155221 0.042388
vt 0.174675 0.031055
vn 0.420548 -0.081238 0.903626
vn 0.690330 -0.012782 0.723382
vn 0.655332 0.087289 0.750280
vn 0.395223 0.090015 0.914164
vn 0.690330 -0.012782 0.723382
vn 0.885407 0.069900 0.459531
vn 0.855776 0.086089 0.510134
vn 0.655332 0.087289 0.750280
vn 0.885407 0.069900 0.459531
vn 0.976600 0.155802 0.148252
vn 0.972669 0.087372 0.215130
vn 0.855776 0.086089 0.510134
vn 0.976600 0.155802 0.148252
vn 0.958577 0.232748 -0.164188
vn 0.990441 0.090686 -0.103938
vn 0.972669 0.087372 0.215130
vn 0.958577 0.232748 -0.164188
vn 0.848840 0.292195 -0.440560
vn 0.906339 0.094482 -0.411854
vn 0.990441 0.090686 -0.103938
vn 0.848840 0.292195 -0.440560
vn 0.672928 0.330596 -0.661721
vn 0.730569 0.097099 -0.675900
vn 0.906339 0.094482 -0.411854
vn 0.672928 0.330596 -0.661721
vn 0.451816 0.347479 -0.821658
vn 0.482575 0.097430 -0.870419
vn 0.730569 0.097099 -0.675900
vn 0.451816 0.347479 -0.821658
vn 0.198895 0.343118 -0.917993
vn 0.187018 0.095108 -0.977742
vn 0.482575 0.097430 -0.870419
vn 0.198895 0.343118 -0.917993
vn -0.076101 0.317396 -0.945235
vn -0.128229 0.090492 -0.987607
vn 0.187018 0.095108 -0.977742
vn -0.076101 0.317396 -0.945235
vn -0.359999 0.270118 -0.892993
vn -0.432645 0.084653 -0.897581
vn -0.128229 0.090492 -0.987607
vn -0.359999 0.270118 -0.892993
vn -0.628970 0.202729 -0.750532
vn -0.694507 0.079272 -0.715106
vn -0.432645 0.084653 -0.897581
vn -0.628970 0.202729 -0.750532
vn -0.846815 0.120784 -0.517992
vn -0.885063 0.076225 -0.459187
vn -0.694507 0.079272 -0.715106
vn -0.846815 0.120784 -0.517992
vn -0.975438 0.034774 -0.217512
vn -0.984349 0.076669 -0.158678
vn -0.885063 0.076225 -0.459187
vn -0.975438 0.034774 -0.217512
vn -0.993103 -0.043015 0.109072
vn -0.984912 0.080222 0.153337
vn -0.984349 0.076669 -0.158678
vn -0.993103 -0.043015 0.109072
vn -0.902894 -0.103457 0.417227
vn -0.891144 0.085255 0.445640
vn -0.984912 0.080222 0.153337
vn -0.902894 -0.103457 0.417227
vn -0.724410 -0.142571 0.674465
vn -0.715951 0.089950 0.692332
vn -0.891144 0.085255 0.445640
vn -0.724410 -0.142571 0.674465
vn -0.481126 -0.159795 0.861965
vn -0.477480 0.093027 0.873704
vn -0.715951 0.089950 0.692332
vn -0.481126 -0.159795 0.861965
vn -0.194539 -0.155438 0.968501
vn -0.196970 0.093909 0.975902
vn -0.477480 0.093027 0.873704
vn -0.194539 -0.155438 0.968501
vn 0.114430 -0.129339 0.984976
vn 0.102280 0.092666 0.990430
vn -0.196970 0.093909 0.975902
vn 0.114430 -0.129339 0.984976
vn 0.420548 -0.081238 0.903626
vn 0.395223 0.090015 0.914164
vn 0.102280 0.092666 0.990430
vn 0.395223 0.090015 0.914164
vn 0.655332 0.087289 0.750280
vn 0.706987 0.198251 0.678871
vn 0.450112 0.287547 0.845409
vn 0.655332 0.087289 0.750280
vn 0.855776 0.086089 0.510134
vn 0.893566 0.097596 0.438194
vn 0.706987 0.198251 0.678871
vn 0.855776 0.086089 0.510134
vn 0.972669 0.087372 0.215130
vn 0.988646 -0.001914 0.150254
vn 0.893566 0.097596 0.438194
vn 0.972669 0.087372 0.215130
vn 0.990441 0.090686 -0.103938
vn 0.984353 -0.089143 -0.151994
vn 0.988646 -0.001914 0.150254
vn 0.990441 0.090686 -0.103938
vn 0.906339 0.094482 -0.411854
vn 0.885751 -0.156649 -0.436928
vn 0.984353 -0.089143 -0.151994
vn 0.906339 0.094482 -0.411854
vn 0.730569 0.097099 -0.675900
vn 0.706614 -0.200553 -0.678583
vn 0.885751 -0.156649 -0.436928
vn 0.730569 0.097099 -0.675900
vn 0.482575 0.097430 -0.870419
vn 0.465631 -0.219265 -0.857386
vn 0.706614 -0.200553 -0.678583
vn 0.482575 0.097430 -0.870419
vn 0.187018 0.095108 -0.977742
vn 0.184354 -0.212546 -0.959603
vn 0.465631 -0.219265 -0.857386
vn 0.187018 0.095108 -0.977742
vn -0.128229 0.090492 -0.987607
vn -0.113683 -0.181095 -0.976873
vn 0.184354 -0.212546 -0.959603
vn -0.128229 0.090492 -0.987607
vn -0.432645 0.084653 -0.897581
vn -0.403334 -0.126504 -0.906266
vn -0.113683 -0.181095 -0.976873
vn -0.432645 0.084653 -0.897581
vn -0.694507 0.079272 -0.715106
vn -0.658258 -0.051541 -0.751026
vn -0.403334 -0.126504 -0.906266
vn -0.694507 0.079272 -0.715106
vn -0.885063 0.076225 -0.459187
vn -0.851992 0.039132 -0.522090
vn -0.658258 -0.051541 -0.751026
vn -0.885063 0.076225 -0.459187
vn -0.984349 0.076669 -0.158678
vn -0.960952 0.137914 -0.239898
vn -0.851992 0.039132 -0.522090
vn -0.984349 0.076669 -0.158678
vn -0.984912 0.080222 0.153337
vn -0.970000 0.234049 0.065736
vn -0.960952 0.137914 -0.239898
vn -0.984912 0.080222 0.153337
vn -0.891144 0.085255 0.445640
vn -0.877769 0.315638 0.360409
vn -0.970000 0.234049 0.065736
vn -0.891144 0.085255 0.445640
vn -0.715951 0.089950 0.692332
vn -0.696767 0.372815 0.612801
vn -0.877769 0.315638 0.360409
vn -0.715951 0.089950 0.692332
vn -0.477480 0.093027 0.873704
vn -0.448212 0.399527 0.799678
vn -0.696767 0.372815 0.612801
vn -0.477480 0.093027 0.873704
vn -0.196970 0.093909 0.975902
vn -0.156629 0.393373 0.905939
vn -0.448212 0.399527 0.799678
vn -0.196970 0.093909 0.975902
vn 0.102280 0.092666 0.990430
vn 0.152133 0.354900 0.922443
vn -0.156629 0.393373 0.905939
vn 0.102280 0.092666 0.990430
vn 0.395223 0.090015 0.914164
vn 0.450112 0.287547 0.845409
vn 0.152133 0.354900 0.922443
vn 0.000000 -1.000000 0.000000
vn 0.000000 -1.000000 0.000000
vn 0.000000 -1.000000 0.000000
vn 0.000000 -1.000000 0.000000
vn 0.450112 0.287547 0.845409
vn 0.706987 0.198251 0.678871
vn -0.006597 0.993114 0.116970
vn 0.706987 0.198251 0.678871
vn 0.893566 0.097596 0.438194
vn -0.006597 0.993114 0.116970
vn 0.893566 0.097596 0.438194
vn 0.988646 -0.001914 0.150254
vn -0.006597 0.993114 0.116970
vn 0.988646 -0.001914 0.150254
vn 0.984353 -0.089143 -0.151994
vn -0.006597 0.993114 0.116970
vn 0.984353 -0.089143 -0.151994
vn 0.885751 -0.156649 -0.436928
vn -0.006597 0.993114 0.116970
vn 0.885751 -0.156649 -0.436928
vn 0.706614 -0.200553 -0.678583
vn -0.006597 0.993114 0.116970
vn 0.706614 -0.200553 -0.678583
vn 0.465631 -0.219265 -0.857386
vn -0.006597 0.993114 0.116970
vn 0.465631 -0.219265 -0.857386
vn 0.184354 -0.212546 -0.959603
vn -0.006597 0.993114 0.116970
vn 0.184354 -0.212546 -0.959603
vn -0.113683 -0.181095 -0.976873
vn -0.006597 0.993114 0.116970
vn -0.113683 -0.181095 -0.976873
vn -0.403334 -0.126504 -0.906266
vn -0.006597 0.993114 0.116970
vn -0.403334 -0.126504 -0.906266
vn -0.658258 -0.051541 -0.751026
vn -0.006597 0.993114 0.116970
vn -0.658258 -0.051541 -0.751026
vn -0.851992 0.039132 -0.522090
vn -0.006597 0.993114 0.116970
vn -0.851992 0.039132 -0.522090
vn -0.960952 0.137914 -0.239898
vn -0.006597 0.993114 0.116970
vn -0.960952 0.137914 -0.239898
vn -0.970000 0.234049 0.065736
vn -0.006597 0.993114 0.116970
vn -0.970000 0.234049 0.065736
vn -0.877769 0.315638 0.360409
vn -0.006597 0.993114 0.116970
vn -0.877769 0.315638 0.360409
vn -0.696767 0.372815 0.612801
vn -0.006597 0.993114 0.116970
vn -0.696767 0.372815 0.612801
vn -0.448212 0.399527 0.799678
vn -0.006597 0.993114 0.116970
vn -0.448212 0.399527 0.799678
vn -0.156629 0.393373 0.905939
vn -0.006597 0.993114 0.116970
vn -0.156629 0.393373 0.905939
vn 0.152133 0.354900 0.922443
vn -0.006597 0.993114 0.116970
vn 0.152133 0.354900 0.922443
vn 0.450112 0.287547 0.845409
vn -0.006597 0.993114 0.116970
vn 0.000000 -1.000000 0.000000
vn -0.000000 -1.000000 0.000000
vn -0.000000 -1.000000 0.000000
vn 0.000000 -1.000000 0.000000
vn 0.000000 -1.000000 -0.000000
vn 0.000000 -1.000000 0.000000
vn -0.000000 -1.000000 0.000000
vn 0.000000 -1.000000 0.000000
vn 0.000000 -1.000000 0.000000
vn 0.000000 -1.000000 -0.000000
vn 0.000000 -1.000000 -0.000000
vn 0.000000 -1.000000 0.000000
vn 0.000000 -1.000000 0.000000
vn 0.000000 -1.000000 0.000000
vn 0.000000 -1.000000 0.000000
vn 0.000000 -1.000000 0.000000
vn 0.000000 -1.000000 0.000000
vn 0.000000 -1.000000 0.000000
vn 0.000000 -1.000000 0.000000
vn 0.000000 -1.000000 0.000000
vn 0.000000 -1.000000 0.000000
vn 0.000000 -1.000000 0.000000
vn 0.000000 -1.000000 0.000000
s off
g polySurface260 polySurface257
usemtl puerta1:lambert16SG
f 1/1/1 2/2/2 22/3/3 21/4/4
f 2/2/5 3/5/6 23/6/7 22/3/8
f 3/5/9 4/7/10 24/8/11 23/6/12
f 4/7/13 5/9/14 25/10/15 24/8/16
f 5/9/17 6/11/18 26/12/19 25/10/20
f 6/11/21 7/13/22 27/14/23 26/12/24
f 7/13/25 8/15/26 28/16/27 27/14/28
f 8/15/29 9/17/30 29/18/31 28/16/32
f 9/17/33 10/19/34 30/20/35 29/18/36
f 10/19/37 11/21/38 31/22/39 30/20/40
f 11/23/41 12/24/42 32/25/43 31/26/44
f 12/24/45 13/27/46 33/28/47 32/25/48
f 13/27/49 14/29/50 34/30/51 33/28/52
f 14/29/53 15/31/54 35/32/55 34/30/56
f 15/31/57 16/33/58 36/34/59 35/32/60
f 16/33/61 17/35/62 37/36/63 36/34/64
f 17/35/65 18/37/66 38/38/67 37/36/68
f 18/37/69 19/39/70 39/40/71 38/38/72
f 19/39/73 20/41/74 40/42/75 39/40/76
f 20/41/77 1/1/78 21/4/79 40/42/80
f 21/4/81 22/3/82 42/43/83 41/44/84
f 22/3/85 23/6/86 43/45/87 42/43/88
f 23/6/89 24/8/90 44/46/91 43/45/92
f 24/8/93 25/10/94 45/47/95 44/46/96
f 25/10/97 26/12/98 46/48/99 45/47/100
f 26/12/101 27/14/102 47/49/103 46/48/104
f 27/14/105 28/16/106 48/50/107 47/49/108
f 28/16/109 29/18/110 49/51/111 48/50/112
f 29/18/113 30/20/114 50/52/115 49/51/116
f 30/20/117 31/22/118 51/53/119 50/52/120
f 31/26/121 32/25/122 52/54/123 51/55/124
f 32/25/125 33/28/126 53/56/127 52/54/128
f 33/28/129 34/30/130 54/57/131 53/56/132
f 34/30/133 35/32/134 55/58/135 54/57/136
f 35/32/137 36/34/138 56/59/139 55/58/140
f 36/34/141 37/36/142 57/60/143 56/59/144
f 37/36/145 38/38/146 58/61/147 57/60/148
f 38/38/149 39/40/150 59/62/151 58/61/152
f 39/40/153 40/42/154 60/63/155 59/62/156
f 40/42/157 21/4/158 41/44/159 60/63/160
s 1
f 7/64/161 68/65/162 9/66/163 8/67/164
s off
f 41/44/165 42/43/166 61/68/167
f 42/43/168 43/45/169 61/68/170
f 43/45/171 44/46/172 61/68/173
f 44/46/174 45/47/175 61/68/176
f 45/47/177 46/48/178 61/68/179
f 46/48/180 47/49/181 61/68/182
f 47/49/183 48/50/184 61/68/185
f 48/50/186 49/51/187 61/68/188
f 49/51/189 50/52/190 61/68/191
f 50/52/192 51/53/193 61/68/194
f 51/55/195 52/54/196 61/68/197
f 52/54/198 53/56/199 61/68/200
f 53/56/201 54/57/202 61/68/203
f 54/57/204 55/58/205 61/68/206
f 55/58/207 56/59/208 61/68/209
f 56/59/210 57/60/211 61/68/212
f 57/60/213 58/61/214 61/68/215
f 58/61/216 59/62/217 61/68/218
f 59/62/219 60/63/220 61/68/221
f 60/63/222 41/44/223 61/68/224
s 1
f 3/69/225 64/70/226 65/71/227 4/72/228
f 4/72/228 65/71/227 66/73/229 5/74/230
f 5/74/230 66/73/229 67/75/231 6/76/232
f 6/76/232 67/75/231 68/65/162 7/64/161
f 1/77/233 62/78/234 63/79/235 2/80/236
f 2/80/236 63/79/235 64/70/226 3/69/225
f 1/77/233 20/81/237 19/39/238 62/78/234
f 62/78/234 19/39/238 18/37/239 17/82/240
f 63/79/235 62/78/234 17/82/240 16/83/241
f 64/70/226 63/79/235 16/83/241 15/84/242
f 65/71/227 64/70/226 15/84/242 14/85/243
f 66/73/229 65/71/227 14/85/243 13/86/244
f 67/75/231 66/73/229 13/86/244 12/87/245
f 68/65/162 67/75/231 12/87/245 11/88/246
f 9/66/163 68/65/162 11/88/246 10/89/247
