# This file uses centimeters as units for non-parametric coordinates.

mtllib gemaplata.mtl
g default
v -1.466979 0.540297 7.386764
v -1.476860 0.540297 7.967424
v -1.466979 0.790297 7.386764
v -1.476860 0.790297 7.967424
v -1.006400 0.790297 7.334966
v -1.018312 0.790297 8.034865
v -1.006400 0.540297 7.334966
v -1.018312 0.540297 8.034865
v -1.400547 0.790297 7.328258
v -1.412458 0.790297 8.028157
v -1.412458 0.540297 8.028157
v -1.400547 0.540297 7.328258
v -1.508468 0.540297 7.452209
v -1.402687 0.437918 7.454009
v -1.008540 0.540297 7.460717
v -1.008540 0.790297 7.460717
v -1.402687 0.892677 7.454009
v -1.508468 0.790297 7.452209
v -1.410248 0.437918 7.898282
v -1.516029 0.540297 7.896482
v -1.516029 0.790297 7.896482
v -1.410248 0.892677 7.898282
v -1.016101 0.790297 7.904990
v -1.016101 0.540297 7.904990
vt 0.124308 0.039061
vt 0.220298 0.039061
vt 0.124308 0.135051
vt 0.220298 0.135051
vt 0.124308 0.231041
vt 0.220298 0.231041
vt 0.124308 0.327031
vt 0.220298 0.327031
vt 0.124308 0.423021
vt 0.220298 0.423021
vt 0.316288 0.039061
vt 0.316288 0.135051
vt 0.028318 0.039061
vt 0.028318 0.135051
vt 0.103997 0.135051
vt 0.124308 0.155362
vt 0.220298 0.155362
vt 0.240609 0.135051
vt 0.220298 0.402710
vt 0.240609 0.039061
vt 0.103997 0.039061
vt 0.124308 0.402710
vt 0.141554 0.039061
vt 0.141554 0.423021
vt 0.141554 0.402710
vt 0.141554 0.327031
vt 0.141554 0.231041
vt 0.141554 0.155362
vt 0.141554 0.135051
vt 0.202486 0.402710
vt 0.202486 0.039061
vt 0.202486 0.423021
vt 0.202486 0.135051
vt 0.202486 0.155362
vt 0.202486 0.231041
vt 0.202486 0.327031
vn -0.995402 0.000000 -0.095788
vn -0.995402 0.000000 -0.095788
vn -0.998123 0.000000 0.061233
vn -0.998123 0.000000 0.061233
vn 0.225728 0.970621 -0.083323
vn 0.009149 0.997922 -0.063784
vn 0.007115 0.997929 0.063931
vn 0.222114 0.970827 0.090337
vn 0.999855 0.000000 0.017016
vn 0.999855 0.000000 0.017016
vn 0.999855 0.000000 0.017016
vn 0.999855 0.000000 0.017016
vn 0.009149 -0.997922 -0.063784
vn 0.225728 -0.970621 -0.083323
vn 0.222114 -0.970827 0.090337
vn 0.007115 -0.997929 0.063931
vn -0.145508 0.000000 0.989357
vn -0.145508 0.000000 0.989357
vn -0.017016 0.000000 0.999855
vn -0.017016 0.000000 0.999855
vn 0.017016 0.000000 -0.999855
vn -0.111759 0.000000 -0.993735
vn -0.111759 0.000000 -0.993735
vn 0.017016 0.000000 -0.999855
vn -0.687788 0.722419 -0.071129
vn -0.689040 0.723139 0.047890
vn -0.686078 0.000000 0.727528
vn -0.686078 0.000000 0.727528
vn -0.687788 -0.722419 -0.071129
vn -0.689040 -0.723139 0.047890
vn -0.660925 0.000000 -0.750452
vn -0.660925 0.000000 -0.750452
vn 0.021640 -0.914373 -0.404295
vn -0.559218 -0.670973 -0.486898
vn 0.125766 -0.919592 -0.372202
vn 0.999855 0.000000 0.017016
vn 0.999855 0.000000 0.017016
vn 0.021640 0.914373 -0.404295
vn 0.125766 0.919592 -0.372202
vn -0.559218 0.670973 -0.486898
vn -0.844577 0.000000 -0.535433
vn -0.844577 0.000000 -0.535433
vn 0.008542 -0.919344 0.393361
vn -0.575872 -0.680589 0.452957
vn -0.875433 0.000000 0.483339
vn -0.875433 0.000000 0.483339
vn -0.575872 0.680589 0.452957
vn 0.008542 0.919344 0.393361
vn 0.113730 0.923644 0.365987
vn 0.999855 0.000000 0.017016
vn 0.999855 0.000000 0.017016
vn 0.113730 -0.923644 0.365987
s 1
g pCube64 group4
usemtl initialShadingGroup
f 18/29/1 13/23/2 20/31/3 21/33/4
s 2
f 16/27/5 17/28/6 22/34/7 23/35/8
s 3
f 15/26/9 16/27/10 23/35/11 24/36/12
s 4
f 14/25/13 15/26/14 24/36/15 19/30/16
s 5
f 10/18/17 11/20/18 8/11/19 6/12/20
s 6
f 7/13/21 12/21/22 9/15/23 5/14/24
s 2
f 17/28/6 18/29/25 21/33/26 22/34/7
s 5
f 2/2/27 11/20/18 10/18/17 4/4/28
s 4
f 13/24/29 14/25/13 19/30/16 20/32/30
s 6
f 9/15/23 12/21/22 1/1/31 3/3/32
s 4
f 12/22/33 14/25/13 13/24/29 1/9/34
f 7/7/35 15/26/14 14/25/13 12/22/33
s 3
f 5/5/36 16/27/10 15/26/9 7/7/37
s 2
f 9/16/38 17/28/6 16/27/5 5/5/39
f 3/3/40 18/29/25 17/28/6 9/16/38
s 1
f 1/1/41 13/23/2 18/29/1 3/3/42
s 4
f 20/32/30 19/30/16 11/19/43 2/10/44
s 1
f 21/33/4 20/31/3 2/2/45 4/4/46
s 2
f 22/34/7 21/33/26 4/4/47 10/17/48
f 23/35/8 22/34/7 10/17/48 6/6/49
s 3
f 24/36/12 23/35/11 6/6/50 8/8/51
s 4
f 19/30/16 24/36/15 8/8/52 11/19/43
