# This file uses centimeters as units for non-parametric coordinates.

mtllib plataforma.mtl
g default
v 0.553318 0.158983 7.206455
v 0.535974 0.158983 8.225611
v 0.553318 1.158983 7.206455
v 0.535974 1.158983 8.225611
v -1.161513 1.158983 7.177272
v -1.178857 1.158983 8.196426
v -1.178857 0.158983 8.196426
v -1.161513 0.158983 7.177272
v 0.553318 0.827654 7.206455
v 0.535974 0.827654 8.225611
v -1.178857 0.827654 8.196426
v -1.161513 0.827654 7.177272
v 0.535974 0.474138 8.225611
v 0.553318 0.474138 7.206455
v -1.161513 0.474138 7.177272
v -1.178857 0.474138 8.196426
v 0.527734 1.158983 8.709767
v -1.187096 1.158983 8.680585
v -1.187096 0.827654 8.680585
v 0.527734 0.827654 8.709767
v -1.153273 0.827654 6.693115
v 0.561558 0.827654 6.722299
v -1.153273 1.158983 6.693115
v 0.561558 1.158983 6.722299
v 0.561558 0.158983 6.722299
v -1.153273 0.158983 6.693115
v -1.153273 0.474138 6.693115
v 0.561558 0.474138 6.722299
v -1.187096 0.474138 8.680585
v 0.527734 0.474138 8.709767
v -1.187096 0.158983 8.680585
v 0.527734 0.158983 8.709767
v 0.531832 1.158983 8.468970
v -1.182999 1.158983 8.439786
v -1.182999 0.827654 8.439786
v 0.531832 0.827654 8.468970
v 0.557460 1.158983 6.963095
v -1.157371 1.158983 6.933912
v -1.157371 0.827654 6.933912
v 0.557460 0.827654 6.963095
v -1.183111 0.474138 8.446392
v -1.183111 0.158983 8.446392
v 0.531720 0.158983 8.475576
v 0.531720 0.474138 8.475576
v -1.157258 0.474138 6.927306
v -1.157258 0.158983 6.927306
v 0.557572 0.158983 6.956490
v 0.557572 0.474138 6.956490
v -1.430242 0.827654 8.192148
v -1.412897 0.827654 7.172994
v -1.412897 0.474138 7.172994
v -1.430242 0.474138 8.192148
v -1.412897 1.158983 7.172994
v -1.430242 1.158983 8.192148
v -1.412897 0.158983 7.172994
v -1.430242 0.158983 8.192148
v -1.434383 1.158983 8.435508
v -1.434383 0.827654 8.435508
v -1.438481 0.827654 8.676306
v -1.438481 1.158983 8.676306
v -1.434496 0.474138 8.442113
v -1.434496 0.158983 8.442113
v -1.438481 0.158983 8.676306
v -1.438481 0.474138 8.676306
v -1.408756 1.158983 6.929634
v -1.408756 0.827654 6.929634
v -1.404658 1.158983 6.688837
v -1.404658 0.827654 6.688837
v -1.408643 0.474138 6.923028
v -1.408643 0.158983 6.923028
v -1.404658 0.474138 6.688837
v -1.404658 0.158983 6.688837
vt 0.746445 0.112668
vt 0.752762 0.192731
vt 0.641221 0.200847
vt 0.646027 0.121160
vt 0.279023 0.522118
vt 0.279528 0.568561
vt 0.110879 0.564955
vt 0.110374 0.518512
vt 0.794867 0.575599
vt 0.798006 0.720328
vt 0.280002 0.612089
vt 0.111353 0.608484
vt 0.657830 0.268283
vt 0.250666 0.712051
vt 0.278572 0.480714
vt 0.109923 0.477109
vt 0.515665 0.489938
vt 0.958264 0.085409
vt 0.555893 0.393994
vt 0.532951 0.465480
vt 0.754022 0.087010
vt 0.788126 0.542295
vt 0.789375 0.508062
vt 0.790592 0.409659
vt 0.482069 0.106509
vt 0.526109 0.734580
vt 0.531602 0.774448
vt 0.477025 0.084343
vt 0.639107 0.094062
vt 0.790999 0.751864
vt 0.135458 0.893939
vt 0.068775 0.517623
vt 0.451494 0.185336
vt 0.108499 0.888861
vt 0.119304 0.715957
vt 0.627821 0.224950
vt 0.318882 0.947718
vt 0.293174 0.904239
vt 0.305748 0.896769
vt 0.951357 0.221649
vt 0.274772 0.718877
vt 0.766049 0.218355
vt 0.781432 0.239149
vt 0.295927 0.725480
vt 0.523957 0.568487
vt 0.929190 0.113121
vt 0.932874 0.089379
vt 0.524950 0.529647
vt 0.505205 0.918672
vt 0.527882 0.816612
vt 0.549574 0.833669
vt 0.460573 0.051447
vt 0.628425 0.069715
vt 0.793328 0.783860
vt 0.918383 0.172637
vt 0.245869 0.896297
vt 0.272960 0.893024
vt 0.928191 0.193664
vt 0.089815 0.901336
vt 0.425897 0.183594
vt 0.032562 0.916526
vt 0.078664 0.893192
vt 0.099168 0.723245
vt 0.614680 0.245214
vt 0.930568 0.063956
vt 0.544042 0.498101
vt 0.298519 0.881868
vt 0.366630 0.899813
vt 0.552916 0.806398
vt 0.601608 0.897989
vt 0.021756 0.887818
vt 0.081862 0.878000
vt 0.576867 0.411430
vt 0.957092 0.061592
vt 0.430588 0.468828
vt 0.426301 0.532718
vt 0.429179 0.567982
vt 0.421567 0.505555
vt 0.445026 0.419908
vt 0.469879 0.395013
vt 0.865446 0.475030
vt 0.875607 0.506116
vt 0.762696 0.063794
vt 0.894882 0.531895
vt 0.883758 0.570560
vt 0.900270 0.703066
vt 0.896024 0.742564
vt 0.885767 0.775240
vt 0.880083 0.809399
vt 0.480413 0.060763
vt 0.575251 0.918476
vt 0.538198 0.920223
vt 0.474621 0.866471
vt 0.321127 0.569450
vt 0.435319 0.787965
vt 0.456434 0.814118
vt 0.447600 0.848868
vt 0.450579 0.070413
vt 0.266009 0.962419
vt 0.292159 0.955611
vt 0.957011 0.201538
vt 0.346150 0.930303
vt 0.929980 0.216773
vt 0.345411 0.697825
vt 0.322464 0.675650
vt 0.298307 0.658744
vt 0.755161 0.252306
vt 0.143106 0.709084
vt 0.068536 0.670826
vt 0.092629 0.655479
vt 0.042857 0.689341
vt 0.448397 0.209944
vt 0.421955 0.206457
vt 0.052606 0.939898
vt 0.081700 0.953407
vt 0.320622 0.523007
vt 0.111535 0.625244
vt 0.321600 0.612979
vt 0.278390 0.463954
vt 0.109741 0.460348
vt 0.069280 0.564066
vt 0.460214 0.162341
vt 0.107725 0.962474
vt 0.068324 0.476219
vt 0.069754 0.607594
vt 0.280184 0.628850
vt 0.320171 0.481604
vt 0.801243 0.868616
vn 0.999855 0.000000 0.017016
vn 0.999855 0.000000 0.017016
vn 0.999855 0.000000 0.017016
vn 0.999855 0.000000 0.017016
vn -0.999855 0.000000 -0.017016
vn -0.999855 0.000000 -0.017016
vn -0.999855 0.000000 -0.017016
vn -0.999855 0.000000 -0.017016
vn 0.999855 0.000000 0.017016
vn 0.999855 0.000000 0.017016
vn -0.999855 0.000000 -0.017016
vn -0.999855 0.000000 -0.017016
vn 0.999855 0.000000 0.017016
vn 0.999855 0.000000 0.017016
vn -0.999855 0.000000 -0.017016
vn -0.999855 0.000000 -0.017016
vn -0.999855 0.000000 -0.017016
vn -0.999855 0.000000 -0.017016
vn -0.999855 0.000000 -0.017016
vn -0.999855 0.000000 -0.017016
vn 0.999855 0.000000 0.017016
vn 0.999855 0.000000 0.017016
vn 0.999855 0.000000 0.017017
vn 0.999855 0.000000 0.017017
vn -0.999855 0.000000 -0.017016
vn -0.999855 0.000000 -0.017016
vn -0.999855 0.000000 -0.017016
vn -0.999855 0.000000 -0.017016
vn 0.999855 0.000000 0.017016
vn 0.999855 0.000000 0.017016
vn 0.999855 0.000000 0.017016
vn 0.999855 0.000000 0.017016
vn -0.999855 0.000000 -0.017016
vn -0.999855 0.000000 -0.017016
vn -0.999855 0.000000 -0.017016
vn -0.999855 0.000000 -0.017016
vn 0.999855 0.000000 0.017017
vn 0.999855 0.000000 0.017017
vn 0.999855 0.000000 0.017016
vn 0.999855 0.000000 0.017016
vn -0.999855 0.000000 -0.017016
vn -0.999855 0.000000 -0.017016
vn -0.999855 0.000000 -0.017016
vn -0.999855 0.000000 -0.017016
vn 0.999855 0.000000 0.017016
vn 0.999855 0.000000 0.017016
vn 0.999855 0.000000 0.017017
vn 0.999855 0.000000 0.017017
vn -0.999855 0.000000 -0.017016
vn -0.999855 0.000000 -0.017016
vn -0.999855 0.000000 -0.017016
vn -0.999855 0.000000 -0.017016
vn 0.999855 0.000000 0.017016
vn 0.999855 0.000000 0.017016
vn -0.999855 0.000000 -0.017016
vn -0.999855 0.000000 -0.017016
vn -0.999855 0.000000 -0.017016
vn -0.999855 0.000000 -0.017016
vn 0.999855 0.000000 0.017016
vn 0.999855 0.000000 0.017016
vn -0.999855 0.000000 -0.017016
vn -0.999855 0.000000 -0.017016
vn -0.999855 0.000000 -0.017016
vn -0.999855 0.000000 -0.017016
vn 0.999855 0.000000 0.017016
vn 0.999855 0.000000 0.017016
vn -0.999855 0.000000 -0.017016
vn -0.999855 0.000000 -0.017016
vn -0.999855 0.000000 -0.017016
vn -0.999855 0.000000 -0.017016
vn 0.999855 0.000000 0.017016
vn 0.999855 0.000000 0.017016
vn 0.017016 0.000000 -0.999855
vn 0.017016 0.000000 -0.999855
vn 0.017016 0.000000 -0.999855
vn 0.017016 0.000000 -0.999855
vn -0.017016 0.000000 0.999855
vn -0.017016 0.000000 0.999855
vn -0.017016 0.000000 0.999855
vn -0.017016 0.000000 0.999855
vn -0.000000 1.000000 0.000000
vn -0.000000 1.000000 0.000000
vn -0.000000 1.000000 0.000000
vn -0.000000 1.000000 0.000000
vn 0.017016 0.000000 -0.999855
vn 0.017016 0.000000 -0.999855
vn 0.017016 0.000000 -0.999855
vn 0.017016 0.000000 -0.999855
vn -0.017016 0.000000 0.999855
vn -0.017016 0.000000 0.999855
vn -0.017016 0.000000 0.999855
vn -0.017016 0.000000 0.999855
vn 0.017016 0.000000 -0.999855
vn 0.017016 0.000000 -0.999855
vn 0.017016 0.000000 -0.999855
vn 0.017016 0.000000 -0.999855
vn 0.000000 -1.000000 0.000000
vn 0.000000 -1.000000 0.000000
vn 0.000000 -1.000000 0.000000
vn 0.000000 -1.000000 0.000000
vn -0.017016 0.000000 0.999855
vn -0.017016 0.000000 0.999855
vn -0.017016 0.000000 0.999855
vn -0.017016 0.000000 0.999855
vn 0.017016 0.000000 -0.999855
vn 0.017016 0.000000 -0.999855
vn 0.017016 0.000000 -0.999855
vn 0.017016 0.000000 -0.999855
vn 0.000000 -1.000000 0.000000
vn 0.000000 -1.000000 0.000000
vn 0.000000 -1.000000 0.000000
vn 0.000000 -1.000000 0.000000
vn -0.017016 0.000000 0.999855
vn -0.017016 0.000000 0.999855
vn -0.017016 0.000000 0.999855
vn -0.017016 0.000000 0.999855
vn -0.000000 1.000000 0.000000
vn -0.000000 1.000000 0.000000
vn -0.000000 1.000000 0.000000
vn -0.000000 1.000000 0.000000
vn 0.017016 0.000000 -0.999855
vn 0.017016 0.000000 -0.999855
vn 0.017016 0.000000 -0.999855
vn 0.017016 0.000000 -0.999855
vn 0.000000 -1.000000 0.000000
vn 0.000000 -1.000000 0.000000
vn 0.000000 -1.000000 0.000000
vn 0.000000 -1.000000 0.000000
vn -0.017016 0.000000 0.999855
vn -0.017016 0.000000 0.999855
vn -0.017016 0.000000 0.999855
vn -0.017016 0.000000 0.999855
vn -0.000000 1.000000 0.000000
vn -0.000000 1.000000 0.000000
vn -0.000000 1.000000 0.000000
vn -0.000000 1.000000 0.000000
vn -0.017016 0.000000 0.999855
vn -0.017016 0.000000 0.999855
vn -0.017016 0.000000 0.999855
vn -0.017016 0.000000 0.999855
vn -0.000000 1.000000 0.000000
vn -0.000000 1.000000 0.000000
vn -0.000000 1.000000 0.000000
vn -0.000000 1.000000 0.000000
vn 0.017016 0.000000 -0.999855
vn 0.017016 0.000000 -0.999855
vn 0.017016 0.000000 -0.999855
vn 0.017016 0.000000 -0.999855
vn 0.000000 -1.000000 0.000000
vn 0.000000 -1.000000 0.000000
vn 0.000000 -1.000000 0.000000
vn 0.000000 -1.000000 0.000000
vn -0.017016 0.000000 0.999855
vn -0.017016 0.000000 0.999855
vn -0.017016 0.000000 0.999855
vn -0.017016 0.000000 0.999855
vn -0.000000 1.000000 0.000000
vn -0.000000 1.000000 0.000000
vn -0.000000 1.000000 0.000000
vn -0.000000 1.000000 0.000000
vn 0.017016 0.000000 -0.999855
vn 0.017016 0.000000 -0.999855
vn 0.017016 0.000000 -0.999855
vn 0.017016 0.000000 -0.999855
vn 0.000000 -1.000000 0.000000
vn 0.000000 -1.000000 0.000000
vn 0.000000 -1.000000 0.000000
vn 0.000000 -1.000000 0.000000
vn 0.000000 1.000000 0.000000
vn 0.000000 1.000000 0.000000
vn 0.000000 1.000000 0.000000
vn 0.000000 1.000000 0.000000
vn 0.000000 1.000000 0.000000
vn 0.000000 1.000000 0.000000
vn 0.000000 1.000000 0.000000
vn 0.000000 1.000000 0.000000
vn 0.017016 0.000000 -0.999855
vn 0.017016 0.000000 -0.999855
vn 0.017016 0.000000 -0.999855
vn 0.017016 0.000000 -0.999855
vn 0.000000 -1.000000 0.000000
vn 0.000000 -1.000000 0.000000
vn 0.000000 -1.000000 0.000000
vn 0.000000 -1.000000 0.000000
vn 0.000000 -1.000000 0.000000
vn 0.000000 -1.000000 0.000000
vn 0.017016 0.000000 -0.999855
vn 0.017016 0.000000 -0.999855
vn 0.017016 0.000000 -0.999855
vn 0.017016 0.000000 -0.999855
vn -0.017015 0.000000 0.999855
vn -0.017015 0.000000 0.999855
vn -0.017015 0.000000 0.999855
vn -0.017015 0.000000 0.999855
vn -0.000000 1.000000 -0.000000
vn -0.000000 1.000000 -0.000000
vn -0.000000 1.000000 -0.000000
vn -0.000000 1.000000 -0.000000
vn -0.000000 1.000000 -0.000000
vn -0.000000 1.000000 -0.000000
vn -0.017017 0.000000 0.999855
vn -0.017017 0.000000 0.999855
vn -0.017017 0.000000 0.999855
vn -0.017017 0.000000 0.999855
vn 0.000000 -1.000000 0.000000
vn 0.000000 -1.000000 0.000000
vn 0.000000 -1.000000 0.000000
vn 0.000000 -1.000000 0.000000
vn 0.000000 -1.000000 0.000000
vn 0.000000 -1.000000 0.000000
vn -0.017015 0.000000 0.999855
vn -0.017015 0.000000 0.999855
vn -0.017015 0.000000 0.999855
vn -0.017015 0.000000 0.999855
vn -0.000000 1.000000 -0.000000
vn -0.000000 1.000000 -0.000000
vn -0.000000 1.000000 -0.000000
vn -0.000000 1.000000 -0.000000
vn -0.000000 1.000000 0.000000
vn -0.000000 1.000000 0.000000
vn 0.000000 1.000000 0.000000
vn -0.000000 1.000000 0.000000
vn -0.000000 1.000000 0.000000
vn 0.000000 1.000000 0.000000
vn 0.000000 1.000000 0.000000
vn 0.000000 1.000000 0.000000
vn 0.017016 0.000000 -0.999855
vn 0.017016 0.000000 -0.999855
vn 0.017016 0.000000 -0.999855
vn 0.017016 0.000000 -0.999855
vn 0.000000 -1.000000 0.000000
vn 0.000000 -1.000000 0.000000
vn 0.000000 -1.000000 0.000000
vn 0.000000 -1.000000 0.000000
vn 0.000000 -1.000000 0.000000
vn 0.000000 -1.000000 0.000000
vn 0.000000 -1.000000 0.000000
vn 0.000000 -1.000000 0.000000
vn 0.000000 -1.000000 0.000000
vn 0.000000 -1.000000 0.000000
vn 0.000000 -1.000000 0.000000
vn 0.000000 -1.000000 0.000000
vn 0.000000 -1.000000 0.000000
vn 0.000000 -1.000000 0.000000
vn 0.000000 -1.000000 0.000000
vn 0.000000 -1.000000 0.000000
s 1
g pCube61 group4
usemtl initialShadingGroup
f 10/1/1 13/2/2 14/3/3 9/4/4
s 2
f 52/5/5 49/6/6 50/7/7 51/8/8
s 1
f 4/9/9 10/85/1 9/86/4 3/10/10
s 2
f 49/6/6 54/11/11 53/12/12 50/7/7
s 1
f 1/13/13 14/3/3 13/2/2 2/107/14
s 2
f 56/15/15 52/5/5 51/8/8 55/16/16
s off
f 57/17/17 58/79/18 59/80/19 60/20/20
s 3
f 36/82/21 33/22/22 17/23/23 20/81/24
s off
f 12/95/25 5/26/26 38/27/27 39/96/28
s 4
f 3/10/29 9/87/30 40/88/31 37/30/32
s off
f 8/31/33 15/123/34 45/115/35 46/34/36
s 5
f 14/110/37 1/108/38 47/35/39 48/109/40
s off
f 61/37/41 62/38/42 63/39/43 64/102/44
s 6
f 43/41/45 44/105/46 30/104/47 32/44/48
s off
f 6/45/49 11/77/50 35/76/51 34/48/52
s 3
f 10/84/53 4/9/54 33/22/22 36/82/21
s off
f 66/49/55 65/50/56 67/51/57 68/92/58
s 4
f 37/30/32 40/88/31 22/89/59 24/54/60
s off
f 16/99/61 7/56/62 42/57/63 41/100/64
s 6
f 2/14/65 13/106/66 44/105/46 43/41/45
s off
f 70/59/67 69/114/68 71/61/69 72/62/70
s 5
f 48/109/40 47/35/39 25/63/71 28/111/72
s off
f 12/121/73 15/32/74 51/8/75 50/7/76
f 16/116/77 11/94/78 49/6/79 52/5/80
f 54/11/81 6/126/82 5/117/83 53/12/84
f 5/125/85 12/121/86 50/7/87 53/12/88
f 11/94/89 6/118/90 54/11/91 49/6/92
f 15/32/93 8/124/94 55/16/95 51/8/96
f 55/16/97 8/120/98 7/119/99 56/15/100
f 7/127/101 16/116/102 52/5/103 56/15/104
f 34/48/105 35/78/106 58/75/107 57/17/108
f 35/47/109 19/65/110 59/74/111 58/18/112
f 19/73/113 18/66/114 60/20/115 59/19/116
f 18/66/117 34/48/118 57/17/119 60/20/120
f 41/100/121 42/57/122 62/38/123 61/37/124
f 42/57/125 31/67/126 63/39/127 62/38/128
f 31/67/129 29/68/130 64/102/131 63/39/132
f 29/103/133 41/58/134 61/101/135 64/40/136
f 39/97/137 38/27/138 65/50/139 66/93/140
f 38/27/141 23/69/142 67/51/143 65/50/144
f 23/69/145 21/70/146 68/91/147 67/51/148
f 21/90/149 39/28/150 66/98/151 68/52/152
f 46/34/153 45/115/154 69/114/155 70/59/156
f 45/33/157 27/112/158 71/113/159 69/60/160
f 27/71/161 26/72/162 72/62/163 71/61/164
f 26/72/165 46/34/166 70/59/167 72/62/168
s 7
f 4/9/169 3/10/170 5/26/171 6/45/172
f 38/27/173 5/26/171 3/10/170 37/30/174
f 23/69/175 38/27/173 37/30/174 24/54/176
s off
f 24/54/177 22/128/178 21/70/179 23/69/180
s 8
f 22/53/181 40/29/182 39/28/183 21/90/184
f 40/29/182 9/4/185 12/25/186 39/28/183
s off
f 15/122/187 12/25/188 9/4/189 14/3/190
f 30/104/191 29/68/192 31/67/193 32/44/194
s 9
f 30/43/195 44/42/196 41/58/197 29/103/198
f 44/42/196 13/2/199 16/55/200 41/58/197
s off
f 13/2/201 10/1/202 11/46/203 16/55/204
s 10
f 35/47/205 11/46/206 10/1/207 36/21/208
f 19/65/209 35/47/205 36/21/208 20/83/210
s off
f 20/24/211 17/23/212 18/66/213 19/73/214
s 11
f 17/23/215 33/22/216 34/48/217 18/66/218
f 33/22/216 4/9/219 6/45/220 34/48/217
s 12
f 45/33/221 15/122/222 14/3/223 48/36/224
f 27/112/225 45/33/221 48/36/224 28/64/226
s off
f 25/63/227 26/72/228 27/71/229 28/111/230
s 13
f 47/35/231 46/34/232 26/72/233 25/63/234
f 1/108/235 8/31/236 46/34/232 47/35/231
s off
f 2/14/237 7/56/238 8/31/239 1/108/240
s 14
f 42/57/241 7/56/242 2/14/243 43/41/244
f 31/67/245 42/57/241 43/41/244 32/44/246
