# This file uses centimeters as units for non-parametric coordinates.

mtllib craneo casco detalle.mtl
g default
v 39.473114 1.470186 1.948733
v 39.515144 1.634924 1.926380
v 39.686792 1.580994 1.763423
v 39.656255 1.412646 1.774865
v 39.903081 1.546369 1.658800
v 39.887027 1.375702 1.663236
v 39.355530 1.542692 2.167818
v 39.404940 1.702879 2.131716
v 39.687469 1.583613 1.763539
v 39.516077 1.637463 1.926253
v 39.731066 1.445715 1.874791
v 39.748566 1.542189 1.868234
v 39.600169 1.588814 2.009117
v 39.576082 1.494410 2.021926
v 39.903437 1.549039 1.659070
v 39.406035 1.705317 2.131284
v 39.926357 1.414452 1.780324
v 39.935557 1.512254 1.777781
v 39.504892 1.647565 2.186639
v 39.476577 1.555768 2.207328
v 40.142839 1.534438 1.622749
v 40.142839 1.362972 1.624771
v 39.315013 1.623066 2.410676
v 39.366966 1.778209 2.359332
v 39.627649 1.663650 2.005380
v 39.768531 1.619386 1.871632
v 39.946054 1.590967 1.785760
v 39.537196 1.719425 2.173913
v 40.142839 1.537126 1.623072
v 39.368118 1.780535 2.358562
v 40.142839 1.403679 1.747773
v 40.142839 1.501939 1.746614
v 39.472061 1.712690 2.383424
v 39.442289 1.623784 2.412847
v 40.142839 1.581175 1.756171
v 39.506029 1.781253 2.360733
v 40.382597 1.546369 1.658800
v 40.398651 1.375702 1.663236
v 39.355530 1.703439 2.653534
v 39.404940 1.853538 2.586949
v 40.359321 1.414452 1.780324
v 40.350121 1.512254 1.777781
v 39.504892 1.777816 2.580209
v 39.476577 1.691800 2.618366
v 40.382241 1.549039 1.659070
v 39.406035 1.855752 2.585841
v 40.339624 1.590967 1.785760
v 39.537196 1.843081 2.547553
v 40.598886 1.580994 1.763423
v 40.629423 1.412646 1.774865
v 39.473114 1.775945 2.872620
v 39.515144 1.921493 2.792285
v 40.554612 1.445715 1.874791
v 40.537112 1.542189 1.868234
v 39.600169 1.836566 2.757731
v 39.576082 1.753158 2.803768
v 40.598208 1.583613 1.763538
v 39.516077 1.923607 2.790872
v 40.517146 1.619386 1.871631
v 39.627649 1.898856 2.716086
v 39.748566 1.883191 2.898614
v 39.731066 1.801852 2.950903
v 40.709595 1.494410 2.021926
v 40.685510 1.588814 2.009117
v 39.656255 1.833486 3.046487
v 39.686792 1.975423 2.955241
v 40.770534 1.634924 1.926380
v 40.812564 1.470186 1.948733
v 39.768531 1.943120 2.849834
v 40.658029 1.663650 2.005380
v 39.687469 1.977456 2.953585
v 40.769601 1.637463 1.926252
v 39.935557 1.913126 2.989066
v 39.926357 1.833116 3.045370
v 40.809101 1.555768 2.207328
v 40.780786 1.647565 2.186639
v 39.946054 1.971539 2.935706
v 40.748482 1.719425 2.173913
v 39.887027 1.870429 3.158116
v 39.903081 2.010048 3.059865
v 40.880738 1.702879 2.131715
v 40.930148 1.542692 2.167818
v 39.903437 2.012030 3.058054
v 40.879642 1.705317 2.131284
v 40.142839 1.923441 3.020233
v 40.142839 1.843889 3.077921
v 40.843388 1.623784 2.412847
v 40.813616 1.712690 2.383424
v 40.142839 1.981332 2.965296
v 40.779649 1.781253 2.360733
v 40.142839 1.883159 3.196581
v 40.142839 2.021979 3.095915
v 40.918712 1.778209 2.359332
v 40.970665 1.623066 2.410676
v 40.142839 2.023943 3.094052
v 40.917559 1.780535 2.358562
v 40.350120 1.913126 2.989066
v 40.359320 1.833116 3.045370
v 40.809101 1.691800 2.618366
v 40.780786 1.777816 2.580209
v 40.339624 1.971539 2.935706
v 40.748481 1.843081 2.547553
v 40.537112 1.883191 2.898614
v 40.554611 1.801852 2.950903
v 40.709595 1.753158 2.803768
v 40.685509 1.836566 2.757731
v 40.880738 1.853538 2.586949
v 40.930148 1.703439 2.653534
v 40.398651 1.870429 3.158116
v 40.382597 2.010048 3.059864
v 40.517146 1.943120 2.849834
v 40.658029 1.898856 2.716086
v 40.879642 1.855752 2.585841
v 40.382241 2.012030 3.058054
v 40.770533 1.921493 2.792285
v 40.812564 1.775945 2.872620
v 40.629423 1.833486 3.046487
v 40.598886 1.975423 2.955241
v 40.769601 1.923607 2.790872
v 40.598208 1.977456 2.953585
vt 0.140405 0.507836
vt 0.140405 0.521358
vt 0.126795 0.521358
vt 0.126795 0.507836
vt 0.113184 0.521358
vt 0.113184 0.507836
vt 0.154016 0.507836
vt 0.154016 0.521358
vt 0.126795 0.521578
vt 0.140405 0.521578
vt 0.126795 0.512395
vt 0.126795 0.521358
vt 0.140405 0.521358
vt 0.140405 0.512395
vt 0.113184 0.521578
vt 0.154016 0.521578
vt 0.113184 0.512395
vt 0.113184 0.521358
vt 0.154016 0.521358
vt 0.154016 0.512395
vt 0.099574 0.521358
vt 0.099574 0.507836
vt 0.167626 0.507836
vt 0.167626 0.521358
vt 0.140405 0.528848
vt 0.126795 0.528848
vt 0.113184 0.528848
vt 0.154016 0.528848
vt 0.099574 0.521578
vt 0.167626 0.521578
vt 0.099574 0.512395
vt 0.099574 0.521358
vt 0.167626 0.521358
vt 0.167626 0.512395
vt 0.099574 0.528848
vt 0.167626 0.528848
vt 0.085963 0.521358
vt 0.085963 0.507836
vt 0.181237 0.507836
vt 0.181237 0.521358
vt 0.085963 0.512395
vt 0.085963 0.521358
vt 0.181237 0.521358
vt 0.181237 0.512395
vt 0.085963 0.521578
vt 0.181237 0.521578
vt 0.085963 0.528848
vt 0.181237 0.528848
vt 0.072353 0.521358
vt 0.072353 0.507836
vt 0.194847 0.507836
vt 0.194847 0.521358
vt 0.072353 0.512395
vt 0.072353 0.521358
vt 0.194847 0.521358
vt 0.194847 0.512395
vt 0.072353 0.521578
vt 0.194847 0.521578
vt 0.072353 0.528848
vt 0.194847 0.528848
vt 0.208458 0.521358
vt 0.208458 0.512395
vt 0.058742 0.512395
vt 0.058742 0.521358
vt 0.208458 0.507836
vt 0.208458 0.521358
vt 0.058742 0.521358
vt 0.058742 0.507836
vt 0.208458 0.528848
vt 0.058742 0.528848
vt 0.208458 0.521578
vt 0.058742 0.521578
vt 0.222068 0.521358
vt 0.222068 0.512395
vt 0.045132 0.512395
vt 0.045132 0.521358
vt 0.222068 0.528848
vt 0.045132 0.528848
vt 0.222068 0.507836
vt 0.222068 0.521358
vt 0.045132 0.521358
vt 0.045132 0.507836
vt 0.222068 0.521578
vt 0.045132 0.521578
vt 0.235679 0.521358
vt 0.235679 0.512395
vt 0.303731 0.512395
vt 0.303731 0.521358
vt 0.317342 0.521358
vt 0.317342 0.512395
vt 0.235679 0.528848
vt 0.317342 0.528848
vt 0.303731 0.528848
vt 0.235679 0.507836
vt 0.235679 0.521358
vt 0.317342 0.507836
vt 0.317342 0.521358
vt 0.303731 0.521358
vt 0.303731 0.507836
vt 0.235679 0.521578
vt 0.303731 0.521578
vt 0.317342 0.521578
vt 0.249289 0.521358
vt 0.249289 0.512395
vt 0.290121 0.512395
vt 0.290121 0.521358
vt 0.249289 0.528848
vt 0.290121 0.528848
vt 0.262900 0.521358
vt 0.262900 0.512395
vt 0.276510 0.512395
vt 0.276510 0.521358
vt 0.290121 0.521358
vt 0.290121 0.507836
vt 0.249289 0.507836
vt 0.249289 0.521358
vt 0.262900 0.528848
vt 0.276510 0.528848
vt 0.290121 0.521578
vt 0.249289 0.521578
vt 0.276510 0.521358
vt 0.276510 0.507836
vt 0.262900 0.507836
vt 0.262900 0.521358
vt 0.276510 0.521578
vt 0.262900 0.521578
vt 0.171990 0.421138
vt 0.164369 0.425021
vt 0.158321 0.431069
vt 0.154437 0.438691
vt 0.153099 0.447139
vt 0.154437 0.455588
vt 0.158321 0.463209
vt 0.164369 0.469257
vt 0.171990 0.473141
vt 0.180439 0.474479
vt 0.180439 0.470200
vt 0.173289 0.469068
vt 0.166840 0.465781
vt 0.161721 0.460663
vt 0.158435 0.454213
vt 0.157303 0.447064
vt 0.158435 0.439914
vt 0.161721 0.433465
vt 0.166840 0.428346
vt 0.173289 0.425060
vt 0.180439 0.603074
vt 0.173940 0.602044
vt 0.168077 0.599057
vt 0.163424 0.594404
vt 0.160437 0.588541
vt 0.159408 0.582043
vt 0.160437 0.575544
vt 0.163424 0.569681
vt 0.168077 0.565028
vt 0.173940 0.562041
vt 0.180439 0.561011
vt 0.180439 0.556381
vt 0.172532 0.557634
vt 0.165400 0.561268
vt 0.159740 0.566928
vt 0.156105 0.574061
vt 0.154853 0.581967
vt 0.156105 0.589873
vt 0.159740 0.597006
vt 0.165400 0.602666
vt 0.172532 0.606300
vt 0.188345 0.606300
vt 0.195478 0.602666
vt 0.201138 0.597006
vt 0.204772 0.589873
vt 0.206025 0.581967
vt 0.204772 0.574061
vt 0.201138 0.566928
vt 0.195478 0.561268
vt 0.188345 0.557634
vt 0.186938 0.562041
vt 0.192801 0.565028
vt 0.197453 0.569681
vt 0.200441 0.575544
vt 0.201470 0.582043
vt 0.200441 0.588541
vt 0.197453 0.594404
vt 0.192801 0.599057
vt 0.186938 0.602044
vt 0.180439 0.607553
vt 0.188887 0.473141
vt 0.196509 0.469257
vt 0.202557 0.463209
vt 0.206440 0.455588
vt 0.207778 0.447139
vt 0.206440 0.438691
vt 0.202557 0.431069
vt 0.196509 0.425021
vt 0.188887 0.421138
vt 0.180439 0.419800
vt 0.180439 0.423928
vt 0.187588 0.425060
vt 0.194038 0.428346
vt 0.199156 0.433465
vt 0.202443 0.439914
vt 0.203575 0.447064
vt 0.202443 0.454213
vt 0.199156 0.460663
vt 0.194038 0.465781
vt 0.187588 0.469068
vn -0.770993 0.111633 -0.626983
vn -0.770541 0.113401 -0.627221
vn -0.559831 0.047198 -0.827262
vn -0.560160 0.045391 -0.827140
vn -0.294321 0.004693 -0.955695
vn -0.294494 0.002862 -0.955649
vn -0.906357 0.195102 -0.374770
vn -0.905825 0.196820 -0.375156
vn -0.531880 0.174091 -0.828731
vn -0.732088 0.236954 -0.638671
vn 0.560160 -0.045392 0.827140
vn 0.549491 -0.099448 0.829560
vn 0.756308 -0.164428 0.633216
vn 0.770993 -0.111634 0.626983
vn -0.279633 0.133652 -0.950759
vn -0.860620 0.316190 -0.399194
vn 0.294493 -0.002860 0.955649
vn 0.288884 -0.057728 0.955622
vn 0.889092 -0.246307 0.385808
vn 0.906356 -0.195102 0.374771
vn 0.000000 -0.009953 -0.999951
vn 0.000000 -0.011791 -0.999931
vn -0.953000 0.287629 -0.095190
vn -0.952441 0.289293 -0.095741
vn 0.732087 -0.236939 0.638677
vn 0.531893 -0.174041 0.828734
vn 0.279633 -0.133660 0.950758
vn 0.860619 -0.316196 0.399192
vn -0.000000 0.119688 -0.992812
vn -0.904891 0.404092 -0.133720
vn -0.000000 0.011796 0.999931
vn -0.000000 -0.043352 0.999060
vn 0.934847 -0.337071 0.111553
vn 0.953000 -0.287628 0.095191
vn -0.000000 -0.119745 0.992805
vn 0.904909 -0.404053 0.133720
vn 0.294321 0.004693 -0.955695
vn 0.294494 0.002863 -0.955649
vn -0.906357 0.380155 0.184390
vn -0.905825 0.381765 0.183675
vn -0.294491 -0.002859 0.955650
vn -0.288882 -0.057728 0.955623
vn 0.889093 -0.427834 -0.162702
vn 0.906357 -0.380154 -0.184390
vn 0.279640 0.133613 -0.950762
vn -0.860605 0.491937 0.131750
vn -0.279632 -0.133659 0.950758
vn 0.860620 -0.491910 -0.131752
vn 0.559831 0.047197 -0.827262
vn 0.560160 0.045392 -0.827140
vn -0.770993 0.463624 0.436603
vn -0.770541 0.465185 0.435740
vn -0.560159 -0.045391 0.827140
vn -0.549490 -0.099448 0.829561
vn 0.756308 -0.509713 -0.410111
vn 0.770994 -0.463623 -0.436603
vn 0.531901 0.173973 -0.828743
vn -0.732078 0.571196 0.371211
vn -0.531893 -0.174042 0.828734
vn 0.732087 -0.571167 -0.371238
vn 0.549490 -0.574693 -0.606456
vn 0.560160 -0.529865 -0.636760
vn -0.770994 -0.111632 0.626982
vn -0.756308 -0.164427 0.633215
vn -0.560160 0.529865 0.636761
vn -0.559831 0.531387 0.635781
vn 0.770541 0.113399 -0.627222
vn 0.770993 0.111633 -0.626984
vn 0.531892 -0.634066 -0.561294
vn -0.732087 -0.236939 0.638677
vn -0.531877 0.634104 0.561265
vn 0.732101 0.236880 -0.638683
vn 0.288883 -0.616413 -0.732517
vn 0.294493 -0.572395 -0.765270
vn -0.906357 -0.195102 0.374770
vn -0.889093 -0.246307 0.385807
vn 0.279632 -0.674450 -0.683318
vn -0.860619 -0.316196 0.399192
vn -0.294493 0.572395 0.765270
vn -0.294320 0.573891 0.764215
vn 0.905825 0.196820 -0.375156
vn 0.906357 0.195103 -0.374770
vn -0.279627 0.674451 0.683319
vn 0.860631 0.316188 -0.399174
vn -0.000000 -0.630789 -0.775955
vn -0.000000 -0.587050 -0.809551
vn -0.953000 -0.287629 0.095190
vn -0.934847 -0.337071 0.111552
vn 0.000000 -0.688365 -0.725365
vn -0.904909 -0.404054 0.133720
vn -0.000000 0.587050 0.809551
vn -0.000000 0.588537 0.808470
vn 0.952441 0.289292 -0.095740
vn 0.953000 0.287629 -0.095189
vn -0.000003 0.688336 0.725392
vn 0.904908 0.404056 -0.133716
vn -0.288884 -0.616413 -0.732517
vn -0.294493 -0.572395 -0.765270
vn -0.906357 -0.380154 -0.184390
vn -0.889093 -0.427834 -0.162702
vn -0.279632 -0.674450 -0.683318
vn -0.860620 -0.491910 -0.131751
vn -0.549489 -0.574694 -0.606456
vn -0.560160 -0.529865 -0.636760
vn -0.770994 -0.463623 -0.436603
vn -0.756308 -0.509713 -0.410111
vn 0.905825 0.381764 0.183675
vn 0.906357 0.380155 0.184390
vn 0.294493 0.572395 0.765270
vn 0.294320 0.573892 0.764215
vn -0.531891 -0.634066 -0.561294
vn -0.732086 -0.571168 -0.371238
vn 0.860616 0.491917 0.131752
vn 0.279629 0.674433 0.683336
vn 0.770541 0.465184 0.435740
vn 0.770993 0.463624 0.436603
vn 0.560160 0.529865 0.636760
vn 0.559831 0.531387 0.635780
vn 0.732077 0.571190 0.371221
vn 0.531882 0.634089 0.561278
vn -0.000000 -0.949361 0.314189
vn -0.000000 -0.949361 0.314188
vn -0.000000 -0.949361 0.314188
vn -0.000000 -0.949361 0.314188
vn -0.000000 -0.949361 0.314188
vn -0.000000 -0.949361 0.314188
vn -0.000000 -0.949361 0.314189
vn -0.000000 -0.949361 0.314188
vn -0.000000 -0.949361 0.314188
vn -0.000000 -0.949361 0.314189
vn -0.000000 -0.949361 0.314189
vn -0.000000 -0.949361 0.314188
vn -0.000000 -0.949361 0.314188
vn -0.000000 -0.949361 0.314188
vn -0.000000 -0.949361 0.314189
vn -0.000000 -0.949361 0.314188
vn -0.000000 -0.949361 0.314189
vn -0.000000 -0.949361 0.314188
vn -0.000000 -0.949361 0.314189
vn -0.000000 -0.949361 0.314189
vn -0.000000 0.949361 -0.314188
vn -0.000001 0.949361 -0.314188
vn -0.000001 0.949361 -0.314188
vn -0.000001 0.949361 -0.314188
vn -0.000001 0.949361 -0.314188
vn -0.000001 0.949361 -0.314188
vn -0.000001 0.949361 -0.314188
vn -0.000001 0.949361 -0.314188
vn -0.000001 0.949361 -0.314188
vn -0.000001 0.949361 -0.314188
vn -0.000000 0.949361 -0.314188
vn -0.000000 0.949361 -0.314188
vn -0.000001 0.949361 -0.314188
vn -0.000001 0.949361 -0.314188
vn -0.000001 0.949361 -0.314188
vn -0.000001 0.949361 -0.314188
vn -0.000001 0.949361 -0.314188
vn -0.000001 0.949361 -0.314188
vn -0.000001 0.949361 -0.314188
vn -0.000001 0.949361 -0.314188
vn -0.000001 0.949361 -0.314188
vn 0.000000 0.949361 -0.314188
vn 0.000000 0.949361 -0.314188
vn 0.000000 0.949361 -0.314188
vn 0.000000 0.949361 -0.314188
vn 0.000000 0.949361 -0.314188
vn 0.000000 0.949361 -0.314188
vn 0.000000 0.949361 -0.314188
vn 0.000000 0.949361 -0.314188
vn 0.000000 0.949361 -0.314188
vn 0.000000 0.949361 -0.314188
vn 0.000000 0.949361 -0.314188
vn 0.000000 0.949361 -0.314188
vn 0.000000 0.949361 -0.314188
vn 0.000000 0.949361 -0.314188
vn 0.000000 0.949361 -0.314188
vn 0.000000 0.949361 -0.314188
vn 0.000000 0.949361 -0.314188
vn 0.000000 0.949361 -0.314188
vn 0.000000 0.949361 -0.314188
vn -0.000001 -0.949361 0.314189
vn -0.000001 -0.949361 0.314189
vn -0.000001 -0.949361 0.314189
vn -0.000001 -0.949361 0.314189
vn -0.000001 -0.949361 0.314189
vn -0.000001 -0.949361 0.314189
vn -0.000001 -0.949361 0.314189
vn -0.000001 -0.949361 0.314189
vn -0.000001 -0.949361 0.314189
vn -0.000001 -0.949361 0.314189
vn -0.000001 -0.949361 0.314189
vn -0.000001 -0.949361 0.314189
vn -0.000001 -0.949361 0.314189
vn -0.000001 -0.949361 0.314189
vn -0.000001 -0.949361 0.314189
vn -0.000001 -0.949361 0.314189
vn -0.000001 -0.949361 0.314189
vn -0.000001 -0.949361 0.314189
vn -0.000001 -0.949361 0.314189
vn -0.000001 -0.949361 0.314189
s 1
g polySurface111 polySurface3
usemtl initialShadingGroup
f 1/1/1 2/2/2 3/3/3 4/4/4
f 4/4/4 3/3/3 5/5/5 6/6/6
f 7/7/7 8/8/8 2/2/2 1/1/1
f 9/9/9 3/3/3 2/2/2 10/10/10
s 2
f 11/11/11 12/12/12 13/13/13 14/14/14
s 1
f 15/15/15 5/5/5 3/3/3 9/9/9
f 10/10/10 2/2/2 8/8/8 16/16/16
s 2
f 17/17/17 18/18/18 12/12/12 11/11/11
f 14/14/14 13/13/13 19/19/19 20/20/20
s 1
f 6/6/6 5/5/5 21/21/21 22/22/22
f 23/23/23 24/24/24 8/8/8 7/7/7
s 2
f 25/25/25 13/13/13 12/12/12 26/26/26
f 26/26/26 12/12/12 18/18/18 27/27/27
f 28/28/28 19/19/19 13/13/13 25/25/25
s 1
f 29/29/29 21/21/21 5/5/5 15/15/15
f 16/16/16 8/8/8 24/24/24 30/30/30
s 2
f 31/31/31 32/32/32 18/18/18 17/17/17
f 20/20/20 19/19/19 33/33/33 34/34/34
f 27/27/27 18/18/18 32/32/32 35/35/35
f 36/36/36 33/33/33 19/19/19 28/28/28
s 1
f 22/22/22 21/21/21 37/37/37 38/38/38
f 39/39/39 40/40/40 24/24/24 23/23/23
s 2
f 41/41/41 42/42/42 32/32/32 31/31/31
f 34/34/34 33/33/33 43/43/43 44/44/44
s 1
f 45/45/45 37/37/37 21/21/21 29/29/29
f 30/30/30 24/24/24 40/40/40 46/46/46
s 2
f 35/35/35 32/32/32 42/42/42 47/47/47
f 48/48/48 43/43/43 33/33/33 36/36/36
s 1
f 38/38/38 37/37/37 49/49/49 50/50/50
f 51/51/51 52/52/52 40/40/40 39/39/39
s 2
f 53/53/53 54/54/54 42/42/42 41/41/41
f 44/44/44 43/43/43 55/55/55 56/56/56
s 1
f 57/57/57 49/49/49 37/37/37 45/45/45
f 46/46/46 40/40/40 52/52/52 58/58/58
s 2
f 47/47/47 42/42/42 54/54/54 59/59/59
f 60/60/60 55/55/55 43/43/43 48/48/48
f 56/56/56 55/55/55 61/61/61 62/62/62
f 63/63/63 64/64/64 54/54/54 53/53/53
s 1
f 65/65/65 66/66/66 52/52/52 51/51/51
f 50/50/50 49/49/49 67/67/67 68/68/68
s 2
f 69/69/69 61/61/61 55/55/55 60/60/60
f 59/59/59 54/54/54 64/64/64 70/70/70
s 1
f 58/58/58 52/52/52 66/66/66 71/71/71
f 72/72/72 67/67/67 49/49/49 57/57/57
s 2
f 62/62/62 61/61/61 73/73/73 74/74/74
f 75/75/75 76/76/76 64/64/64 63/63/63
f 77/77/77 73/73/73 61/61/61 69/69/69
f 70/70/70 64/64/64 76/76/76 78/78/78
s 1
f 79/79/79 80/80/80 66/66/66 65/65/65
f 68/68/68 67/67/67 81/81/81 82/82/82
f 71/71/71 66/66/66 80/80/80 83/83/83
f 84/84/84 81/81/81 67/67/67 72/72/72
s 2
f 74/74/74 73/73/73 85/85/85 86/86/86
f 87/87/87 88/88/88 76/89/76 75/90/75
f 89/91/89 85/85/85 73/73/73 77/77/77
f 78/92/78 76/89/76 88/88/88 90/93/90
s 1
f 91/94/91 92/95/92 80/80/80 79/79/79
f 82/96/82 81/97/81 93/98/93 94/99/94
f 83/83/83 80/80/80 92/95/92 95/100/95
f 96/101/96 93/98/93 81/97/81 84/102/84
s 2
f 86/86/86 85/85/85 97/103/97 98/104/98
f 99/105/99 100/106/100 88/88/88 87/87/87
f 101/107/101 97/103/97 85/85/85 89/91/89
f 90/93/90 88/88/88 100/106/100 102/108/102
f 98/104/98 97/103/97 103/109/103 104/110/104
f 105/111/105 106/112/106 100/106/100 99/105/99
s 1
f 94/99/94 93/98/93 107/113/107 108/114/108
f 109/115/109 110/116/110 92/95/92 91/94/91
s 2
f 111/117/111 103/109/103 97/103/97 101/107/101
f 102/108/102 100/106/100 106/112/106 112/118/112
f 104/110/104 103/109/103 106/112/106 105/111/105
s 1
f 113/119/113 107/113/107 93/98/93 96/101/96
f 95/100/95 92/95/92 110/116/110 114/120/114
s 2
f 112/118/112 106/112/106 103/109/103 111/117/111
s 1
f 108/114/108 107/113/107 115/121/115 116/122/116
f 117/123/117 118/124/118 110/116/110 109/115/109
f 119/125/119 115/121/115 107/113/107 113/119/113
f 114/120/114 110/116/110 118/124/118 120/126/120
f 116/122/116 115/121/115 118/124/118 117/123/117
f 120/126/120 118/124/118 115/121/115 119/125/119
s 3
f 79/127/121 65/128/122 51/129/123 39/130/124 23/131/125 7/132/126 1/133/127 4/134/128 6/135/129 22/136/130 31/137/131 17/138/132 11/139/133 14/140/134 20/141/135 34/142/136 44/143/137 56/144/138 62/145/139 74/146/140
s 4
f 89/147/141 77/148/142 69/149/143 60/150/144 48/151/145 36/152/146 28/153/147 25/154/148 26/155/149 27/156/150 35/157/151 29/158/152 15/159/153 9/160/154 10/161/155 16/162/156 30/163/157 46/164/158 58/165/159 71/166/160 83/167/161
f 114/168/162 120/169/163 119/170/164 113/171/165 96/172/166 84/173/167 72/174/168 57/175/169 45/176/170 29/158/152 35/157/151 47/177/171 59/178/172 70/179/173 78/180/174 90/181/175 102/182/176 112/183/177 111/184/178 101/185/179 89/147/141 83/167/161 95/186/180
s 3
f 22/136/130 38/187/181 50/188/182 68/189/183 82/190/184 94/191/185 108/192/186 116/193/187 117/194/188 109/195/189 91/196/190 79/127/121 74/146/140 86/197/191 98/198/192 104/199/193 105/200/194 99/201/195 87/202/196 75/203/197 63/204/198 53/205/199 41/206/200 31/137/131
