# This file uses centimeters as units for non-parametric coordinates.

mtllib craneo casco detalle1.mtl
g default
v 40.388534 1.465374 1.659487
v 40.395962 1.385269 1.661917
v 40.330503 1.382012 1.652074
v 40.356720 1.423931 1.778739
v 40.353746 1.456014 1.777766
v 40.330503 1.422627 1.774797
v 40.557163 1.736217 1.767462
v 40.596850 1.580597 1.761425
v 40.446979 1.556605 1.688929
v 40.611277 1.499894 1.767217
v 40.670536 1.603748 1.831379
v 40.494048 1.681972 1.869447
v 40.499019 1.682767 1.871851
v 40.497358 1.687645 1.872646
v 40.650306 1.916798 1.920706
v 40.710480 1.793629 1.915418
v 40.563220 1.747362 1.775617
v 40.717605 1.776895 2.156269
v 40.633455 1.725006 1.999480
v 40.661345 1.647944 2.003638
v 40.735768 1.723758 1.919189
v 40.786777 1.840676 2.057577
v 40.583672 1.859255 2.027552
v 40.646967 1.898284 2.145484
v 40.613620 1.939320 2.143317
v 40.694908 2.032452 2.082270
v 40.726110 1.994057 2.084298
v 40.666888 1.957539 1.973955
v 40.353746 1.865829 3.016072
v 40.356720 1.839499 3.034430
v 40.330503 1.840804 3.038372
v 40.613619 2.035644 2.434373
v 40.646967 2.001417 2.457113
v 40.583672 2.040446 2.575045
v 40.661345 1.885120 2.720297
v 40.633454 1.949449 2.677662
v 40.717605 1.897559 2.520872
v 40.497357 1.995127 2.801744
v 40.499018 1.991687 2.805291
v 40.494048 1.992483 2.807695
v 40.395961 1.876728 3.146920
v 40.388534 1.942467 3.101084
v 40.330503 1.879985 3.156763
v 40.666888 2.149866 2.555096
v 40.726109 2.113348 2.444753
v 40.694907 2.145373 2.423476
v 40.446979 1.998122 3.023030
v 40.596850 1.974130 2.950534
v 40.557162 2.095425 2.852853
v 40.786777 2.006190 2.557698
v 40.710479 2.053237 2.699858
v 40.735768 1.994912 2.738514
v 40.670536 1.950979 2.880580
v 40.611277 1.905905 2.994030
v 40.563220 2.099504 2.839659
v 40.650306 2.148934 2.622137
v 40.393552 1.518151 1.797819
v 40.535217 1.540830 1.866345
v 40.617109 1.566559 1.944090
v 40.550567 1.454964 1.872507
v 40.554059 1.456061 1.875822
v 40.576490 1.841606 2.004485
v 40.734812 1.858851 2.331415
v 40.672962 1.949851 2.301299
v 40.718798 1.779828 2.160103
v 40.624804 2.001536 2.284193
v 40.799766 1.872590 2.099289
v 40.756177 2.053702 2.264526
v 40.818026 1.962703 2.294642
v 40.708018 2.105388 2.247421
v 40.718798 1.897627 2.516047
v 40.550567 1.808467 2.940662
v 40.535217 1.881057 2.894384
v 40.617109 1.855327 2.816639
v 40.554059 1.807370 2.937347
v 40.393552 1.903735 2.962910
v 40.576490 2.040043 2.604086
v 40.799765 2.006920 2.505185
v 40.554059 1.410579 1.738392
v 40.554059 1.851418 3.070445
vt 0.113574 0.365374
vt 0.113574 0.353340
vt 0.120307 0.353340
vt 0.113574 0.362371
vt 0.113574 0.367946
vt 0.116764 0.362371
vt 0.087455 0.402252
vt 0.087455 0.377494
vt 0.105595 0.377494
vt 0.087455 0.365205
vt 0.076217 0.377494
vt 0.088222 0.403613
vt 0.087455 0.403613
vt 0.087455 0.404578
vt 0.061336 0.425555
vt 0.061336 0.403613
vt 0.086071 0.403613
vt 0.035871 0.403613
vt 0.061336 0.403613
vt 0.061336 0.388991
vt 0.061336 0.392152
vt 0.041375 0.403613
vt 0.057130 0.429733
vt 0.035216 0.429733
vt 0.035216 0.439951
vt 0.035216 0.437999
vt 0.035216 0.429733
vt 0.052943 0.429733
vt 0.296901 0.419879
vt 0.296901 0.414304
vt 0.293711 0.414304
vt 0.375259 0.491885
vt 0.375259 0.481666
vt 0.353345 0.481666
vt 0.349140 0.440925
vt 0.349140 0.455547
vt 0.374604 0.455547
vt 0.323020 0.456511
vt 0.323020 0.455547
vt 0.322254 0.455547
vt 0.294706 0.407468
vt 0.294706 0.419502
vt 0.287973 0.407468
vt 0.355337 0.483861
vt 0.373064 0.483861
vt 0.373064 0.492127
vt 0.302685 0.431623
vt 0.320825 0.431623
vt 0.320825 0.456381
vt 0.366906 0.457742
vt 0.346945 0.457742
vt 0.346945 0.446280
vt 0.332063 0.431623
vt 0.320825 0.419334
vt 0.322209 0.457742
vt 0.346945 0.479684
vt 0.107288 0.377494
vt 0.087455 0.377494
vt 0.073009 0.377494
vt 0.087455 0.362371
vt 0.086854 0.362371
vt 0.061336 0.427639
vt 0.401378 0.460562
vt 0.401378 0.481666
vt 0.427498 0.481666
vt 0.427498 0.455895
vt 0.427498 0.491885
vt 0.401378 0.495701
vt 0.425303 0.461015
vt 0.425303 0.483861
vt 0.399183 0.483861
vt 0.399183 0.465615
vt 0.399183 0.495995
vt 0.425303 0.492127
vt 0.375259 0.455895
vt 0.323020 0.414304
vt 0.323020 0.429428
vt 0.337467 0.429428
vt 0.323612 0.414304
vt 0.303187 0.429428
vt 0.349140 0.479573
vt 0.373064 0.461014
vt 0.095560 0.353340
vt 0.035216 0.403961
vt 0.035216 0.406886
vt 0.312720 0.407468
vt 0.149433 0.216935
vt 0.149298 0.217070
vt 0.141808 0.220886
vt 0.140795 0.221047
vt 0.140795 0.226042
vt 0.143324 0.225641
vt 0.149433 0.222529
vt 0.149433 0.168312
vt 0.143324 0.165199
vt 0.140795 0.164799
vt 0.140795 0.169617
vt 0.141808 0.169778
vt 0.149298 0.173594
vt 0.149433 0.173729
vt 0.115045 0.232505
vt 0.127209 0.228830
vt 0.139806 0.222629
vt 0.153673 0.214604
vt 0.164517 0.203459
vt 0.167278 0.200169
vt 0.171160 0.185998
vt 0.167278 0.171827
vt 0.164517 0.168538
vt 0.153673 0.157393
vt 0.139806 0.149367
vt 0.127209 0.143166
vt 0.115045 0.139492
vt 0.115045 0.148786
vt 0.128448 0.155384
vt 0.137852 0.160826
vt 0.149812 0.173118
vt 0.150065 0.173420
vt 0.153470 0.185847
vt 0.150066 0.198274
vt 0.149812 0.198577
vt 0.137852 0.210868
vt 0.128448 0.216311
vt 0.115045 0.222908
vt 0.226034 0.265281
vt 0.238370 0.263079
vt 0.250795 0.259326
vt 0.274217 0.250642
vt 0.275505 0.249897
vt 0.294018 0.237237
vt 0.297543 0.233038
vt 0.303500 0.224661
vt 0.306287 0.212748
vt 0.303500 0.200835
vt 0.297543 0.192459
vt 0.294018 0.188259
vt 0.275505 0.175599
vt 0.274218 0.174854
vt 0.250794 0.166170
vt 0.238370 0.162417
vt 0.226034 0.160214
vt 0.226034 0.168784
vt 0.230975 0.169666
vt 0.239437 0.172222
vt 0.260800 0.180142
vt 0.261504 0.180461
vt 0.278326 0.191965
vt 0.279853 0.193785
vt 0.286219 0.202738
vt 0.288597 0.212899
vt 0.286219 0.223061
vt 0.279853 0.232014
vt 0.278326 0.233833
vt 0.261504 0.245337
vt 0.260800 0.245656
vt 0.239437 0.253576
vt 0.230975 0.256132
vt 0.226034 0.257015
vn 0.427826 0.012252 -0.903778
vn 0.414411 0.010818 -0.910026
vn 0.149473 -0.016136 -0.988634
vn -0.427325 -0.012194 0.904016
vn -0.431841 -0.012678 0.901861
vn -0.149486 0.016145 0.988632
vn 0.615120 0.186591 -0.766036
vn 0.527772 0.103729 -0.843029
vn 0.431649 0.027982 -0.901608
vn 0.445459 0.015395 -0.895170
vn 0.644303 0.188704 -0.741123
vn -0.412860 -0.140261 0.899930
vn -0.581769 -0.212193 0.785187
vn -0.596224 -0.322858 0.735037
vn 0.726526 0.379531 -0.572815
vn 0.695737 0.293805 -0.655461
vn 0.639123 0.205365 -0.741180
vn -0.754210 -0.384734 0.532116
vn -0.697986 -0.291982 0.653882
vn -0.667887 -0.203090 0.716018
vn 0.660348 0.199942 -0.723854
vn 0.753214 0.386577 -0.532191
vn -0.749969 -0.392526 0.532418
vn -0.784529 -0.460754 0.414994
vn -0.731912 -0.575508 0.364822
vn 0.734297 0.577910 -0.356129
vn 0.784837 0.456359 -0.419248
vn 0.750422 0.391700 -0.532388
vn -0.431839 -0.548189 -0.716243
vn -0.427323 -0.549086 -0.718261
vn -0.149462 -0.576827 -0.803076
vn -0.731910 -0.679525 0.050527
vn -0.784529 -0.617356 -0.058197
vn -0.749970 -0.632647 -0.193140
vn -0.667887 -0.590140 -0.453499
vn -0.697986 -0.624414 -0.350603
vn -0.754211 -0.626213 -0.197545
vn -0.596220 -0.697609 -0.397320
vn -0.581769 -0.638710 -0.503582
vn -0.412860 -0.649428 -0.638585
vn 0.414411 0.551563 0.723907
vn 0.427827 0.548986 0.718038
vn 0.149457 0.576827 0.803077
vn 0.750423 0.631966 0.193608
vn 0.784836 0.616365 0.064233
vn 0.734296 0.676266 -0.058936
vn 0.431649 0.560316 0.706912
vn 0.527772 0.586164 0.614710
vn 0.615120 0.606737 0.503487
vn 0.753214 0.627737 0.196505
vn 0.695736 0.626820 0.350783
vn 0.660347 0.592288 0.461667
vn 0.644303 0.593571 0.482231
vn 0.445460 0.546374 0.709254
vn 0.639122 0.606976 0.472338
vn 0.726525 0.646318 0.233312
vn -0.430299 -0.037328 0.901914
vn -0.546365 -0.119398 0.828993
vn -0.644924 -0.186667 0.741100
vn -0.494324 -0.026014 0.868888
vn -0.675574 -0.068089 0.734142
vn -0.723296 -0.378170 0.577780
vn -0.840262 -0.514725 0.170346
vn -0.816226 -0.548477 0.181516
vn -0.790015 -0.424465 0.442387
vn -0.749012 -0.629005 0.208167
vn 0.787819 0.422409 -0.448232
vn 0.816705 0.547834 -0.181303
vn 0.840263 0.514724 -0.170345
vn 0.749010 0.629007 -0.208168
vn -0.790016 -0.604571 -0.101828
vn -0.494324 -0.539221 -0.681825
vn -0.546365 -0.590368 -0.594096
vn -0.644925 -0.591922 -0.483426
vn -0.675576 -0.492601 -0.548582
vn -0.430298 -0.568004 -0.701581
vn -0.723296 -0.648187 -0.238110
vn 0.787819 0.606409 0.107748
vn 0.433744 0.012886 -0.900944
vn 0.433745 0.547805 0.715385
vn -0.000000 -0.949361 0.314189
vn -0.000000 -0.949361 0.314189
vn -0.000000 -0.949361 0.314189
vn -0.000000 -0.949361 0.314189
vn -0.000000 -0.949361 0.314189
vn -0.000000 -0.949361 0.314189
vn -0.000000 -0.949361 0.314189
vn 0.000000 -0.949360 0.314189
vn 0.000000 -0.949360 0.314189
vn 0.000000 -0.949360 0.314189
vn 0.000000 -0.949360 0.314189
vn 0.000000 -0.949360 0.314189
vn 0.000000 -0.949360 0.314189
vn 0.000000 -0.949360 0.314189
vn 0.797891 -0.572276 0.189393
vn 0.797891 -0.572276 0.189393
vn 0.797891 -0.572276 0.189393
vn 0.797892 -0.572276 0.189393
vn 0.797891 -0.572276 0.189393
vn 0.797891 -0.572276 0.189393
vn 0.797892 -0.572276 0.189393
vn 0.797891 -0.572276 0.189393
vn 0.797891 -0.572276 0.189393
vn 0.797891 -0.572276 0.189393
vn 0.797891 -0.572276 0.189393
vn 0.797891 -0.572276 0.189393
vn 0.797892 -0.572276 0.189393
vn 0.797891 -0.572276 0.189393
vn 0.797891 -0.572276 0.189393
vn 0.797891 -0.572276 0.189393
vn 0.797891 -0.572276 0.189393
vn 0.797891 -0.572276 0.189393
vn 0.797891 -0.572276 0.189393
vn 0.797891 -0.572276 0.189393
vn 0.797891 -0.572276 0.189393
vn 0.797891 -0.572276 0.189393
vn 0.797891 -0.572276 0.189393
vn 0.797891 -0.572276 0.189393
vn -0.797891 0.572276 -0.189393
vn -0.797891 0.572276 -0.189393
vn -0.797891 0.572276 -0.189393
vn -0.797892 0.572276 -0.189393
vn -0.797892 0.572276 -0.189393
vn -0.797892 0.572276 -0.189393
vn -0.797892 0.572276 -0.189393
vn -0.797891 0.572276 -0.189393
vn -0.797892 0.572276 -0.189393
vn -0.797892 0.572276 -0.189393
vn -0.797892 0.572276 -0.189393
vn -0.797892 0.572276 -0.189393
vn -0.797892 0.572276 -0.189393
vn -0.797892 0.572276 -0.189393
vn -0.797892 0.572276 -0.189393
vn -0.797892 0.572276 -0.189393
vn -0.797892 0.572276 -0.189393
vn -0.797891 0.572276 -0.189393
vn -0.797892 0.572276 -0.189393
vn -0.797891 0.572276 -0.189393
vn -0.797892 0.572276 -0.189393
vn -0.797892 0.572276 -0.189393
vn -0.797892 0.572276 -0.189393
vn -0.797891 0.572276 -0.189393
vn -0.797892 0.572276 -0.189393
vn -0.797891 0.572276 -0.189393
vn -0.797891 0.572276 -0.189393
vn -0.797891 0.572276 -0.189393
vn -0.797891 0.572276 -0.189393
vn -0.797892 0.572276 -0.189393
vn -0.797891 0.572276 -0.189393
vn -0.797892 0.572276 -0.189393
vn -0.797891 0.572276 -0.189393
vn -0.797891 0.572276 -0.189393
s 1
g polySurface110 polySurface3
usemtl initialShadingGroup
f 1/1/1 2/2/2 3/3/3
s 2
f 4/4/4 5/5/5 6/6/6
s 1
f 7/7/7 8/8/8 9/9/9
f 10/10/10 8/8/8 11/11/11
s 2
f 12/12/12 13/13/13 14/14/14
s 1
f 15/15/15 16/16/16 17/17/17
s 2
f 18/18/18 19/19/19 20/20/20
s 1
f 21/21/21 16/16/16 22/22/22
s 2
f 23/23/23 24/24/24 25/25/25
s 1
f 26/26/26 27/27/27 28/28/28
s 2
f 29/29/29 30/30/30 31/31/31
f 32/32/32 33/33/33 34/34/34
f 35/35/35 36/36/36 37/37/37
f 38/38/38 39/39/39 40/40/40
s 1
f 41/41/41 42/42/42 43/43/43
f 44/44/44 45/45/45 46/46/46
f 47/47/47 48/48/48 49/49/49
f 50/50/50 51/51/51 52/52/52
f 53/53/53 48/48/48 54/54/54
f 55/55/55 51/51/51 56/56/56
s 2
f 57/57/57 58/58/58 13/13/13 12/12/12
f 59/59/59 58/58/58 60/60/60 61/61/61
f 14/14/14 13/13/13 19/19/19 62/62/62
f 63/63/63 64/64/64 24/65/24 65/66/65
f 25/67/25 24/65/24 64/64/64 66/68/66
s 1
f 67/69/67 27/70/27 68/71/68 69/72/69
f 70/73/70 68/71/68 27/70/27 26/74/26
s 2
f 66/68/66 64/64/64 33/33/33 32/32/32
f 71/75/71 33/33/33 64/64/64 63/63/63
f 72/76/72 73/77/73 74/78/74 75/79/75
f 40/40/40 39/39/39 73/77/73 76/80/76
f 77/81/77 36/36/36 39/39/39 38/38/38
s 1
f 46/46/46 45/45/45 68/71/68 70/73/70
f 69/72/69 68/71/68 45/45/45 78/82/78
s 2
f 60/60/60 58/58/58 57/57/57 5/5/5 4/4/4
f 20/20/20 19/19/19 13/13/13 58/58/58 59/59/59
f 30/30/30 29/29/29 76/80/76 73/77/73 72/76/72
f 74/78/74 73/77/73 39/39/39 36/36/36 35/35/35
s 1
f 2/2/2 1/1/1 9/9/9 8/8/8 10/10/10 79/83/79
f 11/11/11 8/8/8 7/7/7 17/17/17 16/16/16 21/21/21
s 2
f 65/84/65 24/24/24 23/23/23 62/62/62 19/19/19 18/18/18
s 1
f 22/22/22 16/16/16 15/15/15 28/28/28 27/27/27 67/85/67
s 2
f 36/36/36 77/81/77 34/34/34 33/33/33 71/75/71 37/37/37
s 1
f 54/54/54 48/48/48 47/47/47 42/42/42 41/41/41 80/86/80
f 51/51/51 50/50/50 78/82/78 45/45/45 44/44/44 56/56/56
f 48/48/48 53/53/53 52/52/52 51/51/51 55/55/55 49/49/49
s off
f 61/87/81 60/88/82 4/89/83 6/90/84 3/91/85 2/92/86 79/93/87
f 80/94/88 41/95/89 43/96/90 31/97/91 30/98/92 72/99/93 75/100/94
f 79/101/95 10/102/96 11/103/97 21/104/98 22/105/99 67/106/100 69/107/101 78/108/102 50/109/103 52/110/104 53/111/105 54/112/106 80/113/107 75/114/108 74/115/109 35/116/110 37/117/111 71/118/112 63/119/113 65/120/114 18/121/115 20/122/116 59/123/117 61/124/118
f 43/125/119 42/126/120 47/127/121 49/128/122 55/129/123 56/130/124 44/131/125 46/132/126 70/133/127 26/134/128 28/135/129 15/136/130 17/137/131 7/138/132 9/139/133 1/140/134 3/141/135 6/142/136 5/143/137 57/144/138 12/145/139 14/146/140 62/147/141 23/148/142 25/149/143 66/150/144 32/151/145 34/152/146 77/153/147 38/154/148 40/155/149 76/156/150 29/157/151 31/158/152
