# This file uses centimeters as units for non-parametric coordinates.

mtllib piso5.mtl
g default
v 11.470659 0.412612 9.042877
v 11.486546 0.529494 8.129001
v 10.643161 0.528030 8.995008
v 10.693955 0.527952 9.040583
v 10.688750 0.455421 8.210988
v 10.768339 0.408758 8.188413
v 11.090250 0.188235 9.040825
v 10.693955 0.188235 9.040825
v 11.479660 0.188235 9.040825
v 11.090250 0.527952 9.040583
v 11.090250 0.189776 8.129243
v 10.693955 0.189776 8.129243
v 11.090250 0.529494 8.129001
v 11.426568 0.189705 8.171225
v 11.456451 0.026201 8.585151
v 11.462228 0.358139 8.584913
v 10.666383 0.020494 8.585154
v 10.643545 0.185388 8.177251
v 10.643161 0.188312 8.995251
v 10.637450 0.398152 8.584885
v 11.072003 0.456585 8.584843
v 10.668557 0.527991 9.017795
v 10.729012 0.431331 8.200075
v 10.668557 0.188273 9.018038
v 10.670519 0.167705 8.164471
vt 0.718261 0.951155
vt 0.753439 0.948968
vt 0.772017 0.971661
vt 0.715033 0.989352
vt 0.772455 0.907355
vt 0.764723 0.869731
vt 0.787348 0.853568
vt 0.811957 0.910513
vt 0.757921 0.944783
vt 0.755689 0.946874
vt 0.721223 0.902421
vt 0.761285 0.866724
vt 0.784638 0.849310
vt 0.662007 0.959708
vt 0.680633 0.948881
vt 0.777776 0.846451
vt 0.758121 0.863450
vt 0.723875 0.859592
vt 0.723157 0.827891
vt 0.691138 0.861500
vt 0.672206 0.839740
vt 0.674233 0.901024
vt 0.639148 0.897492
vt 0.780788 0.964286
vt 0.776511 0.968118
vn 0.000000 0.000713 1.000000
vn 0.000000 0.000713 1.000000
vn 0.000000 0.000713 1.000000
vn 0.000000 0.000713 1.000000
vn -0.999231 0.026592 -0.028821
vn -0.999231 0.026592 -0.028821
vn -0.999231 0.026592 -0.028821
vn -0.999231 0.026592 -0.028821
vn -0.107395 0.954405 -0.278528
vn -0.107395 0.954405 -0.278528
vn -0.107395 0.954405 -0.278528
vn -0.107395 0.954405 -0.278528
vn -0.232170 0.169562 -0.957782
vn -0.232170 0.169562 -0.957782
vn -0.232170 0.169562 -0.957782
vn -0.232170 0.169562 -0.957782
vn -0.003468 -0.003264 0.999989
vn -0.003468 -0.003264 0.999989
vn -0.003468 -0.003264 0.999989
vn -0.003468 -0.003264 0.999989
vn -0.101503 0.117707 -0.987847
vn -0.101503 0.117707 -0.987847
vn -0.101503 0.117707 -0.987847
vn -0.101503 0.117707 -0.987847
vn 0.057075 -0.067288 -0.996100
vn 0.057075 -0.067288 -0.996100
vn 0.057075 -0.067288 -0.996100
vn 0.057075 -0.067288 -0.996100
vn 0.993960 -0.100136 -0.044908
vn 0.993960 -0.100136 -0.044908
vn 0.993960 -0.100136 -0.044908
vn 0.993960 -0.100136 -0.044908
vn 0.999334 0.005909 -0.036009
vn 0.999334 0.005909 -0.036009
vn 0.999334 0.005909 -0.036009
vn 0.999334 0.005909 -0.036009
vn -0.999165 -0.040304 -0.006703
vn -0.999165 -0.040304 -0.006703
vn -0.999165 -0.040304 -0.006703
vn -0.999165 -0.040304 -0.006703
vn 0.008096 0.988932 -0.148149
vn 0.008096 0.988932 -0.148149
vn 0.008096 0.988932 -0.148149
vn 0.008096 0.988932 -0.148149
vn 0.265116 0.954123 -0.139148
vn 0.265116 0.954123 -0.139148
vn 0.265116 0.954123 -0.139148
vn 0.265116 0.954123 -0.139148
vn 0.119832 0.957563 0.262131
vn 0.119832 0.957563 0.262131
vn 0.119832 0.957563 0.262131
vn 0.119832 0.957563 0.262131
vn -0.248038 0.965961 0.073459
vn -0.248038 0.965961 0.073459
vn -0.248038 0.965961 0.073459
vn -0.248038 0.965961 0.073459
vn -0.070382 0.995127 0.069055
vn -0.070382 0.995127 0.069055
vn -0.070382 0.995127 0.069055
vn -0.070382 0.995127 0.069055
vn -0.667841 0.000531 0.744304
vn -0.667841 0.000531 0.744304
vn -0.667841 0.000531 0.744304
vn -0.667841 0.000531 0.744304
vn -0.667835 0.000532 0.744309
vn -0.667835 0.000532 0.744309
vn -0.667835 0.000532 0.744309
vn -0.667835 0.000532 0.744309
vn -0.568156 0.306414 -0.763747
vn -0.568156 0.306414 -0.763746
vn -0.568156 0.306414 -0.763746
vn -0.568156 0.306414 -0.763747
s off
g polySurface273 polySurface267
usemtl Piso:lambert4SG initialShadingGroup
f 10/1/1 4/2/2 8/3/3 7/4/4
f 20/5/5 5/6/6 18/7/7 17/8/8
f 20/5/9 3/9/10 22/10/11 21/11/12
f 18/7/13 5/6/14 23/12/15 25/13/16
f 9/14/17 1/15/18 10/1/19 7/4/20
f 12/16/21 6/17/22 13/18/23 11/19/24
f 13/18/25 2/20/26 14/21/27 11/19/28
f 14/21/29 2/20/30 16/22/31 15/23/32
f 16/22/33 1/15/34 9/14/35 15/23/36
f 19/24/37 3/9/38 20/5/39 17/8/40
f 22/10/41 4/2/42 10/1/43 21/11/44
f 10/1/45 1/15/46 16/22/47 21/11/48
f 16/22/49 2/20/50 13/18/51 21/11/52
f 13/18/53 6/17/54 23/12/55 21/11/56
f 23/12/57 5/6/58 20/5/59 21/11/60
f 8/3/61 4/2/62 22/10/63 24/25/64
f 22/10/65 3/9/66 19/24/67 24/25/68
f 23/12/69 6/17/70 12/16/71 25/13/72
