# This file uses centimeters as units for non-parametric coordinates.

mtllib piso4.mtl
g default
v 9.456277 -0.372552 10.063469
v 9.525341 -0.372713 10.159032
v 9.456277 0.514310 10.062837
v 9.525341 0.514148 10.158399
v 10.574132 -0.372552 10.063469
v 10.505068 -0.372713 10.159032
v 10.633500 0.479786 10.057154
v 10.474021 0.262168 10.268499
v 9.456277 0.515660 9.263997
v 9.525341 0.515822 9.168435
v 9.456277 -0.371201 9.264629
v 9.525341 -0.371040 9.169067
v 10.505068 0.515822 9.168435
v 10.574132 0.515660 9.263997
v 10.574132 -0.371201 9.264629
v 10.505068 -0.371040 9.169067
v 10.015205 0.070717 10.158715
v 9.525341 0.070718 10.158715
v 10.015205 -0.372713 10.159032
v 10.505068 0.070718 10.158715
v 10.015205 0.514148 10.158399
v 10.015205 0.072391 9.168751
v 9.525341 0.072391 9.168751
v 10.015205 0.442841 9.167148
v 10.505068 0.072391 9.168751
v 10.015205 -0.371040 9.169067
v 10.574132 0.071554 9.663733
v 10.574132 0.070879 10.063153
v 10.574132 -0.371876 9.664049
v 10.574132 0.072230 9.264313
v 10.574132 0.514986 9.663417
v 9.456277 0.071554 9.663733
v 9.456277 0.072230 9.264313
v 9.456277 -0.371876 9.664049
v 9.456277 0.070879 10.063153
v 9.456277 0.514986 9.663417
v 10.015205 0.514986 9.663417
v 9.490809 0.514229 10.110618
v 10.525225 0.404476 10.121505
v 10.539600 0.515741 9.216216
v 9.490809 0.515741 9.216216
v 10.015205 -0.371876 9.664049
v 9.490809 -0.371120 9.216848
v 10.539600 -0.371120 9.216848
v 10.539600 -0.372633 10.111250
v 9.490809 -0.372633 10.111250
v 9.490809 0.070799 10.110934
v 10.539600 0.070799 10.110934
v 9.490809 0.072311 9.216532
v 10.539600 0.072311 9.216532
vt 0.804746 0.769150
vt 0.854765 0.742436
vt 0.873878 0.753681
vt 0.815924 0.795282
vt 0.039661 0.866458
vt 0.032120 0.922238
vt 0.011839 0.930792
vt 0.012732 0.859286
vt 0.713074 0.731091
vt 0.730289 0.778750
vt 0.723027 0.798105
vt 0.686207 0.740428
vt 0.844745 0.678995
vt 0.820649 0.633788
vt 0.834085 0.614924
vt 0.870553 0.668703
vt 0.858430 0.728846
vt 0.856627 0.735698
vt 0.778691 0.704990
vt 0.089000 0.952024
vt 0.040799 0.933275
vt 0.036393 0.927749
vt 0.107019 0.884410
vt 0.146569 0.981464
vt 0.140142 0.959756
vt 0.146715 0.957158
vt 0.156854 0.977612
vt 0.202199 0.838028
vt 0.181918 0.846582
vt 0.177645 0.841070
vt 0.196619 0.828376
vt 0.814624 0.630351
vt 0.824725 0.608666
vt 0.684724 0.654051
vt 0.704351 0.667672
vt 0.702110 0.674171
vt 0.680211 0.664550
vt 0.166501 0.972016
vt 0.153165 0.954504
vt 0.174376 0.902362
vt 0.201306 0.909534
vt 0.746370 0.808353
vt 0.757564 0.795766
vt 0.814378 0.603943
vt 0.808638 0.627115
vt 0.752983 0.638045
vt 0.745623 0.618440
vt 0.047537 0.796804
vt 0.060873 0.814315
vt 0.189621 0.819917
vt 0.173238 0.835544
vt 0.125037 0.816795
vt 0.132128 0.790204
vt 0.073895 0.809063
vt 0.067468 0.787356
vt 0.677471 0.675490
vt 0.699975 0.680859
vt 0.024417 0.948902
vt 0.081910 0.978616
vt 0.880945 0.732755
vt 0.744115 0.783465
vt 0.067322 0.811662
vt 0.878320 0.743430
vt 0.734733 0.802921
vt 0.017418 0.940443
vt 0.057184 0.791208
vn 0.000000 0.000713 1.000000
vn 0.000000 0.000713 1.000000
vn 0.000000 0.000713 1.000000
vn 0.000000 0.000713 1.000000
vn 0.000000 -0.000712 -1.000000
vn 0.000000 -0.000712 -1.000000
vn 0.000000 -0.000712 -1.000000
vn 0.000000 -0.000712 -1.000000
vn 0.994535 -0.069847 -0.077601
vn 0.994535 -0.069847 -0.077601
vn 0.994535 -0.069847 -0.077601
vn 0.994535 -0.069847 -0.077601
vn -1.000000 -0.000000 0.000000
vn -1.000000 -0.000000 0.000000
vn -1.000000 -0.000000 0.000000
vn -1.000000 -0.000000 0.000000
vn 0.000000 0.999999 0.001691
vn 0.000000 0.999999 0.001691
vn 0.000000 0.999999 0.001691
vn 0.000000 0.999999 0.001691
vn 0.000000 -0.999999 -0.001690
vn 0.000000 -0.999999 -0.001690
vn 0.000000 -0.999999 -0.001690
vn 0.000000 -0.999999 -0.001690
vn -0.810490 0.000417 0.585753
vn -0.810490 0.000417 0.585753
vn -0.810490 0.000417 0.585753
vn -0.810490 0.000417 0.585753
vn 0.810490 0.000418 0.585753
vn 0.810490 0.000418 0.585753
vn 0.810490 0.000418 0.585753
vn 0.810490 0.000418 0.585753
vn -0.810490 -0.000417 -0.585752
vn -0.810490 -0.000417 -0.585752
vn -0.810490 -0.000417 -0.585752
vn -0.810490 -0.000417 -0.585752
vn 0.810486 -0.000418 -0.585758
vn 0.810486 -0.000418 -0.585758
vn 0.810486 -0.000418 -0.585758
vn 0.810486 -0.000418 -0.585758
vn -0.000000 0.000714 1.000000
vn -0.000000 0.000714 1.000000
vn -0.000000 0.000714 1.000000
vn -0.000000 0.000714 1.000000
vn 0.000000 0.000714 1.000000
vn 0.000000 0.000714 1.000000
vn 0.000000 0.000714 1.000000
vn 0.000000 0.000714 1.000000
vn -0.159317 -0.175306 0.971538
vn -0.159317 -0.175306 0.971538
vn -0.159317 -0.175306 0.971538
vn -0.159317 -0.175306 0.971538
vn -0.001490 -0.002359 -0.999996
vn -0.001490 -0.002359 -0.999996
vn -0.001490 -0.002359 -0.999996
vn -0.001490 -0.002359 -0.999996
vn 0.001490 -0.002359 -0.999996
vn 0.001490 -0.002359 -0.999996
vn 0.001490 -0.002359 -0.999996
vn 0.001490 -0.002359 -0.999996
vn 0.000000 -0.000712 -1.000000
vn 0.000000 -0.000712 -1.000000
vn 0.000000 -0.000712 -1.000000
vn 0.000000 -0.000712 -1.000000
vn 1.000000 0.000000 0.000000
vn 1.000000 0.000000 0.000000
vn 1.000000 0.000000 0.000000
vn 1.000000 0.000000 0.000000
vn 1.000000 0.000000 0.000000
vn 1.000000 0.000000 0.000000
vn 1.000000 0.000000 0.000000
vn 1.000000 0.000000 0.000000
vn 1.000000 0.000000 0.000000
vn 1.000000 0.000000 0.000000
vn 1.000000 0.000000 0.000000
vn 1.000000 0.000000 0.000000
vn -1.000000 0.000000 0.000000
vn -1.000000 0.000000 0.000000
vn -1.000000 0.000000 0.000000
vn -1.000000 0.000000 0.000000
vn -1.000000 0.000000 0.000000
vn -1.000000 0.000000 0.000000
vn -1.000000 0.000000 0.000000
vn -1.000000 0.000000 0.000000
vn -1.000000 -0.000000 0.000000
vn -1.000000 -0.000000 0.000000
vn -1.000000 -0.000000 0.000000
vn -1.000000 -0.000000 0.000000
vn 0.000000 0.999999 0.001691
vn 0.000000 0.999999 0.001691
vn 0.000000 0.999999 0.001691
vn 0.000000 0.999999 0.001691
vn 0.220448 0.948137 0.228995
vn 0.220448 0.948137 0.228995
vn 0.220448 0.948137 0.228995
vn 0.220448 0.948137 0.228995
vn -0.087863 0.970451 0.224732
vn -0.087863 0.970451 0.224732
vn -0.087863 0.970451 0.224732
vn -0.087863 0.970451 0.224732
vn 0.000000 0.999999 0.001690
vn 0.000000 0.999999 0.001690
vn 0.000000 0.999999 0.001690
vn 0.000000 0.999999 0.001690
vn -0.125407 0.984520 -0.122447
vn -0.125407 0.984520 -0.122447
vn -0.125407 0.984520 -0.122447
vn -0.125407 0.984520 -0.122447
vn 0.125407 0.984520 -0.122447
vn 0.125407 0.984520 -0.122447
vn 0.125407 0.984520 -0.122447
vn 0.125407 0.984520 -0.122447
vn -0.000000 0.999999 0.001690
vn -0.000000 0.999999 0.001690
vn -0.000000 0.999999 0.001690
vn -0.000000 0.999999 0.001690
vn 0.000000 -0.999999 -0.001691
vn 0.000000 -0.999999 -0.001691
vn 0.000000 -0.999999 -0.001691
vn 0.000000 -0.999999 -0.001691
vn -0.000000 -0.999999 -0.001691
vn -0.000000 -0.999999 -0.001691
vn -0.000000 -0.999999 -0.001691
vn -0.000000 -0.999999 -0.001691
vn -0.000000 -0.999999 -0.001690
vn -0.000000 -0.999999 -0.001690
vn -0.000000 -0.999999 -0.001690
vn -0.000000 -0.999999 -0.001690
vn 0.000000 -0.999999 -0.001691
vn 0.000000 -0.999999 -0.001691
vn 0.000000 -0.999999 -0.001691
vn 0.000000 -0.999999 -0.001691
vn 0.000000 -0.999999 -0.001691
vn 0.000000 -0.999999 -0.001691
vn 0.000000 -0.999999 -0.001691
vn 0.000000 -0.999999 -0.001691
vn -0.000000 -0.999999 -0.001691
vn -0.000000 -0.999999 -0.001691
vn -0.000000 -0.999999 -0.001691
vn -0.000000 -0.999999 -0.001691
vn -0.000000 -0.999999 -0.001691
vn -0.000000 -0.999999 -0.001691
vn -0.000000 -0.999999 -0.001691
vn -0.000000 -0.999999 -0.001691
vn -0.810492 0.000418 0.585749
vn -0.810492 0.000418 0.585749
vn -0.810492 0.000418 0.585749
vn -0.810492 0.000418 0.585749
vn -0.810494 0.000418 0.585747
vn -0.810494 0.000418 0.585747
vn -0.810494 0.000418 0.585747
vn -0.810494 0.000418 0.585747
vn -0.810487 0.000418 0.585757
vn -0.810487 0.000418 0.585757
vn -0.810487 0.000418 0.585757
vn -0.810487 0.000418 0.585757
vn 0.810491 0.000417 0.585751
vn 0.810491 0.000417 0.585751
vn 0.810491 0.000417 0.585751
vn 0.810491 0.000417 0.585751
vn 0.630942 -0.042996 0.774638
vn 0.630942 -0.042996 0.774638
vn 0.630942 -0.042996 0.774638
vn 0.630942 -0.042996 0.774638
vn 0.918221 -0.011314 0.395907
vn 0.918221 -0.011314 0.395907
vn 0.918221 -0.011314 0.395907
vn 0.918221 -0.011314 0.395907
vn -0.810489 -0.000418 -0.585754
vn -0.810489 -0.000418 -0.585754
vn -0.810489 -0.000418 -0.585754
vn -0.810489 -0.000418 -0.585754
vn -0.810491 -0.000417 -0.585751
vn -0.810491 -0.000417 -0.585751
vn -0.810491 -0.000417 -0.585751
vn -0.810491 -0.000417 -0.585751
vn -0.810490 -0.000418 -0.585752
vn -0.810490 -0.000418 -0.585752
vn -0.810490 -0.000418 -0.585752
vn -0.810490 -0.000418 -0.585752
vn 0.810493 -0.000418 -0.585749
vn 0.810493 -0.000418 -0.585749
vn 0.810493 -0.000418 -0.585749
vn 0.810493 -0.000418 -0.585749
vn 0.810493 -0.000417 -0.585749
vn 0.810493 -0.000417 -0.585749
vn 0.810493 -0.000417 -0.585749
vn 0.810493 -0.000417 -0.585749
vn 0.810488 -0.000417 -0.585756
vn 0.810488 -0.000417 -0.585756
vn 0.810488 -0.000417 -0.585756
vn 0.810488 -0.000417 -0.585756
s off
g polySurface271 polySurface267
usemtl Piso:lambert4SG initialShadingGroup
f 21/1/1 4/2/2 18/3/3 17/4/4
f 26/5/5 12/6/6 23/7/7 22/8/8
f 31/9/9 7/10/10 28/11/11 27/12/12
f 36/13/13 9/14/14 33/15/15 32/16/16
f 36/13/17 3/17/18 38/18/19 37/19/20
f 34/20/21 11/21/22 43/22/23 42/23/24
f 35/24/25 1/25/26 46/26/27 47/27/28
f 20/28/29 6/29/30 45/30/31 48/31/32
f 33/15/33 9/14/34 41/32/35 49/33/36
f 25/34/37 13/35/38 40/36/39 50/37/40
f 18/38/41 2/39/42 19/40/43 17/41/44
f 19/40/45 6/29/46 20/28/47 17/41/48
f 20/42/49 8/43/50 21/1/51 17/4/52
f 23/44/53 10/45/54 24/46/55 22/47/56
f 24/46/57 13/35/58 25/34/59 22/47/60
f 25/48/61 16/49/62 26/5/63 22/8/64
f 28/50/65 5/51/66 29/52/67 27/53/68
f 29/52/69 15/54/70 30/55/71 27/53/72
f 30/56/73 14/57/74 31/9/75 27/12/76
f 33/58/77 11/21/78 34/20/79 32/59/80
f 34/20/81 1/25/82 35/24/83 32/59/84
f 35/60/85 3/17/86 36/13/87 32/16/88
f 38/18/89 4/2/90 21/1/91 37/19/92
f 21/1/93 8/43/94 39/61/95 37/19/96
f 39/61/97 7/10/98 31/9/99 37/19/100
f 31/9/101 14/57/102 40/36/103 37/19/104
f 40/36/105 13/35/106 24/46/107 37/19/108
f 24/46/109 10/45/110 41/32/111 37/19/112
f 41/32/113 9/14/114 36/13/115 37/19/116
f 43/22/117 12/6/118 26/5/119 42/23/120
f 26/5/121 16/49/122 44/62/123 42/23/124
f 44/62/125 15/54/126 29/52/127 42/23/128
f 29/52/129 5/51/130 45/30/131 42/23/132
f 45/30/133 6/29/134 19/40/135 42/23/136
f 19/40/137 2/39/138 46/26/139 42/23/140
f 46/26/141 1/25/142 34/20/143 42/23/144
f 46/26/145 2/39/146 18/38/147 47/27/148
f 18/3/149 4/2/150 38/18/151 47/63/152
f 38/18/153 3/17/154 35/60/155 47/63/156
f 45/30/157 5/51/158 28/50/159 48/31/160
f 28/11/161 7/10/162 39/61/163 48/64/164
f 39/61/165 8/43/166 20/42/167 48/64/168
f 41/32/169 10/45/170 23/44/171 49/33/172
f 23/7/173 12/6/174 43/22/175 49/65/176
f 43/22/177 11/21/178 33/58/179 49/65/180
f 40/36/181 14/57/182 30/56/183 50/37/184
f 30/55/185 15/54/186 44/62/187 50/66/188
f 44/62/189 16/49/190 25/48/191 50/66/192
