# This file uses centimeters as units for non-parametric coordinates.

mtllib piso3.mtl
g default
v 8.486178 -0.409623 10.995039
v 8.532372 -0.409693 11.036487
v 8.486178 0.517174 10.994378
v 8.532372 0.517104 11.035825
v 10.025842 -0.409623 10.995039
v 9.979649 -0.409693 11.036487
v 10.011161 0.373572 10.978498
v 9.979649 0.517104 11.035825
v 8.500774 0.448579 10.240321
v 8.553046 0.419561 10.195574
v 8.486178 -0.408362 10.248906
v 8.532372 -0.408292 10.207459
v 9.919528 0.518505 10.206798
v 10.025842 0.518318 10.317114
v 9.919528 -0.408292 10.207459
v 10.025842 -0.408478 10.317774
v 9.256011 0.053705 11.036156
v 8.532372 0.053705 11.036156
v 9.256011 -0.409693 11.036487
v 9.979649 0.053705 11.036156
v 9.256011 0.517104 11.035825
v 9.225950 0.055107 10.207129
v 8.532372 0.055107 10.207129
v 9.225950 0.518505 10.206798
v 9.919528 0.055107 10.207129
v 9.225950 -0.408292 10.207459
v 10.025842 0.054348 10.656077
v 10.033004 -0.062046 10.995709
v 10.025842 -0.409051 10.656406
v 10.025842 0.054920 10.317443
v 10.025842 0.517746 10.655746
v 8.486178 0.054406 10.621643
v 8.486178 0.055037 10.248575
v 8.486178 -0.408992 10.621972
v 8.486178 0.053775 10.994709
v 8.486178 0.517804 10.621312
v 9.249089 0.517798 10.625125
v 8.509276 0.517138 11.015102
v 10.004451 0.489556 11.015341
v 9.972685 0.518412 10.261957
v 8.525957 0.438632 10.218465
v 9.249089 -0.408999 10.625786
v 8.509276 -0.408327 10.228183
v 9.972685 -0.408385 10.262617
v 10.002745 -0.409658 11.015764
v 8.509276 -0.409658 11.015764
v 8.509276 0.053740 11.015432
v 10.002745 0.053740 11.015432
v 8.509276 0.055072 10.227852
v 9.972685 0.055014 10.262286
vt 0.636377 0.594805
vt 0.720502 0.582552
vt 0.735358 0.600784
vt 0.636670 0.624309
vt 0.334734 0.469160
vt 0.254480 0.477212
vt 0.240508 0.458421
vt 0.334720 0.440118
vt 0.541481 0.538757
vt 0.543880 0.581890
vt 0.523609 0.593759
vt 0.513763 0.538367
vt 0.729777 0.530789
vt 0.722306 0.482385
vt 0.737675 0.469485
vt 0.758538 0.528939
vt 0.725530 0.577449
vt 0.723022 0.580011
vt 0.635080 0.534841
vt 0.243084 0.528519
vt 0.249358 0.482158
vt 0.251915 0.479677
vt 0.337353 0.529847
vt 0.231339 0.589504
vt 0.248746 0.574960
vt 0.251267 0.577473
vt 0.235323 0.594220
vt 0.436446 0.600584
vt 0.422439 0.580767
vt 0.424996 0.578188
vt 0.440864 0.596729
vt 0.719550 0.479628
vt 0.733475 0.465085
vt 0.543215 0.462735
vt 0.556802 0.482487
vt 0.550915 0.489193
vt 0.533084 0.472374
vt 0.239625 0.598686
vt 0.253796 0.579969
vt 0.337978 0.589304
vt 0.337856 0.618363
vt 0.535330 0.602423
vt 0.552976 0.587623
vt 0.728937 0.460971
vt 0.716641 0.476579
vt 0.636643 0.474132
vt 0.635778 0.445276
vt 0.429157 0.456897
vt 0.415983 0.476825
vt 0.441977 0.587042
vt 0.427387 0.575613
vt 0.433172 0.533253
vt 0.460325 0.532622
vt 0.427916 0.490378
vt 0.447641 0.477925
vt 0.525277 0.483704
vt 0.545129 0.496032
vt 0.232125 0.467413
vt 0.214136 0.528316
vt 0.743466 0.591307
vt 0.549512 0.585564
vt 0.421988 0.483540
vt 0.739570 0.596173
vt 0.532224 0.596532
vt 0.236161 0.462789
vt 0.439581 0.466561
vn 0.000000 0.000715 1.000000
vn 0.000000 0.000715 1.000000
vn 0.000000 0.000715 1.000000
vn 0.000000 0.000715 1.000000
vn 0.000000 -0.000712 -1.000000
vn 0.000000 -0.000712 -1.000000
vn 0.000000 -0.000712 -1.000000
vn 0.000000 -0.000712 -1.000000
vn 0.999473 0.024696 0.021060
vn 0.999473 0.024696 0.021060
vn 0.999473 0.024696 0.021060
vn 0.999473 0.024696 0.021060
vn -0.999640 0.016817 -0.020880
vn -0.999641 0.016817 -0.020880
vn -0.999640 0.016817 -0.020880
vn -0.999640 0.016817 -0.020880
vn -0.000000 0.999999 0.001690
vn -0.000000 0.999999 0.001690
vn -0.000000 0.999999 0.001690
vn -0.000000 0.999999 0.001690
vn -0.000000 -0.999999 -0.001690
vn -0.000000 -0.999999 -0.001690
vn -0.000000 -0.999999 -0.001690
vn -0.000000 -0.999999 -0.001690
vn -0.667817 0.000531 0.744325
vn -0.667817 0.000531 0.744325
vn -0.667817 0.000531 0.744325
vn -0.667817 0.000531 0.744325
vn 0.667834 0.000531 0.744310
vn 0.667834 0.000531 0.744310
vn 0.667834 0.000531 0.744310
vn 0.667834 0.000531 0.744310
vn -0.660303 0.009529 -0.750939
vn -0.660303 0.009529 -0.750939
vn -0.660303 0.009529 -0.750939
vn -0.660303 0.009529 -0.750939
vn 0.720046 -0.000495 -0.693926
vn 0.720046 -0.000495 -0.693926
vn 0.720046 -0.000495 -0.693926
vn 0.720046 -0.000495 -0.693926
vn 0.000000 0.000713 1.000000
vn 0.000000 0.000713 1.000000
vn 0.000000 0.000713 1.000000
vn 0.000000 0.000713 1.000000
vn 0.000000 0.000713 1.000000
vn 0.000000 0.000713 1.000000
vn 0.000000 0.000713 1.000000
vn 0.000000 0.000713 1.000000
vn 0.000000 0.000715 1.000000
vn 0.000000 0.000715 1.000000
vn 0.000000 0.000715 1.000000
vn 0.000000 0.000715 1.000000
vn 0.009268 -0.014586 -0.999851
vn 0.009268 -0.014586 -0.999851
vn 0.009268 -0.014586 -0.999851
vn 0.009268 -0.014586 -0.999851
vn 0.000000 -0.000714 -1.000000
vn 0.000000 -0.000714 -1.000000
vn 0.000000 -0.000714 -1.000000
vn 0.000000 -0.000714 -1.000000
vn 0.000000 -0.000712 -1.000000
vn 0.000000 -0.000712 -1.000000
vn 0.000000 -0.000712 -1.000000
vn 0.000000 -0.000712 -1.000000
vn 0.999888 -0.008825 -0.012080
vn 0.999888 -0.008825 -0.012080
vn 0.999888 -0.008825 -0.012080
vn 0.999888 -0.008825 -0.012080
vn 1.000000 -0.000000 0.000000
vn 1.000000 -0.000000 0.000000
vn 1.000000 -0.000000 0.000000
vn 1.000000 -0.000000 0.000000
vn 1.000000 0.000000 0.000000
vn 1.000000 0.000000 0.000000
vn 1.000000 0.000000 0.000000
vn 1.000000 0.000000 0.000000
vn -1.000000 0.000000 0.000000
vn -1.000000 0.000000 0.000000
vn -1.000000 0.000000 0.000000
vn -1.000000 0.000000 0.000000
vn -1.000000 -0.000000 0.000000
vn -1.000000 -0.000000 0.000000
vn -1.000000 -0.000000 0.000000
vn -1.000000 -0.000000 0.000000
vn -1.000000 0.000000 0.000000
vn -1.000000 0.000000 0.000000
vn -1.000000 0.000000 0.000000
vn -1.000000 0.000000 0.000000
vn -0.000000 0.999999 0.001690
vn -0.000000 0.999999 0.001690
vn -0.000000 0.999999 0.001690
vn -0.000000 0.999999 0.001690
vn 0.035055 0.997542 -0.060671
vn 0.035055 0.997542 -0.060671
vn 0.035055 0.997542 -0.060671
vn 0.035055 0.997542 -0.060671
vn 0.146634 0.985448 0.085974
vn 0.146634 0.985448 0.085974
vn 0.146634 0.985448 0.085974
vn 0.146634 0.985448 0.085974
vn 0.000000 0.999999 0.001690
vn 0.000000 0.999999 0.001690
vn 0.000000 0.999999 0.001690
vn 0.000000 0.999999 0.001690
vn 0.000000 0.999999 0.001690
vn 0.000000 0.999999 0.001690
vn 0.000000 0.999999 0.001690
vn 0.000000 0.999999 0.001690
vn -0.113964 0.992582 -0.042333
vn -0.113964 0.992582 -0.042333
vn -0.113964 0.992583 -0.042333
vn -0.113964 0.992583 -0.042333
vn 0.007996 0.981348 -0.192075
vn 0.007996 0.981348 -0.192075
vn 0.007996 0.981348 -0.192075
vn 0.007996 0.981348 -0.192075
vn 0.000000 -0.999999 -0.001692
vn 0.000000 -0.999999 -0.001692
vn 0.000000 -0.999999 -0.001692
vn 0.000000 -0.999999 -0.001692
vn 0.000000 -0.999999 -0.001691
vn 0.000000 -0.999999 -0.001691
vn 0.000000 -0.999999 -0.001691
vn 0.000000 -0.999999 -0.001691
vn 0.000000 -0.999999 -0.001691
vn 0.000000 -0.999999 -0.001691
vn 0.000000 -0.999999 -0.001691
vn 0.000000 -0.999999 -0.001691
vn 0.000000 -0.999999 -0.001690
vn 0.000000 -0.999999 -0.001690
vn 0.000000 -0.999999 -0.001690
vn 0.000000 -0.999999 -0.001690
vn 0.000000 -0.999999 -0.001691
vn 0.000000 -0.999999 -0.001691
vn 0.000000 -0.999999 -0.001691
vn 0.000000 -0.999999 -0.001691
vn -0.000000 -0.999999 -0.001691
vn -0.000000 -0.999999 -0.001691
vn -0.000000 -0.999999 -0.001691
vn -0.000000 -0.999999 -0.001691
vn 0.000000 -0.999999 -0.001690
vn 0.000000 -0.999999 -0.001690
vn 0.000000 -0.999999 -0.001690
vn 0.000000 -0.999999 -0.001690
vn -0.667857 0.000532 0.744289
vn -0.667857 0.000532 0.744289
vn -0.667857 0.000532 0.744289
vn -0.667857 0.000532 0.744289
vn -0.667860 0.000532 0.744287
vn -0.667860 0.000532 0.744287
vn -0.667860 0.000532 0.744287
vn -0.667860 0.000532 0.744287
vn -0.667817 0.000532 0.744325
vn -0.667817 0.000532 0.744326
vn -0.667817 0.000532 0.744325
vn -0.667817 0.000532 0.744325
vn 0.596340 -0.005602 0.802712
vn 0.596340 -0.005602 0.802712
vn 0.596340 -0.005602 0.802712
vn 0.596340 -0.005602 0.802712
vn 0.887975 0.029632 0.458936
vn 0.887975 0.029632 0.458936
vn 0.887975 0.029632 0.458936
vn 0.887975 0.029632 0.458936
vn 0.651891 -0.000880 0.758312
vn 0.651891 -0.000880 0.758312
vn 0.651891 -0.000880 0.758312
vn 0.651891 -0.000880 0.758312
vn -0.653458 0.011442 -0.756876
vn -0.653458 0.011442 -0.756876
vn -0.653458 0.011442 -0.756876
vn -0.653458 0.011442 -0.756876
vn -0.667853 -0.000531 -0.744293
vn -0.667853 -0.000531 -0.744293
vn -0.667853 -0.000531 -0.744293
vn -0.667853 -0.000531 -0.744293
vn -0.667803 -0.000531 -0.744338
vn -0.667803 -0.000531 -0.744338
vn -0.667803 -0.000531 -0.744338
vn -0.667803 -0.000531 -0.744338
vn 0.720038 -0.000494 -0.693935
vn 0.720038 -0.000494 -0.693935
vn 0.720038 -0.000494 -0.693935
vn 0.720038 -0.000494 -0.693935
vn 0.720039 -0.000495 -0.693933
vn 0.720039 -0.000495 -0.693933
vn 0.720039 -0.000495 -0.693933
vn 0.720039 -0.000495 -0.693933
vn 0.720044 -0.000495 -0.693928
vn 0.720044 -0.000495 -0.693928
vn 0.720044 -0.000495 -0.693928
vn 0.720044 -0.000495 -0.693928
s off
g polySurface269 polySurface267
usemtl Piso:lambert4SG initialShadingGroup
f 21/1/1 4/2/2 18/3/3 17/4/4
f 26/5/5 12/6/6 23/7/7 22/8/8
f 31/9/9 7/10/10 28/11/11 27/12/12
f 36/13/13 9/14/14 33/15/15 32/16/16
f 36/13/17 3/17/18 38/18/19 37/19/20
f 34/20/21 11/21/22 43/22/23 42/23/24
f 35/24/25 1/25/26 46/26/27 47/27/28
f 20/28/29 6/29/30 45/30/31 48/31/32
f 33/15/33 9/14/34 41/32/35 49/33/36
f 25/34/37 13/35/38 40/36/39 50/37/40
f 18/38/41 2/39/42 19/40/43 17/41/44
f 19/40/45 6/29/46 20/28/47 17/41/48
f 20/42/49 8/43/50 21/1/51 17/4/52
f 23/44/53 10/45/54 24/46/55 22/47/56
f 24/46/57 13/35/58 25/34/59 22/47/60
f 25/48/61 15/49/62 26/5/63 22/8/64
f 28/50/65 5/51/66 29/52/67 27/53/68
f 29/52/69 16/54/70 30/55/71 27/53/72
f 30/56/73 14/57/74 31/9/75 27/12/76
f 33/58/77 11/21/78 34/20/79 32/59/80
f 34/20/81 1/25/82 35/24/83 32/59/84
f 35/60/85 3/17/86 36/13/87 32/16/88
f 38/18/89 4/2/90 21/1/91 37/19/92
f 21/1/93 8/43/94 39/61/95 37/19/96
f 39/61/97 7/10/98 31/9/99 37/19/100
f 31/9/101 14/57/102 40/36/103 37/19/104
f 40/36/105 13/35/106 24/46/107 37/19/108
f 24/46/109 10/45/110 41/32/111 37/19/112
f 41/32/113 9/14/114 36/13/115 37/19/116
f 43/22/117 12/6/118 26/5/119 42/23/120
f 26/5/121 15/49/122 44/62/123 42/23/124
f 44/62/125 16/54/126 29/52/127 42/23/128
f 29/52/129 5/51/130 45/30/131 42/23/132
f 45/30/133 6/29/134 19/40/135 42/23/136
f 19/40/137 2/39/138 46/26/139 42/23/140
f 46/26/141 1/25/142 34/20/143 42/23/144
f 46/26/145 2/39/146 18/38/147 47/27/148
f 18/3/149 4/2/150 38/18/151 47/63/152
f 38/18/153 3/17/154 35/60/155 47/63/156
f 45/30/157 5/51/158 28/50/159 48/31/160
f 28/11/161 7/10/162 39/61/163 48/64/164
f 39/61/165 8/43/166 20/42/167 48/64/168
f 41/32/169 10/45/170 23/44/171 49/33/172
f 23/7/173 12/6/174 43/22/175 49/65/176
f 43/22/177 11/21/178 33/58/179 49/65/180
f 40/36/181 14/57/182 30/56/183 50/37/184
f 30/55/185 16/54/186 44/62/187 50/66/188
f 44/62/189 15/49/190 25/48/191 50/66/192
