# This file uses centimeters as units for non-parametric coordinates.

mtllib piso8.mtl
g default
v 10.088429 -0.274804 10.994198
v 10.132233 -0.274870 11.033502
v 10.024980 0.431884 10.984864
v 10.117506 0.499594 11.030901
v 11.475293 -0.274804 10.994198
v 11.431489 -0.274870 11.033502
v 11.475293 0.520146 10.993633
v 11.431489 0.520080 11.032937
v 10.088429 0.521403 10.250246
v 10.132233 0.521470 10.210944
v 10.088429 -0.273547 10.250815
v 10.132233 -0.273481 10.211511
v 11.431489 0.521470 10.210944
v 11.475293 0.521342 10.286092
v 11.475293 -0.273608 10.286658
v 11.431489 -0.273481 10.211511
v 10.781861 0.122605 11.033218
v 10.132233 0.122605 11.033218
v 10.781861 -0.274870 11.033502
v 11.431489 0.122605 11.033218
v 10.781861 0.418502 11.015507
v 10.781861 0.123994 10.211227
v 10.132233 0.123994 10.211227
v 10.782296 0.475179 10.216284
v 11.431489 0.123994 10.211227
v 10.781861 -0.273481 10.211511
v 11.475293 0.123269 10.640144
v 11.475293 0.122671 10.993914
v 11.475293 -0.274206 10.640429
v 11.475293 0.123867 10.286374
v 11.475293 0.520744 10.639862
v 10.088429 0.123299 10.622223
v 10.088429 0.123928 10.250530
v 10.088429 -0.274175 10.622507
v 10.093652 0.038202 10.994644
v 10.088429 0.520775 10.621940
v 10.780564 0.520774 10.622626
v 10.063437 0.454881 11.006805
v 11.453392 0.520113 11.013286
v 11.453392 0.521406 10.248517
v 10.110331 0.521436 10.230595
v 10.780564 -0.274177 10.623192
v 10.110331 -0.273514 10.231163
v 11.453392 -0.273544 10.249085
v 11.453392 -0.274837 11.013850
v 10.110331 -0.274837 11.013850
v 10.110331 0.122638 11.013565
v 11.453392 0.122638 11.013566
v 10.110331 0.123961 10.230879
v 11.453392 0.123931 10.248801
vt 0.517541 0.962632
vt 0.594927 0.953983
vt 0.605661 0.971223
vt 0.517507 0.979953
vt 0.557904 0.777968
vt 0.632998 0.770669
vt 0.645005 0.787069
vt 0.557752 0.802896
vt 0.430591 0.905497
vt 0.436526 0.949292
vt 0.421518 0.962704
vt 0.405636 0.906023
vt 0.604896 0.903002
vt 0.597950 0.856844
vt 0.613075 0.843141
vt 0.630453 0.902376
vt 0.605189 0.948709
vt 0.601077 0.950823
vt 0.517749 0.904294
vt 0.644859 0.719558
vt 0.637810 0.765980
vt 0.635409 0.768332
vt 0.558334 0.718272
vt 0.651999 0.661975
vt 0.638874 0.672698
vt 0.636724 0.670222
vt 0.651325 0.654919
vt 0.471155 0.650202
vt 0.483117 0.666622
vt 0.480665 0.668971
vt 0.466990 0.654294
vt 0.595460 0.854589
vt 0.609199 0.838582
vt 0.429554 0.834924
vt 0.442211 0.852627
vt 0.439164 0.856643
vt 0.423785 0.841731
vt 0.647004 0.651066
vt 0.634424 0.667734
vt 0.558800 0.658990
vt 0.558971 0.634125
vt 0.429544 0.971635
vt 0.441468 0.953858
vt 0.605014 0.834267
vt 0.592940 0.852381
vt 0.517502 0.844151
vt 0.517457 0.823902
vt 0.470013 0.785392
vt 0.482566 0.769599
vt 0.463145 0.658652
vt 0.478225 0.671340
vt 0.472103 0.715705
vt 0.447361 0.714942
vt 0.476920 0.760919
vt 0.459651 0.771651
vt 0.418974 0.849048
vt 0.436123 0.860785
vt 0.653000 0.778674
vt 0.668354 0.720425
vt 0.618552 0.965100
vt 0.438989 0.951593
vt 0.479744 0.765306
vt 0.610431 0.966825
vt 0.425362 0.967297
vt 0.649158 0.782998
vt 0.464330 0.778767
vn 0.013563 0.030043 0.999457
vn 0.013563 0.030043 0.999457
vn 0.013563 0.030043 0.999457
vn 0.013563 0.030043 0.999457
vn 0.000000 -0.000713 -1.000000
vn 0.000000 -0.000713 -1.000000
vn 0.000000 -0.000713 -1.000000
vn 0.000000 -0.000713 -1.000000
vn 1.000000 0.000001 0.000000
vn 1.000000 0.000001 0.000000
vn 1.000000 0.000001 0.000000
vn 1.000000 0.000001 0.000000
vn -1.000000 -0.000000 0.000000
vn -1.000000 -0.000000 0.000000
vn -1.000000 -0.000000 0.000000
vn -1.000000 -0.000000 0.000000
vn -0.036168 0.985401 0.166365
vn -0.036168 0.985401 0.166365
vn -0.036168 0.985401 0.166365
vn -0.036168 0.985401 0.166365
vn -0.000000 -0.999999 -0.001690
vn -0.000000 -0.999999 -0.001690
vn -0.000000 -0.999999 -0.001690
vn -0.000000 -0.999999 -0.001690
vn -0.712547 0.005079 0.701606
vn -0.712547 0.005079 0.701606
vn -0.712547 0.005079 0.701606
vn -0.712547 0.005079 0.701606
vn 0.667821 0.000532 0.744322
vn 0.667821 0.000532 0.744322
vn 0.667821 0.000532 0.744322
vn 0.667821 0.000532 0.744322
vn -0.667826 -0.000532 -0.744317
vn -0.667826 -0.000532 -0.744317
vn -0.667826 -0.000532 -0.744317
vn -0.667826 -0.000532 -0.744317
vn 0.863930 -0.000360 -0.503612
vn 0.863930 -0.000360 -0.503612
vn 0.863930 -0.000360 -0.503612
vn 0.863930 -0.000360 -0.503612
vn 0.000000 0.000716 1.000000
vn 0.000000 0.000716 1.000000
vn 0.000000 0.000716 1.000000
vn 0.000000 0.000716 1.000000
vn 0.000000 0.000716 1.000000
vn 0.000000 0.000716 1.000000
vn 0.000000 0.000716 1.000000
vn 0.000000 0.000716 1.000000
vn -0.015436 0.025936 0.999544
vn -0.015436 0.025936 0.999544
vn -0.015436 0.025936 0.999544
vn -0.015436 0.025936 0.999544
vn 0.004335 0.006373 -0.999970
vn 0.004335 0.006373 -0.999970
vn 0.004335 0.006373 -0.999970
vn 0.004335 0.006373 -0.999970
vn -0.004338 0.006378 -0.999970
vn -0.004338 0.006378 -0.999970
vn -0.004338 0.006378 -0.999970
vn -0.004338 0.006378 -0.999970
vn 0.000000 -0.000713 -1.000000
vn 0.000000 -0.000713 -1.000000
vn 0.000000 -0.000713 -1.000000
vn 0.000000 -0.000713 -1.000000
vn 1.000000 0.000000 0.000000
vn 1.000000 0.000000 0.000000
vn 1.000000 0.000000 0.000000
vn 1.000000 0.000000 0.000000
vn 1.000000 -0.000000 0.000000
vn 1.000000 -0.000000 0.000000
vn 1.000000 -0.000000 0.000000
vn 1.000000 -0.000000 0.000000
vn 1.000000 0.000000 0.000000
vn 1.000000 0.000000 0.000000
vn 1.000000 0.000000 0.000000
vn 1.000000 0.000000 0.000000
vn -1.000000 0.000000 0.000000
vn -1.000000 0.000000 0.000000
vn -1.000000 0.000000 0.000000
vn -1.000000 0.000000 0.000000
vn -0.999942 0.007350 0.007866
vn -0.999942 0.007350 0.007866
vn -0.999942 0.007350 0.007866
vn -0.999942 0.007350 0.007866
vn -0.991236 -0.087300 -0.099143
vn -0.991236 -0.087300 -0.099143
vn -0.991236 -0.087300 -0.099143
vn -0.991236 -0.087300 -0.099143
vn 0.048567 0.990291 0.130246
vn 0.048567 0.990291 0.130246
vn 0.048567 0.990291 0.130247
vn 0.048567 0.990291 0.130246
vn -0.144802 0.962036 0.231343
vn -0.144802 0.962036 0.231343
vn -0.144802 0.962036 0.231343
vn -0.144802 0.962036 0.231343
vn -0.000000 0.999999 0.001690
vn -0.000000 0.999999 0.001690
vn -0.000000 0.999999 0.001690
vn -0.000000 0.999999 0.001690
vn 0.000000 0.999999 0.001691
vn 0.000000 0.999999 0.001691
vn 0.000000 0.999999 0.001691
vn 0.000000 0.999999 0.001691
vn -0.063651 0.993053 -0.098962
vn -0.063651 0.993053 -0.098962
vn -0.063651 0.993053 -0.098962
vn -0.063651 0.993053 -0.098962
vn 0.066142 0.992533 -0.102484
vn 0.066142 0.992533 -0.102484
vn 0.066142 0.992533 -0.102484
vn 0.066142 0.992533 -0.102484
vn 0.000000 0.999999 0.001691
vn 0.000000 0.999999 0.001691
vn 0.000000 0.999999 0.001691
vn 0.000000 0.999999 0.001691
vn 0.000000 -0.999999 -0.001691
vn 0.000000 -0.999999 -0.001691
vn 0.000000 -0.999999 -0.001691
vn 0.000000 -0.999999 -0.001691
vn 0.000000 -0.999999 -0.001690
vn 0.000000 -0.999999 -0.001690
vn 0.000000 -0.999999 -0.001690
vn 0.000000 -0.999999 -0.001690
vn 0.000000 -0.999999 -0.001691
vn 0.000000 -0.999999 -0.001691
vn 0.000000 -0.999999 -0.001691
vn 0.000000 -0.999999 -0.001691
vn 0.000000 -0.999999 -0.001691
vn 0.000000 -0.999999 -0.001691
vn 0.000000 -0.999999 -0.001691
vn 0.000000 -0.999999 -0.001691
vn 0.000000 -0.999999 -0.001691
vn 0.000000 -0.999999 -0.001691
vn 0.000000 -0.999999 -0.001691
vn 0.000000 -0.999999 -0.001691
vn -0.000000 -0.999999 -0.001691
vn -0.000000 -0.999999 -0.001691
vn -0.000000 -0.999999 -0.001691
vn -0.000000 -0.999999 -0.001691
vn -0.000000 -0.999999 -0.001691
vn -0.000000 -0.999999 -0.001691
vn -0.000000 -0.999999 -0.001691
vn -0.000000 -0.999999 -0.001691
vn -0.667846 0.000533 0.744299
vn -0.667846 0.000533 0.744299
vn -0.667846 0.000533 0.744299
vn -0.667846 0.000533 0.744299
vn -0.485056 -0.030959 0.873935
vn -0.485056 -0.030959 0.873935
vn -0.485056 -0.030959 0.873935
vn -0.485056 -0.030959 0.873935
vn -0.513196 -0.062197 0.856015
vn -0.513196 -0.062197 0.856015
vn -0.513196 -0.062197 0.856015
vn -0.513196 -0.062197 0.856015
vn 0.667851 0.000532 0.744295
vn 0.667851 0.000532 0.744295
vn 0.667851 0.000532 0.744295
vn 0.667851 0.000532 0.744295
vn 0.667847 0.000525 0.744298
vn 0.667847 0.000525 0.744299
vn 0.667847 0.000525 0.744299
vn 0.667847 0.000525 0.744299
vn 0.667811 0.000526 0.744331
vn 0.667811 0.000526 0.744331
vn 0.667811 0.000526 0.744331
vn 0.667811 0.000526 0.744331
vn -0.667829 -0.000531 -0.744314
vn -0.667829 -0.000531 -0.744314
vn -0.667829 -0.000531 -0.744314
vn -0.667829 -0.000531 -0.744314
vn -0.667839 -0.000531 -0.744306
vn -0.667839 -0.000531 -0.744306
vn -0.667839 -0.000531 -0.744306
vn -0.667839 -0.000531 -0.744306
vn -0.667840 -0.000532 -0.744304
vn -0.667840 -0.000532 -0.744304
vn -0.667840 -0.000532 -0.744304
vn -0.667840 -0.000532 -0.744304
vn 0.863940 -0.000359 -0.503595
vn 0.863940 -0.000359 -0.503595
vn 0.863940 -0.000359 -0.503595
vn 0.863940 -0.000359 -0.503595
vn 0.863938 -0.000360 -0.503598
vn 0.863938 -0.000360 -0.503598
vn 0.863938 -0.000360 -0.503598
vn 0.863938 -0.000360 -0.503598
vn 0.863937 -0.000359 -0.503600
vn 0.863937 -0.000359 -0.503600
vn 0.863937 -0.000359 -0.503600
vn 0.863937 -0.000359 -0.503600
s off
g polySurface268 polySurface267
usemtl Piso:lambert4SG initialShadingGroup
f 21/1/1 4/2/2 18/3/3 17/4/4
f 26/5/5 12/6/6 23/7/7 22/8/8
f 31/9/9 7/10/10 28/11/11 27/12/12
f 36/13/13 9/14/14 33/15/15 32/16/16
f 36/13/17 3/17/18 38/18/19 37/19/20
f 34/20/21 11/21/22 43/22/23 42/23/24
f 35/24/25 1/25/26 46/26/27 47/27/28
f 20/28/29 6/29/30 45/30/31 48/31/32
f 33/15/33 9/14/34 41/32/35 49/33/36
f 25/34/37 13/35/38 40/36/39 50/37/40
f 18/38/41 2/39/42 19/40/43 17/41/44
f 19/40/45 6/29/46 20/28/47 17/41/48
f 20/42/49 8/43/50 21/1/51 17/4/52
f 23/44/53 10/45/54 24/46/55 22/47/56
f 24/46/57 13/35/58 25/34/59 22/47/60
f 25/48/61 16/49/62 26/5/63 22/8/64
f 28/50/65 5/51/66 29/52/67 27/53/68
f 29/52/69 15/54/70 30/55/71 27/53/72
f 30/56/73 14/57/74 31/9/75 27/12/76
f 33/58/77 11/21/78 34/20/79 32/59/80
f 34/20/81 1/25/82 35/24/83 32/59/84
f 35/60/85 3/17/86 36/13/87 32/16/88
f 38/18/89 4/2/90 21/1/91 37/19/92
f 21/1/93 8/43/94 39/61/95 37/19/96
f 39/61/97 7/10/98 31/9/99 37/19/100
f 31/9/101 14/57/102 40/36/103 37/19/104
f 40/36/105 13/35/106 24/46/107 37/19/108
f 24/46/109 10/45/110 41/32/111 37/19/112
f 41/32/113 9/14/114 36/13/115 37/19/116
f 43/22/117 12/6/118 26/5/119 42/23/120
f 26/5/121 16/49/122 44/62/123 42/23/124
f 44/62/125 15/54/126 29/52/127 42/23/128
f 29/52/129 5/51/130 45/30/131 42/23/132
f 45/30/133 6/29/134 19/40/135 42/23/136
f 19/40/137 2/39/138 46/26/139 42/23/140
f 46/26/141 1/25/142 34/20/143 42/23/144
f 46/26/145 2/39/146 18/38/147 47/27/148
f 18/3/149 4/2/150 38/18/151 47/63/152
f 38/18/153 3/17/154 35/60/155 47/63/156
f 45/30/157 5/51/158 28/50/159 48/31/160
f 28/11/161 7/10/162 39/61/163 48/64/164
f 39/61/165 8/43/166 20/42/167 48/64/168
f 41/32/169 10/45/170 23/44/171 49/33/172
f 23/7/173 12/6/174 43/22/175 49/65/176
f 43/22/177 11/21/178 33/58/179 49/65/180
f 40/36/181 14/57/182 30/56/183 50/37/184
f 30/55/185 15/54/186 44/62/187 50/66/188
f 44/62/189 16/49/190 25/48/191 50/66/192
