# This file uses centimeters as units for non-parametric coordinates.

mtllib piso1.mtl
g default
v 8.452453 0.416531 9.039458
v 8.463870 0.530229 8.129843
v 9.246717 0.528823 8.960125
v 9.090164 0.528687 9.040671
v 9.246717 0.529989 8.270312
v 9.070958 0.458846 8.216065
v 8.777017 -0.021624 9.015772
v 9.090164 0.146417 9.040943
v 8.777017 0.399964 9.021389
v 8.486496 0.146418 9.040943
v 8.835336 0.529452 8.588942
v 9.168441 0.528755 9.000398
v 9.246717 0.529406 8.615218
v 9.168441 0.530108 8.200077
v 8.777017 0.530227 8.129843
v 8.437060 0.363926 8.585375
v 8.777017 0.147957 8.130117
v 9.090164 0.147957 8.130117
v 8.486496 0.147958 8.130117
v 9.246718 0.147136 8.615491
v 9.246717 0.146553 8.960397
v 9.246717 0.147719 8.270585
v 8.486496 0.147188 8.585529
v 9.168441 0.146485 9.000671
v 9.168441 0.147838 8.200351
vt 0.364804 0.904109
vt 0.356016 0.961828
vt 0.318788 0.967137
vt 0.313678 0.904305
vt 0.366223 0.831386
vt 0.352850 0.846488
vt 0.319541 0.843543
vt 0.320302 0.822547
vt 0.260294 0.906874
vt 0.264043 0.951564
vt 0.248761 0.962655
vt 0.235786 0.906291
vt 0.277455 0.830313
vt 0.283979 0.851916
vt 0.273811 0.854031
vt 0.263649 0.838144
vt 0.274442 0.981265
vt 0.281432 0.961827
vt 0.322206 0.991311
vt 0.365568 0.972642
vt 0.272818 0.956354
vt 0.264504 0.861272
vt 0.249566 0.849788
vt 0.378633 0.903862
vt 0.260451 0.973920
vn -0.199819 0.976954 0.075049
vn -0.199819 0.976954 0.075049
vn -0.199819 0.976954 0.075049
vn -0.199819 0.976954 0.075049
vn -0.000001 -0.000716 -1.000000
vn -0.000001 -0.000716 -1.000000
vn -0.000001 -0.000716 -1.000000
vn -0.000001 -0.000716 -1.000000
vn 1.000000 0.000000 0.000001
vn 1.000000 0.000000 0.000001
vn 1.000000 0.000000 0.000001
vn 1.000000 0.000000 0.000001
vn 0.245809 0.125608 -0.961145
vn 0.245809 0.125608 -0.961145
vn 0.245809 0.125608 -0.961145
vn 0.245809 0.125608 -0.961145
vn -0.067671 -0.006633 0.997686
vn -0.067671 -0.006633 0.997686
vn -0.067671 -0.006633 0.997686
vn -0.067671 -0.006633 0.997686
vn 0.069367 -0.002546 0.997588
vn 0.069367 -0.002546 0.997588
vn 0.069367 -0.002546 0.997588
vn 0.069367 -0.002546 0.997588
vn -0.299694 0.938649 0.170652
vn -0.299694 0.938649 0.170652
vn -0.299694 0.938649 0.170652
vn -0.299694 0.938649 0.170652
vn 0.000002 0.999999 0.001691
vn 0.000002 0.999999 0.001691
vn 0.000002 0.999999 0.001691
vn 0.000002 0.999999 0.001691
vn 0.000002 0.999999 0.001690
vn 0.000002 0.999999 0.001690
vn 0.000002 0.999999 0.001690
vn 0.000002 0.999999 0.001690
vn 0.030342 0.985419 -0.167420
vn 0.030342 0.985419 -0.167420
vn 0.030342 0.985419 -0.167420
vn 0.030342 0.985419 -0.167420
vn -0.223672 0.957407 0.182598
vn -0.223672 0.957407 0.182598
vn -0.223672 0.957407 0.182598
vn -0.223672 0.957407 0.182598
vn 0.153943 0.125404 -0.980089
vn 0.153943 0.125404 -0.980089
vn 0.153943 0.125404 -0.980089
vn 0.153943 0.125404 -0.980089
vn 1.000000 0.000001 -0.000001
vn 1.000000 0.000001 -0.000001
vn 1.000000 0.000001 -0.000001
vn 1.000000 0.000001 -0.000001
vn -0.985290 -0.168857 0.026299
vn -0.985290 -0.168857 0.026299
vn -0.985290 -0.168857 0.026299
vn -0.985290 -0.168857 0.026299
vn -0.991542 -0.119320 -0.051067
vn -0.991542 -0.119320 -0.051067
vn -0.991542 -0.119320 -0.051067
vn -0.991542 -0.119320 -0.051067
vn 0.457498 0.000633 0.889211
vn 0.457498 0.000633 0.889211
vn 0.457498 0.000633 0.889211
vn 0.457498 0.000633 0.889211
vn 0.457490 0.000634 0.889214
vn 0.457490 0.000634 0.889214
vn 0.457490 0.000634 0.889214
vn 0.457490 0.000634 0.889214
vn 0.667835 -0.000532 -0.744309
vn 0.667835 -0.000532 -0.744309
vn 0.667835 -0.000532 -0.744309
vn 0.667835 -0.000532 -0.744309
s off
g polySurface275 polySurface267
usemtl Piso:lambert4SG initialShadingGroup
f 16/1/1 1/2/2 9/3/3 11/4/4
f 19/5/5 2/6/6 15/7/7 17/8/8
f 13/9/9 3/10/10 21/11/11 20/12/12
f 18/13/13 6/14/14 14/15/15 25/16/16
f 8/17/17 4/18/18 9/3/19 7/19/20
f 9/3/21 1/2/22 10/20/23 7/19/24
f 9/3/25 4/18/26 12/21/27 11/4/28
f 12/21/29 3/10/30 13/9/31 11/4/32
f 13/9/33 5/22/34 14/15/35 11/4/36
f 14/15/37 6/14/38 15/7/39 11/4/40
f 15/7/41 2/6/42 16/1/43 11/4/44
f 15/7/45 6/14/46 18/13/47 17/8/48
f 22/23/49 5/22/50 13/9/51 20/12/52
f 10/20/53 1/2/54 16/1/55 23/24/56
f 16/1/57 2/6/58 19/5/59 23/24/60
f 21/11/61 3/10/62 12/21/63 24/25/64
f 12/21/65 4/18/66 8/17/67 24/25/68
f 14/15/69 5/22/70 22/23/71 25/16/72
