# This file uses centimeters as units for non-parametric coordinates.

mtllib piso6.mtl
g default
v 9.281810 -0.399349 9.051354
v 9.347078 -0.399448 9.109916
v 9.281810 0.526797 9.050693
v 9.347078 0.526698 9.109256
v 10.587313 -0.399349 9.051354
v 10.522045 -0.399448 9.109916
v 10.587313 0.526797 9.050693
v 10.522045 0.526698 9.109256
v 9.281810 0.528262 8.184249
v 9.347078 0.528361 8.125688
v 9.281810 -0.397884 8.184911
v 9.347078 -0.397785 8.126349
v 10.619321 0.517995 8.185768
v 10.522045 0.528361 8.125688
v 10.587313 -0.397884 8.184911
v 10.522045 -0.397785 8.126349
v 9.934561 0.063625 9.109587
v 9.347078 0.063625 9.109587
v 9.934562 -0.399448 9.109916
v 10.522045 0.063625 9.109587
v 9.934562 0.286514 9.069203
v 9.934561 0.065288 8.126019
v 9.347078 0.065288 8.126019
v 9.934561 0.528361 8.125688
v 10.522045 0.065288 8.126019
v 9.934561 -0.222742 8.155538
v 10.587313 0.064456 8.617803
v 10.587313 0.063724 9.051024
v 10.587313 -0.398617 8.618132
v 10.587313 0.065189 8.184580
v 10.579550 0.350052 8.617599
v 9.281810 0.064456 8.617803
v 9.281810 0.065189 8.184580
v 9.281810 -0.398617 8.618132
v 9.281810 0.063724 9.051024
v 9.281810 0.527530 8.617472
v 9.934561 0.527530 8.617472
v 9.314445 0.526748 9.079975
v 10.554679 0.526748 9.079975
v 10.554679 0.528311 8.154969
v 9.314445 0.528311 8.154969
v 9.314445 0.063674 9.080305
v 9.314445 -0.399399 9.080635
v 10.554679 0.063674 9.080305
v 10.554679 -0.399399 9.080635
v 9.934561 -0.398617 8.618132
v 9.314445 -0.397835 8.155630
v 10.554679 -0.397835 8.155630
v 9.314445 0.065238 8.155300
v 10.554679 0.065238 8.155300
vt 0.309984 0.797802
vt 0.379892 0.796294
vt 0.390001 0.818080
vt 0.308044 0.811869
vt 0.034522 0.633617
vt 0.044074 0.702152
vt 0.023642 0.715294
vt 0.017362 0.633446
vt 0.234883 0.714626
vt 0.238581 0.769682
vt 0.217342 0.781483
vt 0.218518 0.712625
vt 0.401682 0.738066
vt 0.401891 0.682964
vt 0.422241 0.671382
vt 0.430808 0.741916
vt 0.388100 0.790569
vt 0.384002 0.793465
vt 0.318718 0.729081
vt 0.173328 0.728347
vt 0.159261 0.709882
vt 0.162852 0.706303
vt 0.179614 0.722830
vt 0.186957 0.553625
vt 0.167780 0.567222
vt 0.164289 0.563548
vt 0.181385 0.547365
vt 0.104602 0.716745
vt 0.050803 0.709549
vt 0.047405 0.705865
vt 0.103480 0.634314
vt 0.398829 0.678925
vt 0.417604 0.664426
vt 0.251034 0.634587
vt 0.262383 0.655773
vt 0.258597 0.658960
vt 0.243426 0.638918
vt 0.185316 0.716683
vt 0.166417 0.702702
vt 0.174469 0.635033
vt 0.203654 0.635324
vt 0.227873 0.795427
vt 0.244312 0.777638
vt 0.412265 0.657955
vt 0.395743 0.674905
vt 0.329646 0.658165
vt 0.333971 0.629117
vt 0.025289 0.551727
vt 0.045452 0.565282
vt 0.175216 0.541721
vt 0.160772 0.559895
vt 0.106268 0.551923
vt 0.106733 0.522754
vt 0.052331 0.558024
vt 0.037769 0.539836
vt 0.236055 0.643726
vt 0.251475 0.661650
vt 0.035871 0.727437
vt 0.104469 0.745917
vt 0.403842 0.807679
vt 0.241405 0.773695
vt 0.397218 0.813257
vt 0.222186 0.788719
vt 0.048858 0.561638
vt 0.029439 0.721699
vt 0.031219 0.545440
vn 0.046092 0.059186 0.997182
vn 0.046092 0.059186 0.997182
vn 0.046092 0.059186 0.997182
vn 0.046092 0.059186 0.997182
vn 0.030724 -0.039692 -0.998739
vn 0.030724 -0.039692 -0.998739
vn 0.030724 -0.039692 -0.998739
vn 0.030724 -0.039692 -0.998739
vn 0.999885 0.010361 -0.011065
vn 0.999885 0.010361 -0.011065
vn 0.999885 0.010361 -0.011065
vn 0.999885 0.010361 -0.011065
vn -1.000000 0.000000 -0.000001
vn -1.000000 0.000000 -0.000001
vn -1.000000 0.000000 -0.000001
vn -1.000000 0.000000 -0.000001
vn -0.000000 0.999999 0.001691
vn -0.000000 0.999999 0.001691
vn -0.000000 0.999999 0.001691
vn -0.000000 0.999999 0.001691
vn -0.667833 0.000531 0.744311
vn -0.667833 0.000531 0.744311
vn -0.667833 0.000531 0.744311
vn -0.667833 0.000531 0.744311
vn 0.667839 0.000530 0.744306
vn 0.667839 0.000530 0.744306
vn 0.667839 0.000530 0.744306
vn 0.667839 0.000530 0.744306
vn -0.000000 -0.999999 -0.001691
vn -0.000000 -0.999999 -0.001691
vn -0.000000 -0.999999 -0.001691
vn -0.000000 -0.999999 -0.001691
vn -0.667821 -0.000532 -0.744321
vn -0.667821 -0.000532 -0.744321
vn -0.667821 -0.000532 -0.744321
vn -0.667821 -0.000532 -0.744321
vn 0.667837 -0.000532 -0.744307
vn 0.667837 -0.000532 -0.744307
vn 0.667837 -0.000532 -0.744307
vn 0.667837 -0.000532 -0.744307
vn 0.000000 0.000712 1.000000
vn 0.000000 0.000712 1.000000
vn 0.000000 0.000712 1.000000
vn 0.000000 0.000712 1.000000
vn 0.000000 0.000712 1.000000
vn 0.000000 0.000712 1.000000
vn 0.000000 0.000712 1.000000
vn 0.000000 0.000712 1.000000
vn -0.046092 0.059186 0.997182
vn -0.046092 0.059186 0.997182
vn -0.046092 0.059186 0.997182
vn -0.046092 0.059186 0.997182
vn 0.000000 -0.000715 -1.000000
vn 0.000000 -0.000715 -1.000000
vn 0.000000 -0.000715 -1.000000
vn 0.000000 -0.000715 -1.000000
vn -0.000000 -0.000715 -1.000000
vn -0.000000 -0.000715 -1.000000
vn -0.000000 -0.000715 -1.000000
vn -0.000000 -0.000715 -1.000000
vn -0.030724 -0.039692 -0.998739
vn -0.030724 -0.039692 -0.998739
vn -0.030724 -0.039692 -0.998739
vn -0.030724 -0.039692 -0.998739
vn 1.000000 0.000000 0.000000
vn 1.000000 0.000000 0.000000
vn 1.000000 0.000000 0.000000
vn 1.000000 0.000000 0.000000
vn 1.000000 -0.000000 0.000000
vn 1.000000 -0.000000 0.000000
vn 1.000000 -0.000000 0.000000
vn 1.000000 -0.000000 0.000000
vn 0.998679 -0.032844 0.039511
vn 0.998679 -0.032844 0.039511
vn 0.998679 -0.032844 0.039511
vn 0.998679 -0.032844 0.039511
vn -1.000000 -0.000000 -0.000001
vn -1.000000 -0.000000 -0.000001
vn -1.000000 -0.000000 -0.000001
vn -1.000000 -0.000000 -0.000001
vn -1.000000 -0.000001 0.000001
vn -1.000000 -0.000001 0.000001
vn -1.000000 -0.000001 0.000001
vn -1.000000 -0.000001 0.000001
vn -1.000000 0.000000 0.000001
vn -1.000000 0.000000 0.000001
vn -1.000000 0.000000 0.000001
vn -1.000000 0.000000 0.000001
vn 0.336607 0.850791 0.403548
vn 0.336607 0.850791 0.403548
vn 0.336607 0.850791 0.403548
vn 0.336607 0.850791 0.403548
vn -0.336607 0.850791 0.403548
vn -0.336607 0.850791 0.403548
vn -0.336607 0.850791 0.403548
vn -0.336607 0.850791 0.403548
vn 0.224855 0.914167 -0.337252
vn 0.224855 0.914167 -0.337252
vn 0.224855 0.914167 -0.337252
vn 0.224855 0.914167 -0.337252
vn 0.226773 0.912844 0.339543
vn 0.226773 0.912844 0.339543
vn 0.226773 0.912844 0.339543
vn 0.226773 0.912844 0.339543
vn 0.000000 0.999999 0.001691
vn 0.000000 0.999999 0.001691
vn 0.000000 0.999999 0.001691
vn 0.000000 0.999999 0.001691
vn -0.000000 0.999999 0.001691
vn -0.000000 0.999999 0.001691
vn -0.000000 0.999999 0.001691
vn -0.000000 0.999999 0.001691
vn 0.000000 0.999999 0.001690
vn 0.000000 0.999999 0.001690
vn 0.000000 0.999999 0.001690
vn 0.000000 0.999999 0.001690
vn -0.667845 0.000530 0.744300
vn -0.667845 0.000530 0.744300
vn -0.667845 0.000530 0.744300
vn -0.667845 0.000530 0.744300
vn -0.667843 0.000530 0.744302
vn -0.667843 0.000530 0.744302
vn -0.667843 0.000530 0.744302
vn -0.667843 0.000530 0.744302
vn -0.667842 0.000531 0.744302
vn -0.667842 0.000531 0.744302
vn -0.667842 0.000531 0.744302
vn -0.667842 0.000531 0.744302
vn 0.667835 0.000531 0.744309
vn 0.667835 0.000531 0.744310
vn 0.667835 0.000531 0.744310
vn 0.667835 0.000531 0.744310
vn 0.667844 0.000531 0.744301
vn 0.667844 0.000531 0.744301
vn 0.667844 0.000531 0.744301
vn 0.667844 0.000531 0.744301
vn 0.667836 0.000531 0.744308
vn 0.667836 0.000531 0.744308
vn 0.667836 0.000531 0.744308
vn 0.667836 0.000531 0.744308
vn 0.258292 -0.914943 -0.310103
vn 0.258292 -0.914943 -0.310103
vn 0.258292 -0.914943 -0.310103
vn 0.258292 -0.914943 -0.310103
vn -0.258292 -0.914943 -0.310103
vn -0.258292 -0.914943 -0.310103
vn -0.258292 -0.914943 -0.310103
vn -0.258292 -0.914943 -0.310103
vn 0.000000 -0.999999 -0.001691
vn 0.000000 -0.999999 -0.001691
vn 0.000000 -0.999999 -0.001691
vn 0.000000 -0.999999 -0.001691
vn -0.000000 -0.999999 -0.001690
vn -0.000000 -0.999999 -0.001690
vn -0.000000 -0.999999 -0.001690
vn -0.000000 -0.999999 -0.001690
vn 0.000000 -0.999999 -0.001691
vn 0.000000 -0.999999 -0.001691
vn 0.000000 -0.999999 -0.001691
vn 0.000000 -0.999999 -0.001691
vn -0.000000 -0.999999 -0.001691
vn -0.000000 -0.999999 -0.001691
vn -0.000000 -0.999999 -0.001691
vn -0.000000 -0.999999 -0.001691
vn 0.000000 -0.999999 -0.001690
vn 0.000000 -0.999999 -0.001690
vn 0.000000 -0.999999 -0.001690
vn 0.000000 -0.999999 -0.001690
vn -0.667840 -0.000532 -0.744305
vn -0.667840 -0.000532 -0.744305
vn -0.667840 -0.000532 -0.744305
vn -0.667840 -0.000532 -0.744305
vn -0.667835 -0.000531 -0.744309
vn -0.667835 -0.000531 -0.744309
vn -0.667835 -0.000531 -0.744309
vn -0.667835 -0.000531 -0.744309
vn -0.667830 -0.000531 -0.744313
vn -0.667830 -0.000531 -0.744313
vn -0.667830 -0.000531 -0.744313
vn -0.667830 -0.000531 -0.744313
vn 0.524033 -0.017518 -0.851518
vn 0.524033 -0.017518 -0.851518
vn 0.524033 -0.017518 -0.851518
vn 0.524033 -0.017518 -0.851518
vn 0.667828 -0.000531 -0.744316
vn 0.667828 -0.000531 -0.744316
vn 0.667828 -0.000531 -0.744316
vn 0.667828 -0.000531 -0.744316
vn 0.667832 -0.000530 -0.744312
vn 0.667832 -0.000530 -0.744312
vn 0.667832 -0.000530 -0.744312
vn 0.667832 -0.000530 -0.744312
s off
g polySurface274 polySurface267
usemtl Piso:lambert4SG initialShadingGroup
f 21/1/1 4/2/2 18/3/3 17/4/4
f 26/5/5 12/6/6 23/7/7 22/8/8
f 31/9/9 7/10/10 28/11/11 27/12/12
f 36/13/13 9/14/14 33/15/15 32/16/16
f 36/13/17 3/17/18 38/18/19 37/19/20
f 35/20/21 1/21/22 43/22/23 42/23/24
f 20/24/25 6/25/26 45/26/27 44/27/28
f 34/28/29 11/29/30 47/30/31 46/31/32
f 33/15/33 9/14/34 41/32/35 49/33/36
f 25/34/37 14/35/38 40/36/39 50/37/40
f 18/38/41 2/39/42 19/40/43 17/41/44
f 19/40/45 6/25/46 20/24/47 17/41/48
f 20/42/49 8/43/50 21/1/51 17/4/52
f 23/44/53 10/45/54 24/46/55 22/47/56
f 24/46/57 14/35/58 25/34/59 22/47/60
f 25/48/61 16/49/62 26/5/63 22/8/64
f 28/50/65 5/51/66 29/52/67 27/53/68
f 29/52/69 15/54/70 30/55/71 27/53/72
f 30/56/73 13/57/74 31/9/75 27/12/76
f 33/58/77 11/29/78 34/28/79 32/59/80
f 34/28/81 1/21/82 35/20/83 32/59/84
f 35/60/85 3/17/86 36/13/87 32/16/88
f 38/18/89 4/2/90 21/1/91 37/19/92
f 21/1/93 8/43/94 39/61/95 37/19/96
f 39/61/97 7/10/98 31/9/99 37/19/100
f 31/9/101 13/57/102 40/36/103 37/19/104
f 40/36/105 14/35/106 24/46/107 37/19/108
f 24/46/109 10/45/110 41/32/111 37/19/112
f 41/32/113 9/14/114 36/13/115 37/19/116
f 43/22/117 2/39/118 18/38/119 42/23/120
f 18/3/121 4/2/122 38/18/123 42/62/124
f 38/18/125 3/17/126 35/60/127 42/62/128
f 45/26/129 5/51/130 28/50/131 44/27/132
f 28/11/133 7/10/134 39/61/135 44/63/136
f 39/61/137 8/43/138 20/42/139 44/63/140
f 47/30/141 12/6/142 26/5/143 46/31/144
f 26/5/145 16/49/146 48/64/147 46/31/148
f 48/64/149 15/54/150 29/52/151 46/31/152
f 29/52/153 5/51/154 45/26/155 46/31/156
f 45/26/157 6/25/158 19/40/159 46/31/160
f 19/40/161 2/39/162 43/22/163 46/31/164
f 43/22/165 1/21/166 34/28/167 46/31/168
f 41/32/169 10/45/170 23/44/171 49/33/172
f 23/7/173 12/6/174 47/30/175 49/65/176
f 47/30/177 11/29/178 33/58/179 49/65/180
f 40/36/181 13/57/182 30/56/183 50/37/184
f 30/55/185 15/54/186 48/64/187 50/66/188
f 48/64/189 16/49/190 25/48/191 50/66/192
