# This file uses centimeters as units for non-parametric coordinates.

mtllib bisagra2.mtl
g default
v 19.760653 1.132278 2.899435
v 19.760653 1.094441 2.899435
v 19.760653 1.075522 2.932202
v 19.760653 1.094441 2.964970
v 19.760653 1.132278 2.964970
v 19.760653 1.151196 2.932202
v 19.470854 1.132278 2.899435
v 19.470854 1.094441 2.899435
v 19.470854 1.075522 2.932202
v 19.470854 1.094441 2.964970
v 19.470854 1.132278 2.964970
v 19.470854 1.151196 2.932202
vt 0.804787 0.097617
vt 0.798724 0.102383
vt 0.762219 0.055949
vt 0.768281 0.051183
vt 0.792662 0.107149
vt 0.756156 0.060715
vt 0.786599 0.111915
vt 0.750094 0.065481
vt 0.780537 0.116682
vt 0.744031 0.070248
vt 0.774474 0.121448
vt 0.737969 0.075014
vt 0.768412 0.126214
vt 0.731907 0.079780
vt 0.800917 0.117650
vt 0.794855 0.122416
vt 0.787696 0.119549
vt 0.799821 0.110016
vt 0.747901 0.050215
vt 0.755060 0.053082
vt 0.742935 0.062614
vt 0.741839 0.054981
vn 0.000000 0.000000 -1.000000
vn 0.000000 0.000000 -1.000000
vn 0.000000 0.000000 -1.000000
vn 0.000000 0.000000 -1.000000
vn 0.000000 -0.866022 -0.500006
vn 0.000000 -0.866022 -0.500006
vn 0.000000 -0.866022 -0.500006
vn 0.000000 -0.866022 -0.500006
vn 0.000000 -0.866022 0.500006
vn 0.000000 -0.866022 0.500006
vn 0.000000 -0.866022 0.500006
vn 0.000000 -0.866022 0.500006
vn 0.000000 0.000000 1.000000
vn 0.000000 0.000000 1.000000
vn 0.000000 0.000000 1.000000
vn 0.000000 0.000000 1.000000
vn 0.000000 0.866024 0.500002
vn 0.000000 0.866024 0.500002
vn 0.000000 0.866024 0.500002
vn 0.000000 0.866024 0.500002
vn 0.000000 0.866024 -0.500002
vn 0.000000 0.866024 -0.500002
vn 0.000000 0.866024 -0.500002
vn 0.000000 0.866024 -0.500002
vn 1.000000 0.000000 0.000000
vn 1.000000 0.000000 0.000000
vn 1.000000 0.000000 0.000000
vn 1.000000 0.000000 0.000000
vn 1.000000 0.000000 0.000000
vn 1.000000 0.000000 0.000000
vn -1.000000 0.000000 0.000000
vn -1.000000 0.000000 0.000000
vn -1.000000 0.000000 0.000000
vn -1.000000 0.000000 0.000000
vn -1.000000 0.000000 0.000000
vn -1.000000 0.000000 0.000000
s off
g polySurface264 polySurface213
usemtl TUTO:lambert1SG
f 1/1/1 2/2/2 8/3/3 7/4/4
f 2/2/5 3/5/6 9/6/7 8/3/8
f 3/5/9 4/7/10 10/8/11 9/6/12
f 4/7/13 5/9/14 11/10/15 10/8/16
f 5/9/17 6/11/18 12/12/19 11/10/20
f 6/11/21 1/13/22 7/14/23 12/12/24
f 1/15/25 6/16/26 5/17/27 4/7/28 3/5/29 2/18/30
f 7/19/31 8/20/32 9/6/33 10/8/34 11/21/35 12/22/36
