# This file uses centimeters as units for non-parametric coordinates.

mtllib bisagra1.mtl
g default
v 20.588946 1.132278 2.899435
v 20.588946 1.094441 2.899435
v 20.299147 1.094441 2.899435
v 20.299147 1.132278 2.899435
v 20.588946 1.075522 2.932202
v 20.299147 1.075522 2.932202
v 20.588946 1.094441 2.964970
v 20.299147 1.094441 2.964970
v 20.588946 1.132278 2.964970
v 20.299147 1.132278 2.964970
v 20.588946 1.151196 2.932202
v 20.299147 1.151196 2.932202
vt 0.729162 0.096718
vt 0.723100 0.101484
vt 0.686594 0.055050
vt 0.692657 0.050284
vt 0.717037 0.106250
vt 0.680532 0.059816
vt 0.710975 0.111016
vt 0.674469 0.064582
vt 0.704912 0.115782
vt 0.668407 0.069348
vt 0.698850 0.120549
vt 0.662344 0.074115
vt 0.692787 0.125315
vt 0.656282 0.078881
vt 0.725292 0.116751
vt 0.719230 0.121517
vt 0.712071 0.118650
vt 0.724196 0.109117
vt 0.672276 0.049315
vt 0.679435 0.052183
vt 0.667310 0.061715
vt 0.666214 0.054082
vn 0.000000 0.000000 -1.000000
vn 0.000000 0.000000 -1.000000
vn 0.000000 0.000000 -1.000000
vn 0.000000 0.000000 -1.000000
vn 0.000000 -0.866022 -0.500006
vn 0.000000 -0.866022 -0.500006
vn 0.000000 -0.866022 -0.500006
vn 0.000000 -0.866022 -0.500006
vn 0.000000 -0.866022 0.500006
vn 0.000000 -0.866022 0.500006
vn 0.000000 -0.866022 0.500006
vn 0.000000 -0.866022 0.500006
vn 0.000000 0.000000 1.000000
vn 0.000000 0.000000 1.000000
vn 0.000000 0.000000 1.000000
vn 0.000000 0.000000 1.000000
vn 0.000000 0.866024 0.500002
vn 0.000000 0.866024 0.500002
vn 0.000000 0.866024 0.500002
vn 0.000000 0.866024 0.500002
vn 0.000000 0.866024 -0.500002
vn 0.000000 0.866024 -0.500002
vn 0.000000 0.866024 -0.500002
vn 0.000000 0.866024 -0.500002
vn 1.000000 0.000000 0.000000
vn 1.000000 0.000000 0.000000
vn 1.000000 0.000000 0.000000
vn 1.000000 0.000000 0.000000
vn 1.000000 0.000000 0.000000
vn 1.000000 0.000000 0.000000
vn -1.000000 0.000000 0.000000
vn -1.000000 0.000000 0.000000
vn -1.000000 0.000000 0.000000
vn -1.000000 0.000000 0.000000
vn -1.000000 0.000000 0.000000
vn -1.000000 0.000000 0.000000
s off
g polySurface263 polySurface213
usemtl TUTO:lambert1SG
f 1/1/1 2/2/2 3/3/3 4/4/4
f 2/2/5 5/5/6 6/6/7 3/3/8
f 5/5/9 7/7/10 8/8/11 6/6/12
f 7/7/13 9/9/14 10/10/15 8/8/16
f 9/9/17 11/11/18 12/12/19 10/10/20
f 11/11/21 1/13/22 4/14/23 12/12/24
f 1/15/25 11/16/26 9/17/27 7/7/28 5/5/29 2/18/30
f 4/19/31 3/20/32 6/6/33 8/8/34 10/21/35 12/22/36
