# This file uses centimeters as units for non-parametric coordinates.

mtllib paredroca2.mtl
g default
v 8.354602 4.880504 17.002907
v 8.440833 4.963593 17.002872
v 8.199274 4.916319 17.053568
v 8.220722 5.001644 17.012954
v 8.552071 5.039209 15.768155
v 8.551850 4.993241 15.728449
v 8.313555 4.993241 15.729777
v 8.270275 5.039209 15.769725
v 8.553599 4.114271 17.027460
v 8.553820 4.160238 17.067164
v 8.272023 4.160238 17.068734
v 8.271802 4.114271 17.029030
v 8.551850 4.160238 15.728449
v 8.552071 4.114271 15.768155
v 8.270275 4.114271 15.769725
v 8.313555 4.160238 15.729777
v 8.415206 5.039208 16.492725
v 8.334160 4.981449 17.003528
v 8.556105 5.039209 16.491939
v 8.411173 5.039209 15.768940
v 8.274309 5.039209 16.493510
v 8.415206 4.114270 16.492725
v 8.412700 4.114271 17.028245
v 8.274309 4.114271 16.493510
v 8.411173 4.114271 15.768940
v 8.556105 4.114271 16.491939
v 8.454454 4.576740 15.728992
v 8.454454 4.160238 15.728992
v 8.313555 4.576740 15.729777
v 8.454454 4.993241 15.728992
v 8.551850 4.576740 15.728449
v 8.412921 4.576740 17.067949
v 8.412921 4.160238 17.067949
v 8.553820 4.576740 17.067164
v 8.249278 4.868809 17.020868
v 8.272023 4.576740 17.068734
v 8.317810 4.576740 16.493267
v 8.244906 4.964371 17.026451
v 8.270164 5.016226 15.749872
v 8.313666 4.137255 15.749630
v 8.271913 4.137255 17.048883
v 8.556105 4.576740 16.491939
v 8.553709 4.137255 17.047312
v 8.551961 4.137255 15.748302
v 8.551961 5.016226 15.748302
v 8.457476 4.878139 16.983306
v 8.256766 4.901466 16.998989
v 8.411062 5.016226 15.749087
v 8.412811 4.137255 17.048097
v 8.454564 4.137255 15.748845
vt 0.105889 0.579389
vt 0.182435 0.573555
vt 0.183987 0.577776
vt 0.105947 0.585005
vt 0.105116 0.763358
vt 0.026676 0.764331
vt 0.024642 0.759378
vt 0.105192 0.757696
vt 0.191362 0.810791
vt 0.188174 0.771755
vt 0.192831 0.769387
vt 0.197098 0.810875
vt 0.193941 0.534041
vt 0.190013 0.494782
vt 0.194624 0.492304
vt 0.199606 0.533835
vt 0.186904 0.565567
vt 0.184522 0.570467
vt 0.106551 0.533146
vt 0.018929 0.807147
vt 0.022489 0.768466
vt 0.024542 0.766374
vt 0.104358 0.809304
vt 0.016819 0.837804
vt 0.021620 0.838019
vt 0.026382 0.837019
vt 0.018604 0.841744
vt 0.184676 0.858955
vt 0.182744 0.853965
vt 0.184915 0.851904
vt 0.188552 0.855968
vt 0.020832 0.762378
vt 0.186135 0.769587
vt 0.189909 0.765641
vt 0.024212 0.849416
vt 0.025797 0.845296
vt 0.103656 0.854172
vt 0.103370 0.859788
vt 0.025368 0.581312
vt 0.027470 0.576363
vt 0.187784 0.485587
vt 0.185716 0.490545
vt 0.106304 0.487262
vt 0.106282 0.481588
vt 0.026750 0.490320
vt 0.024610 0.485398
vt 0.186165 0.762557
vt 0.184020 0.767467
vt 0.017960 0.492254
vt 0.022641 0.494615
vt 0.019176 0.533556
vt 0.013425 0.533610
vt 0.023172 0.572232
vt 0.018565 0.574730
vt 0.191593 0.852293
vt 0.187009 0.849794
vt 0.017855 0.766068
vt 0.013425 0.807369
vt 0.192269 0.563733
vt 0.025284 0.574323
vt 0.024656 0.492445
vt 0.187902 0.492638
vt 0.191936 0.569126
vt 0.021589 0.578370
vt 0.191596 0.488597
vt 0.020853 0.488510
vn 0.082836 0.991274 0.102543
vn 0.082836 0.991274 0.102543
vn 0.082836 0.991274 0.102543
vn 0.082836 0.991274 0.102543
vn 0.000000 -1.000000 0.000001
vn 0.000000 -1.000000 0.000001
vn 0.000000 -1.000000 0.000001
vn 0.000000 -1.000000 0.000001
vn -0.005573 0.000000 -0.999985
vn -0.005573 0.000000 -0.999985
vn -0.005573 0.000000 -0.999985
vn -0.005573 0.000000 -0.999985
vn 0.005573 0.000000 0.999985
vn 0.005573 0.000000 0.999985
vn 0.005573 0.000000 0.999985
vn 0.005573 0.000000 0.999985
vn -0.983997 -0.085867 -0.156133
vn -0.983997 -0.085867 -0.156133
vn -0.983997 -0.085867 -0.156133
vn -0.983997 -0.085867 -0.156133
vn 0.999993 -0.000418 0.003670
vn 0.999993 -0.000418 0.003670
vn 0.999993 -0.000418 0.003670
vn 0.999993 -0.000418 0.003670
vn 0.107736 0.644300 0.757146
vn 0.107736 0.644300 0.757146
vn 0.107736 0.644300 0.757146
vn 0.107736 0.644300 0.757146
vn -0.004218 0.653685 -0.756755
vn -0.004218 0.653685 -0.756755
vn -0.004218 0.653685 -0.756755
vn -0.004218 0.653685 -0.756755
vn 0.004218 -0.653691 0.756750
vn 0.004218 -0.653691 0.756750
vn 0.004218 -0.653691 0.756750
vn 0.004218 -0.653691 0.756750
vn -0.004218 -0.653690 -0.756751
vn -0.004218 -0.653690 -0.756751
vn -0.004218 -0.653690 -0.756751
vn -0.004218 -0.653690 -0.756751
vn 0.072020 0.987142 0.142700
vn 0.072020 0.987142 0.142700
vn 0.072020 0.987142 0.142700
vn 0.072020 0.987142 0.142700
vn 0.000000 1.000000 0.000001
vn 0.000000 1.000000 0.000001
vn 0.000000 1.000000 0.000001
vn 0.000000 1.000000 0.000001
vn 0.000000 1.000000 0.000001
vn 0.000000 1.000000 0.000001
vn 0.000000 1.000000 0.000001
vn 0.000000 1.000000 0.000001
vn 0.000000 -1.000000 0.000001
vn 0.000000 -1.000000 0.000001
vn 0.000000 -1.000000 0.000001
vn 0.000000 -1.000000 0.000001
vn -0.000000 -1.000000 -0.000001
vn -0.000000 -1.000000 -0.000001
vn -0.000000 -1.000000 -0.000001
vn -0.000000 -1.000000 -0.000001
vn -0.000000 -1.000000 -0.000001
vn -0.000000 -1.000000 -0.000001
vn -0.000000 -1.000000 -0.000001
vn -0.000000 -1.000000 -0.000001
vn -0.005573 0.000000 -0.999985
vn -0.005573 0.000000 -0.999985
vn -0.005573 0.000000 -0.999985
vn -0.005573 0.000000 -0.999985
vn -0.005573 0.000000 -0.999985
vn -0.005573 0.000000 -0.999985
vn -0.005573 0.000000 -0.999985
vn -0.005573 0.000000 -0.999985
vn -0.005573 0.000000 -0.999985
vn -0.005573 0.000000 -0.999985
vn -0.005573 0.000000 -0.999985
vn -0.005573 0.000000 -0.999985
vn 0.005573 0.000000 0.999985
vn 0.005573 0.000000 0.999985
vn 0.005573 0.000000 0.999985
vn 0.005573 0.000000 0.999985
vn 0.063621 0.220616 0.973284
vn 0.063621 0.220616 0.973284
vn 0.063621 0.220616 0.973284
vn 0.063621 0.220616 0.973284
vn 0.212011 0.174110 0.961633
vn 0.212011 0.174110 0.961633
vn 0.212011 0.174110 0.961633
vn 0.212011 0.174110 0.961633
vn -0.988005 -0.135769 -0.073574
vn -0.988005 -0.135769 -0.073574
vn -0.988005 -0.135769 -0.073574
vn -0.988005 -0.135769 -0.073574
vn -0.995964 -0.089367 0.008313
vn -0.995964 -0.089367 0.008313
vn -0.995964 -0.089367 0.008313
vn -0.995964 -0.089367 0.008313
vn -0.994276 -0.096025 -0.046842
vn -0.994276 -0.096025 -0.046842
vn -0.994276 -0.096025 -0.046842
vn -0.994276 -0.096025 -0.046842
vn -0.999985 0.000000 0.005573
vn -0.999985 0.000000 0.005573
vn -0.999985 0.000000 0.005573
vn -0.999985 0.000000 0.005573
vn -0.983620 0.174109 -0.046663
vn -0.983620 0.174109 -0.046663
vn -0.983620 0.174109 -0.046663
vn -0.983620 0.174109 -0.046663
vn -0.995928 0.089798 -0.008013
vn -0.995928 0.089798 -0.008013
vn -0.995928 0.089798 -0.008013
vn -0.995928 0.089798 -0.008013
vn -0.997052 0.003713 -0.076643
vn -0.997052 0.003713 -0.076643
vn -0.997052 0.003713 -0.076643
vn -0.997052 0.003713 -0.076643
vn 0.999991 -0.000405 0.004331
vn 0.999991 -0.000405 0.004331
vn 0.999991 -0.000405 0.004331
vn 0.999991 -0.000405 0.004331
vn 0.999985 0.000000 -0.005573
vn 0.999985 0.000000 -0.005573
vn 0.999985 0.000000 -0.005573
vn 0.999985 0.000000 -0.005573
vn 0.999985 0.000000 -0.005573
vn 0.999985 0.000000 -0.005573
vn 0.999985 0.000000 -0.005573
vn 0.999985 0.000000 -0.005573
vn 0.999985 0.000000 -0.005573
vn 0.999985 0.000000 -0.005573
vn 0.999985 0.000000 -0.005573
vn 0.999985 0.000000 -0.005573
vn 0.999985 0.000000 -0.005573
vn 0.999985 0.000000 -0.005573
vn 0.999985 0.000000 -0.005573
vn 0.999985 0.000000 -0.005573
vn 0.978751 0.022451 0.203818
vn 0.978751 0.022451 0.203818
vn 0.978751 0.022451 0.203818
vn 0.978751 0.022451 0.203819
vn 0.925893 0.341131 0.162333
vn 0.925893 0.341131 0.162333
vn 0.925893 0.341131 0.162333
vn 0.925893 0.341131 0.162333
vn 0.031654 -0.155487 0.987331
vn 0.031654 -0.155487 0.987331
vn 0.031654 -0.155487 0.987331
vn 0.031654 -0.155487 0.987331
vn 0.256143 -0.042481 0.965705
vn 0.256143 -0.042481 0.965705
vn 0.256143 -0.042481 0.965705
vn 0.256143 -0.042480 0.965705
vn 0.686951 -0.011018 0.726620
vn 0.686951 -0.011018 0.726620
vn 0.686951 -0.011018 0.726620
vn 0.686951 -0.011018 0.726620
vn -0.004218 0.653690 -0.756751
vn -0.004218 0.653690 -0.756751
vn -0.004218 0.653689 -0.756751
vn -0.004218 0.653689 -0.756751
vn -0.004218 0.653687 -0.756753
vn -0.004218 0.653687 -0.756753
vn -0.004218 0.653687 -0.756753
vn -0.004218 0.653687 -0.756753
vn -0.004218 0.653685 -0.756755
vn -0.004218 0.653685 -0.756755
vn -0.004218 0.653685 -0.756755
vn -0.004218 0.653685 -0.756755
vn 0.004218 -0.653679 0.756760
vn 0.004218 -0.653679 0.756760
vn 0.004218 -0.653679 0.756760
vn 0.004218 -0.653679 0.756760
vn 0.004218 -0.653679 0.756760
vn 0.004218 -0.653679 0.756760
vn 0.004218 -0.653679 0.756760
vn 0.004218 -0.653679 0.756760
vn 0.004218 -0.653691 0.756750
vn 0.004218 -0.653691 0.756750
vn 0.004218 -0.653691 0.756750
vn 0.004218 -0.653691 0.756750
vn -0.004218 -0.653684 -0.756756
vn -0.004218 -0.653684 -0.756756
vn -0.004218 -0.653684 -0.756756
vn -0.004218 -0.653684 -0.756756
vn -0.004218 -0.653682 -0.756758
vn -0.004218 -0.653682 -0.756758
vn -0.004218 -0.653682 -0.756758
vn -0.004218 -0.653682 -0.756758
vn -0.004218 -0.653697 -0.756745
vn -0.004218 -0.653697 -0.756745
vn -0.004218 -0.653697 -0.756745
vn -0.004218 -0.653697 -0.756745
s off
g polySurface250 polySurface242 group14
usemtl pared1:lambert5SG
f 21/1/1 4/2/2 18/3/3 17/4/4
f 26/5/5 9/6/6 23/7/7 22/8/8
f 31/9/9 13/10/10 28/11/11 27/12/12
f 36/13/13 11/14/14 33/15/15 32/16/16
f 36/13/17 3/17/18 38/18/19 37/19/20
f 34/20/21 10/21/22 43/22/23 42/23/24
f 35/24/25 1/25/26 46/26/27 47/27/28
f 20/28/29 5/29/30 45/30/31 48/31/32
f 23/7/33 9/6/34 43/22/35 49/32/36
f 28/11/37 13/10/38 44/33/39 50/34/40
f 18/35/41 2/36/42 19/37/43 17/38/44
f 19/37/45 5/29/46 20/28/47 17/38/48
f 20/39/49 8/40/50 21/1/51 17/4/52
f 23/41/53 12/42/54 24/43/55 22/44/56
f 24/43/57 15/45/58 25/46/59 22/44/60
f 25/47/61 14/48/62 26/5/63 22/8/64
f 28/49/65 16/50/66 29/51/67 27/52/68
f 29/51/69 7/53/70 30/54/71 27/52/72
f 30/55/73 6/56/74 31/9/75 27/12/76
f 33/57/77 10/21/78 34/20/79 32/58/80
f 34/20/81 1/25/82 35/24/83 32/58/84
f 35/59/85 3/17/86 36/13/87 32/16/88
f 38/18/89 4/2/90 21/1/91 37/19/92
f 21/1/93 8/40/94 39/60/95 37/19/96
f 39/60/97 7/53/98 29/51/99 37/19/100
f 29/51/101 16/50/102 40/61/103 37/19/104
f 40/61/105 15/45/106 24/43/107 37/19/108
f 24/43/109 12/42/110 41/62/111 37/19/112
f 41/62/113 11/14/114 36/13/115 37/19/116
f 43/22/117 9/6/118 26/5/119 42/23/120
f 26/5/121 14/48/122 44/33/123 42/23/124
f 44/33/125 13/10/126 31/9/127 42/23/128
f 31/9/129 6/56/130 45/30/131 42/23/132
f 45/30/133 5/29/134 19/37/135 42/23/136
f 19/37/137 2/36/138 46/26/139 42/23/140
f 46/26/141 1/25/142 34/20/143 42/23/144
f 46/26/145 2/36/146 18/35/147 47/27/148
f 18/3/149 4/2/150 38/18/151 47/63/152
f 38/18/153 3/17/154 35/59/155 47/63/156
f 45/30/157 6/56/158 30/55/159 48/31/160
f 30/54/161 7/53/162 39/60/163 48/64/164
f 39/60/165 8/40/166 20/39/167 48/64/168
f 43/22/169 10/21/170 33/57/171 49/32/172
f 33/15/173 11/14/174 41/62/175 49/65/176
f 41/62/177 12/42/178 23/41/179 49/65/180
f 44/33/181 14/48/182 25/47/183 50/34/184
f 25/46/185 15/45/186 40/61/187 50/66/188
f 40/61/189 16/50/190 28/49/191 50/66/192
