# This file uses centimeters as units for non-parametric coordinates.

mtllib paredroca4.mtl
g default
v 8.142015 4.002481 17.889573
v 8.152640 4.048448 17.852486
v 7.921979 4.002481 17.756131
v 7.932604 4.048448 17.719043
v 8.546800 4.039257 16.331967
v 8.549500 4.002481 16.292028
v 8.267703 4.002481 16.293599
v 8.265369 4.040407 16.333508
v 8.152640 3.123509 17.852486
v 8.142015 3.169477 17.889573
v 7.921979 3.169477 17.756131
v 7.932604 3.123509 17.719043
v 8.549500 3.169477 16.292028
v 8.548281 3.123509 16.331740
v 8.266163 3.123509 16.333312
v 8.267703 3.169477 16.293599
v 8.209885 4.048448 17.126145
v 8.064374 4.048448 17.785644
v 8.341654 4.048448 17.192744
v 8.404789 4.035757 16.332841
v 8.078117 4.048448 17.059544
v 8.209885 3.123509 17.126145
v 8.020871 3.123509 17.785886
v 8.078117 3.123509 17.059544
v 8.407223 3.123509 16.332525
v 8.341654 3.123509 17.192744
v 8.408601 3.585979 16.292813
v 8.408601 3.169477 16.292813
v 8.267703 3.585979 16.293599
v 8.408601 4.002481 16.292813
v 8.549500 3.585979 16.292028
v 7.991214 3.585979 17.785993
v 8.053748 3.169477 17.822731
v 8.069673 3.585979 17.847073
v 8.053748 4.002481 17.822731
v 7.869273 3.585979 17.725167
v 8.121619 3.585979 17.059301
v 7.927292 4.025464 17.737587
v 8.267814 4.025464 16.313451
v 8.267814 3.146494 16.313451
v 7.927292 3.146494 17.737587
v 8.341654 3.585979 17.192744
v 8.147328 3.146494 17.871030
v 8.549611 3.146494 16.311881
v 8.549611 4.025464 16.311881
v 8.147328 4.025464 17.871030
v 8.059061 4.025465 17.804187
v 8.408279 4.024101 16.312700
v 8.059061 3.146494 17.804187
v 8.408712 3.146494 16.312666
vt 0.761011 0.979925
vt 0.838300 0.977688
vt 0.840346 0.982646
vt 0.760935 0.985595
vt 0.851649 0.759729
vt 0.774828 0.763135
vt 0.772667 0.758229
vt 0.851594 0.754056
vt 0.937184 0.805212
vt 0.933129 0.766253
vt 0.937746 0.763787
vt 0.942943 0.805238
vt 0.845661 0.934520
vt 0.843082 0.895487
vt 0.847783 0.892974
vt 0.850949 0.934566
vt 0.842532 0.973495
vt 0.840453 0.975616
vt 0.761200 0.933931
vt 0.766784 0.806400
vt 0.770704 0.767403
vt 0.772722 0.765243
vt 0.851879 0.805667
vt 0.766656 0.847668
vt 0.771373 0.845304
vt 0.773420 0.847432
vt 0.769655 0.851415
vt 0.931408 0.852573
vt 0.929283 0.847559
vt 0.931291 0.846213
vt 0.934614 0.850241
vt 0.768883 0.761332
vt 0.931052 0.764125
vt 0.934743 0.760106
vt 0.773489 0.854455
vt 0.775551 0.849507
vt 0.852282 0.851615
vt 0.852361 0.857286
vt 0.681764 0.980765
vt 0.684034 0.975923
vt 0.841010 0.886318
vt 0.838887 0.891243
vt 0.761533 0.887949
vt 0.761563 0.882277
vt 0.684358 0.890466
vt 0.682153 0.885554
vt 0.930949 0.757065
vt 0.928912 0.762037
vt 0.675478 0.892254
vt 0.680104 0.894654
vt 0.676161 0.933551
vt 0.670413 0.933566
vt 0.679895 0.972393
vt 0.675373 0.974931
vt 0.937818 0.846749
vt 0.933355 0.844083
vt 0.765939 0.765135
vt 0.761650 0.806457
vt 0.847196 0.976080
vt 0.681948 0.974530
vt 0.682154 0.892510
vt 0.841023 0.893340
vt 0.844163 0.979684
vt 0.678535 0.978388
vt 0.844789 0.889326
vt 0.678492 0.888670
vn -0.000001 1.000000 0.000000
vn -0.000001 1.000000 0.000000
vn -0.000001 1.000000 0.000000
vn -0.000001 1.000000 0.000000
vn -0.000002 -1.000000 0.000000
vn -0.000002 -1.000000 0.000000
vn -0.000002 -1.000000 0.000000
vn -0.000002 -1.000000 0.000000
vn -0.005573 0.000000 -0.999985
vn -0.005573 0.000000 -0.999985
vn -0.005573 0.000000 -0.999985
vn -0.005573 0.000000 -0.999985
vn -0.448797 0.010535 0.893572
vn -0.448797 0.010535 0.893572
vn -0.448797 0.010535 0.893572
vn -0.448797 0.010535 0.893572
vn -0.929093 0.132415 -0.345329
vn -0.929093 0.132415 -0.345329
vn -0.929093 0.132415 -0.345329
vn -0.929093 0.132415 -0.345329
vn 0.911431 0.181180 0.369414
vn 0.911431 0.181180 0.369414
vn 0.911431 0.181180 0.369414
vn 0.911431 0.181180 0.369414
vn -0.475399 0.616368 0.627763
vn -0.475399 0.616368 0.627763
vn -0.475399 0.616368 0.627763
vn -0.475399 0.616368 0.627763
vn -0.017683 0.843702 -0.536521
vn -0.017683 0.843702 -0.536521
vn -0.017683 0.843702 -0.536521
vn -0.017683 0.843702 -0.536521
vn -0.494665 -0.300000 0.815663
vn -0.494665 -0.300000 0.815663
vn -0.494665 -0.300000 0.815663
vn -0.494665 -0.300000 0.815663
vn -0.004218 -0.653673 -0.756765
vn -0.004218 -0.653673 -0.756765
vn -0.004218 -0.653673 -0.756765
vn -0.004218 -0.653673 -0.756765
vn 0.000000 1.000000 0.000000
vn 0.000000 1.000000 0.000000
vn 0.000000 1.000000 0.000000
vn 0.000000 1.000000 0.000000
vn -0.009069 0.999840 -0.015423
vn -0.009069 0.999840 -0.015423
vn -0.009069 0.999840 -0.015423
vn -0.009069 0.999840 -0.015423
vn 0.019281 0.999775 -0.008792
vn 0.019281 0.999775 -0.008792
vn 0.019281 0.999775 -0.008792
vn 0.019281 0.999775 -0.008792
vn 0.000006 -1.000000 -0.000000
vn 0.000006 -1.000000 -0.000000
vn 0.000006 -1.000000 -0.000000
vn 0.000006 -1.000000 -0.000000
vn -0.000002 -1.000000 0.000000
vn -0.000002 -1.000000 0.000000
vn -0.000002 -1.000000 0.000000
vn -0.000002 -1.000000 0.000000
vn 0.000004 -1.000000 -0.000000
vn 0.000004 -1.000000 -0.000000
vn 0.000004 -1.000000 -0.000000
vn 0.000004 -1.000000 -0.000000
vn -0.005573 0.000000 -0.999985
vn -0.005573 0.000000 -0.999985
vn -0.005573 0.000000 -0.999985
vn -0.005573 0.000000 -0.999985
vn -0.005573 0.000000 -0.999985
vn -0.005573 0.000000 -0.999985
vn -0.005573 0.000000 -0.999985
vn -0.005573 0.000000 -0.999985
vn -0.005573 0.000000 -0.999985
vn -0.005573 0.000000 -0.999985
vn -0.005573 0.000000 -0.999985
vn -0.005573 0.000000 -0.999985
vn -0.608569 -0.023088 0.793165
vn -0.608569 -0.023088 0.793165
vn -0.608569 -0.023088 0.793165
vn -0.608569 -0.023088 0.793165
vn -0.608569 0.023088 0.793165
vn -0.608569 0.023088 0.793165
vn -0.608569 0.023088 0.793165
vn -0.608569 0.023088 0.793165
vn -0.448798 -0.010535 0.893571
vn -0.448798 -0.010535 0.893571
vn -0.448798 -0.010535 0.893571
vn -0.448798 -0.010535 0.893571
vn -0.972019 -0.084726 -0.219089
vn -0.972019 -0.084726 -0.219089
vn -0.972019 -0.084726 -0.219089
vn -0.972019 -0.084726 -0.219089
vn -0.966452 -0.082673 -0.243177
vn -0.966452 -0.082673 -0.243177
vn -0.966452 -0.082673 -0.243177
vn -0.966452 -0.082673 -0.243177
vn -0.983090 0.008510 -0.182928
vn -0.983090 0.008510 -0.182928
vn -0.983090 0.008510 -0.182928
vn -0.983090 0.008510 -0.182928
vn -0.983090 -0.008510 -0.182928
vn -0.983090 -0.008510 -0.182928
vn -0.983090 -0.008510 -0.182928
vn -0.983090 -0.008510 -0.182928
vn -0.966656 0.079834 -0.243317
vn -0.966656 0.079834 -0.243317
vn -0.966656 0.079834 -0.243317
vn -0.966656 0.079834 -0.243317
vn -0.972019 0.084726 -0.219089
vn -0.972019 0.084726 -0.219089
vn -0.972019 0.084726 -0.219089
vn -0.972019 0.084726 -0.219089
vn -0.929093 -0.132414 -0.345329
vn -0.929093 -0.132414 -0.345329
vn -0.929093 -0.132414 -0.345329
vn -0.929093 -0.132414 -0.345329
vn 0.961325 0.000001 0.275418
vn 0.961325 0.000001 0.275418
vn 0.961325 0.000001 0.275418
vn 0.961325 0.000001 0.275418
vn 0.973184 0.006744 0.229928
vn 0.973184 0.006744 0.229928
vn 0.973184 0.006744 0.229928
vn 0.973184 0.006744 0.229928
vn 0.975366 0.010199 0.220356
vn 0.975366 0.010199 0.220356
vn 0.975366 0.010199 0.220356
vn 0.975366 0.010199 0.220356
vn 0.975367 -0.010199 0.220355
vn 0.975367 -0.010199 0.220355
vn 0.975367 -0.010199 0.220355
vn 0.975367 -0.010199 0.220355
vn 0.973215 -0.003953 0.229863
vn 0.973215 -0.003953 0.229863
vn 0.973215 -0.003953 0.229863
vn 0.973215 -0.003953 0.229863
vn 0.961325 -0.000001 0.275417
vn 0.961325 -0.000001 0.275417
vn 0.961325 -0.000001 0.275417
vn 0.961325 -0.000001 0.275417
vn 0.911431 -0.181181 0.369415
vn 0.911431 -0.181181 0.369415
vn 0.911431 -0.181181 0.369415
vn 0.911431 -0.181181 0.369415
vn -0.475382 0.616388 0.627756
vn -0.475382 0.616388 0.627756
vn -0.475382 0.616388 0.627756
vn -0.475382 0.616388 0.627756
vn -0.348065 0.636086 0.688655
vn -0.348065 0.636086 0.688655
vn -0.348065 0.636086 0.688655
vn -0.348065 0.636086 0.688655
vn -0.348072 0.636066 0.688670
vn -0.348072 0.636066 0.688670
vn -0.348072 0.636066 0.688670
vn -0.348071 0.636066 0.688670
vn -0.007460 0.665169 -0.746655
vn -0.007460 0.665169 -0.746655
vn -0.007460 0.665169 -0.746655
vn -0.007460 0.665169 -0.746655
vn -0.000852 0.665207 -0.746659
vn -0.000852 0.665207 -0.746658
vn -0.000852 0.665207 -0.746659
vn -0.000852 0.665207 -0.746658
vn 0.015153 0.834882 -0.550221
vn 0.015153 0.834882 -0.550221
vn 0.015153 0.834882 -0.550221
vn 0.015153 0.834882 -0.550221
vn -0.475378 -0.616383 0.627764
vn -0.475378 -0.616383 0.627764
vn -0.475378 -0.616383 0.627764
vn -0.475378 -0.616383 0.627764
vn -0.348077 -0.636074 0.688660
vn -0.348077 -0.636074 0.688660
vn -0.348077 -0.636074 0.688660
vn -0.348077 -0.636074 0.688660
vn -0.494656 -0.299989 0.815673
vn -0.494656 -0.299989 0.815673
vn -0.494656 -0.299989 0.815673
vn -0.494656 -0.299989 0.815673
vn -0.004215 -0.653660 -0.756777
vn -0.004215 -0.653660 -0.756777
vn -0.004215 -0.653660 -0.756777
vn -0.004215 -0.653660 -0.756777
vn -0.004218 -0.653651 -0.756784
vn -0.004218 -0.653651 -0.756784
vn -0.004218 -0.653651 -0.756784
vn -0.004218 -0.653651 -0.756784
vn -0.004218 -0.653673 -0.756765
vn -0.004218 -0.653673 -0.756765
vn -0.004218 -0.653673 -0.756765
vn -0.004218 -0.653673 -0.756765
s off
g polySurface248 polySurface242 group14
usemtl pared1:lambert5SG
f 21/1/1 4/2/2 18/3/3 17/4/4
f 26/5/5 9/6/6 23/7/7 22/8/8
f 31/9/9 13/10/10 28/11/11 27/12/12
f 36/13/13 11/14/14 33/15/15 32/16/16
f 36/13/17 3/17/18 38/18/19 37/19/20
f 34/20/21 10/21/22 43/22/23 42/23/24
f 35/24/25 1/25/26 46/26/27 47/27/28
f 20/28/29 5/29/30 45/30/31 48/31/32
f 23/7/33 9/6/34 43/22/35 49/32/36
f 28/11/37 13/10/38 44/33/39 50/34/40
f 18/35/41 2/36/42 19/37/43 17/38/44
f 19/37/45 5/29/46 20/28/47 17/38/48
f 20/39/49 8/40/50 21/1/51 17/4/52
f 23/41/53 12/42/54 24/43/55 22/44/56
f 24/43/57 15/45/58 25/46/59 22/44/60
f 25/47/61 14/48/62 26/5/63 22/8/64
f 28/49/65 16/50/66 29/51/67 27/52/68
f 29/51/69 7/53/70 30/54/71 27/52/72
f 30/55/73 6/56/74 31/9/75 27/12/76
f 33/57/77 10/21/78 34/20/79 32/58/80
f 34/20/81 1/25/82 35/24/83 32/58/84
f 35/59/85 3/17/86 36/13/87 32/16/88
f 38/18/89 4/2/90 21/1/91 37/19/92
f 21/1/93 8/40/94 39/60/95 37/19/96
f 39/60/97 7/53/98 29/51/99 37/19/100
f 29/51/101 16/50/102 40/61/103 37/19/104
f 40/61/105 15/45/106 24/43/107 37/19/108
f 24/43/109 12/42/110 41/62/111 37/19/112
f 41/62/113 11/14/114 36/13/115 37/19/116
f 43/22/117 9/6/118 26/5/119 42/23/120
f 26/5/121 14/48/122 44/33/123 42/23/124
f 44/33/125 13/10/126 31/9/127 42/23/128
f 31/9/129 6/56/130 45/30/131 42/23/132
f 45/30/133 5/29/134 19/37/135 42/23/136
f 19/37/137 2/36/138 46/26/139 42/23/140
f 46/26/141 1/25/142 34/20/143 42/23/144
f 46/26/145 2/36/146 18/35/147 47/27/148
f 18/3/149 4/2/150 38/18/151 47/63/152
f 38/18/153 3/17/154 35/59/155 47/63/156
f 45/30/157 6/56/158 30/55/159 48/31/160
f 30/54/161 7/53/162 39/60/163 48/64/164
f 39/60/165 8/40/166 20/39/167 48/64/168
f 43/22/169 10/21/170 33/57/171 49/32/172
f 33/15/173 11/14/174 41/62/175 49/65/176
f 41/62/177 12/42/178 23/41/179 49/65/180
f 44/33/181 14/48/182 25/47/183 50/34/184
f 25/46/185 15/45/186 40/61/187 50/66/188
f 40/61/189 16/50/190 28/49/191 50/66/192
