# This file uses centimeters as units for non-parametric coordinates.

mtllib paredroca11.mtl
g default
v 8.184941 0.150979 17.891343
v 8.184941 1.075917 17.891343
v 7.921403 1.075917 17.758142
v 7.921403 0.150979 17.758142
v 8.328719 1.075917 17.237894
v 8.339345 1.029950 17.200806
v 8.075807 1.029950 17.067607
v 8.065181 1.075917 17.104694
v 8.339345 0.196947 17.200806
v 8.328719 0.150979 17.237894
v 8.065181 0.150979 17.104694
v 8.075807 0.196947 17.067607
v 8.282317 0.613448 17.551455
v 8.278581 0.150979 17.564496
v 8.334032 0.173963 17.219350
v 8.271387 0.613448 17.168824
v 8.334032 1.052934 17.219350
v 8.278581 1.075917 17.564496
v 8.184941 0.613448 17.891343
v 8.146812 1.075917 17.497897
v 8.196950 1.075917 17.171294
v 8.015043 1.075917 17.431296
v 8.053171 1.075917 17.824742
v 8.018779 0.613448 17.418256
v 8.070494 1.052934 17.086151
v 8.008588 0.613448 17.035971
v 8.070494 0.173963 17.086151
v 8.015043 0.150979 17.431296
v 7.921403 0.613448 17.758142
v 8.146812 0.150979 17.497897
v 8.196950 0.150979 17.171294
v 8.053171 0.150979 17.824742
v 8.341000 0.613448 17.050069
v 8.412807 0.196947 17.047465
v 8.412807 1.029950 17.047465
v 8.053171 0.613448 17.824742
v 8.412918 1.052934 17.067316
v 8.412918 0.173963 17.067316
vt 0.746718 0.394775
vt 0.747088 0.351271
vt 0.785484 0.348011
vt 0.787892 0.393956
vt 0.745127 0.441725
vt 0.748817 0.438229
vt 0.787310 0.439961
vt 0.787191 0.445805
vt 0.895950 0.933795
vt 0.898480 0.890275
vt 0.937035 0.888743
vt 0.936962 0.934753
vt 0.892628 0.980733
vt 0.896446 0.977386
vt 0.934887 0.980715
vt 0.934548 0.986542
vt 0.831842 0.393084
vt 0.827573 0.353788
vt 0.832354 0.351450
vt 0.837433 0.392973
vt 0.890104 0.933659
vt 0.827486 0.441468
vt 0.825091 0.436789
vt 0.827154 0.434693
vt 0.831146 0.438463
vt 0.825507 0.351693
vt 0.829345 0.347767
vt 0.823362 0.349680
vt 0.829136 0.432517
vt 0.977480 0.887451
vt 0.975087 0.892139
vt 0.936969 0.882907
vt 0.894822 0.886754
vt 0.977161 0.894239
vt 0.979163 0.896415
vt 0.980374 0.935767
vt 0.977327 0.975019
vt 0.975226 0.977100
vt 0.973055 0.979100
vt 0.975227 0.983895
vt 0.825570 0.344909
vt 0.785132 0.342176
vt 0.743262 0.347924
vt 0.982024 0.977634
vt 0.986108 0.935901
vt 0.983977 0.894023
vt 0.834005 0.434665
vt 0.740863 0.394891
vt 0.981102 0.890382
vt 0.978982 0.981137
vn 0.961325 0.000000 0.275418
vn 0.961325 0.000000 0.275418
vn 0.961325 0.000000 0.275418
vn 0.961325 0.000000 0.275418
vn 0.000000 1.000000 0.000000
vn 0.000000 1.000000 0.000000
vn 0.000000 1.000000 0.000000
vn 0.000000 1.000000 0.000000
vn -0.961325 0.000000 -0.275417
vn -0.961325 0.000000 -0.275417
vn -0.961325 0.000000 -0.275417
vn -0.961325 0.000000 -0.275417
vn 0.000000 -1.000000 -0.000000
vn 0.000000 -1.000000 -0.000000
vn 0.000000 -1.000000 -0.000000
vn 0.000000 -1.000000 -0.000000
vn 0.873299 0.162721 0.459206
vn 0.873299 0.162721 0.459206
vn 0.873299 0.162721 0.459206
vn 0.873299 0.162721 0.459206
vn -0.451087 0.000000 0.892480
vn -0.451087 0.000000 0.892480
vn -0.451087 0.000000 0.892480
vn -0.451087 0.000000 0.892480
vn 0.180033 0.982696 -0.043545
vn 0.180033 0.982696 -0.043545
vn 0.180033 0.982696 -0.043545
vn 0.180033 0.982696 -0.043545
vn 0.863539 0.262118 0.430806
vn 0.863539 0.262118 0.430806
vn 0.863539 0.262118 0.430806
vn 0.863539 0.262118 0.430806
vn 0.987391 -0.008119 0.158093
vn 0.987391 -0.008119 0.158093
vn 0.987391 -0.008119 0.158093
vn 0.987391 -0.008119 0.158093
vn 0.990070 0.140456 -0.005816
vn 0.990070 0.140456 -0.005816
vn 0.990070 0.140456 -0.005816
vn 0.990070 0.140456 -0.005816
vn 0.990070 -0.140457 -0.005816
vn 0.990070 -0.140457 -0.005816
vn 0.990070 -0.140457 -0.005816
vn 0.990070 -0.140457 -0.005816
vn 0.987391 0.008119 0.158092
vn 0.987391 0.008119 0.158092
vn 0.987391 0.008119 0.158092
vn 0.987391 0.008119 0.158092
vn 0.961325 0.000000 0.275418
vn 0.961325 0.000000 0.275418
vn 0.961325 0.000000 0.275418
vn 0.961325 0.000000 0.275418
vn 0.000001 1.000000 -0.000000
vn 0.000001 1.000000 -0.000000
vn 0.000001 1.000000 -0.000000
vn 0.000001 1.000000 -0.000000
vn 0.000000 1.000000 0.000000
vn 0.000000 1.000000 0.000000
vn 0.000000 1.000000 0.000000
vn 0.000000 1.000000 0.000000
vn -0.000001 1.000000 0.000000
vn -0.000001 1.000000 0.000000
vn -0.000001 1.000000 0.000000
vn -0.000001 1.000000 0.000000
vn -0.987391 -0.008119 -0.158092
vn -0.987391 -0.008119 -0.158092
vn -0.987391 -0.008119 -0.158092
vn -0.987391 -0.008119 -0.158092
vn -0.990280 0.139026 0.004081
vn -0.990280 0.139026 0.004081
vn -0.990280 0.139026 0.004081
vn -0.990280 0.139026 0.004081
vn -0.990280 -0.139026 0.004081
vn -0.990280 -0.139026 0.004081
vn -0.990280 -0.139026 0.004081
vn -0.990280 -0.139026 0.004081
vn -0.987391 0.008119 -0.158092
vn -0.987391 0.008119 -0.158092
vn -0.987391 0.008119 -0.158092
vn -0.987391 0.008119 -0.158092
vn -0.961325 0.000000 -0.275417
vn -0.961325 0.000000 -0.275417
vn -0.961325 0.000000 -0.275417
vn -0.961325 0.000000 -0.275417
vn -0.000001 -1.000000 0.000000
vn -0.000001 -1.000000 0.000000
vn -0.000001 -1.000000 0.000000
vn -0.000001 -1.000000 0.000000
vn 0.000003 -1.000000 -0.000000
vn 0.000003 -1.000000 -0.000000
vn 0.000003 -1.000000 -0.000000
vn 0.000003 -1.000000 -0.000000
vn -0.000001 -1.000000 0.000000
vn -0.000001 -1.000000 0.000000
vn -0.000001 -1.000000 0.000000
vn -0.000001 -1.000000 0.000000
vn -0.009023 -0.036333 -0.999299
vn -0.009023 -0.036333 -0.999299
vn -0.009023 -0.036333 -0.999299
vn -0.009023 -0.036333 -0.999299
vn -0.009023 0.036333 -0.999299
vn -0.009023 0.036333 -0.999299
vn -0.009023 0.036333 -0.999299
vn -0.009023 0.036333 -0.999299
vn 0.873299 -0.162721 0.459206
vn 0.873299 -0.162721 0.459206
vn 0.873299 -0.162721 0.459206
vn 0.873299 -0.162721 0.459206
vn -0.451086 0.000000 0.892481
vn -0.451086 0.000000 0.892481
vn -0.451086 0.000000 0.892481
vn -0.451086 0.000000 0.892481
vn -0.451086 0.000000 0.892480
vn -0.451086 0.000000 0.892480
vn -0.451086 0.000000 0.892480
vn -0.451086 0.000000 0.892480
vn -0.451087 0.000000 0.892480
vn -0.451087 0.000000 0.892480
vn -0.451087 0.000000 0.892480
vn -0.451087 0.000000 0.892480
vn 0.863540 -0.262117 0.430805
vn 0.863540 -0.262117 0.430805
vn 0.863540 -0.262117 0.430805
vn 0.863540 -0.262117 0.430805
vn -0.044126 0.637494 -0.769191
vn -0.044126 0.637494 -0.769191
vn -0.044126 0.637494 -0.769191
vn -0.044126 0.637494 -0.769191
vn 0.030460 0.952690 -0.302412
vn 0.030460 0.952690 -0.302412
vn 0.030460 0.952690 -0.302412
vn 0.030460 0.952690 -0.302412
vn 0.180025 -0.982698 -0.043545
vn 0.180025 -0.982698 -0.043545
vn 0.180025 -0.982698 -0.043545
vn 0.180025 -0.982698 -0.043545
vn 0.030463 -0.952691 -0.302410
vn 0.030463 -0.952691 -0.302410
vn 0.030463 -0.952691 -0.302410
vn 0.030463 -0.952691 -0.302410
vn -0.044127 -0.637494 -0.769191
vn -0.044127 -0.637494 -0.769191
vn -0.044127 -0.637494 -0.769191
vn -0.044127 -0.637494 -0.769191
s off
g polySurface255 polySurface242 group14
usemtl pared1:lambert5SG
f 19/1/1 1/2/2 14/3/3 13/4/4
f 23/5/5 2/6/6 18/7/7 20/8/8
f 29/9/9 3/10/10 22/11/11 24/12/12
f 32/13/13 4/14/14 28/15/15 30/16/16
f 16/17/17 9/18/18 34/19/19 33/20/20
f 29/9/21 4/14/22 32/13/23 36/21/24
f 21/22/25 5/23/26 17/24/27 37/25/28
f 34/19/29 9/18/30 15/26/31 38/27/32
f 14/3/33 10/28/34 15/26/35 13/4/36
f 15/26/37 9/18/38 16/17/39 13/4/40
f 16/17/41 6/29/42 17/24/43 13/4/44
f 17/24/45 5/23/46 18/7/47 13/4/48
f 18/7/49 2/6/50 19/1/51 13/4/52
f 18/7/53 5/23/54 21/22/55 20/8/56
f 21/30/57 8/31/58 22/11/59 20/32/60
f 22/11/61 3/10/62 23/33/63 20/32/64
f 22/11/65 8/31/66 25/34/67 24/12/68
f 25/34/69 7/35/70 26/36/71 24/12/72
f 26/36/73 12/37/74 27/38/75 24/12/76
f 27/38/77 11/39/78 28/15/79 24/12/80
f 28/15/81 4/14/82 29/9/83 24/12/84
f 28/15/85 11/39/86 31/40/87 30/16/88
f 31/41/89 10/28/90 14/3/91 30/42/92
f 14/3/93 1/2/94 32/43/95 30/42/96
f 34/44/97 12/37/98 26/36/99 33/45/100
f 26/36/101 7/35/102 35/46/103 33/45/104
f 35/47/105 6/29/106 16/17/107 33/20/108
f 32/43/109 1/2/110 19/1/111 36/48/112
f 19/1/113 2/6/114 23/5/115 36/48/116
f 23/33/117 3/10/118 29/9/119 36/21/120
f 17/24/121 6/29/122 35/47/123 37/25/124
f 35/46/125 7/35/126 25/34/127 37/49/128
f 25/34/129 8/31/130 21/30/131 37/49/132
f 15/26/133 10/28/134 31/41/135 38/27/136
f 31/40/137 11/39/138 27/38/139 38/50/140
f 27/38/141 12/37/142 34/44/143 38/50/144
