# This file uses centimeters as units for non-parametric coordinates.

mtllib paredroca3.mtl
g default
v 8.117107 4.114454 14.701225
v 8.117107 5.039392 14.701225
v 7.935778 5.059553 14.721154
v 7.936067 4.134933 14.696950
v 8.541298 4.987276 15.742119
v 8.553253 5.034262 15.703837
v 8.261210 4.988198 15.699847
v 8.308006 5.035185 15.661372
v 8.500112 4.097445 15.664698
v 8.572138 4.152773 15.717920
v 8.302631 4.157007 15.676173
v 8.276756 4.131126 15.615158
v 8.105234 5.047503 15.186788
v 8.413209 5.034723 15.682702
v 8.239485 5.049059 15.130757
v 7.988813 5.039392 14.777796
v 8.005821 5.045948 15.242625
v 8.140362 4.122882 15.162391
v 8.405979 4.137720 15.628744
v 8.016334 4.126251 15.030578
v 7.988813 4.114454 14.777796
v 8.274614 4.124437 15.106360
v 7.988813 4.576923 14.777796
v 7.935922 4.597243 14.709052
v 8.117107 4.576923 14.701225
v 8.411178 4.576923 15.769985
v 8.447115 4.164966 15.765768
v 8.541428 4.570917 15.731220
v 8.411178 4.993425 15.769985
v 8.261341 4.571839 15.688948
v 8.336128 4.581627 15.315590
v 8.262857 5.011692 15.680731
v 8.289867 4.143953 15.645788
v 8.242832 4.586401 15.131966
v 8.539136 4.125525 15.691811
v 8.508105 5.010769 15.723196
v 8.376228 5.016408 15.750326
v 8.430415 4.151943 15.737206
vt 0.395297 0.890211
vt 0.357560 0.892984
vt 0.355221 0.888271
vt 0.395458 0.884371
vt 0.785477 0.207699
vt 0.747650 0.209119
vt 0.747467 0.204041
vt 0.785579 0.201970
vt 0.824834 0.254383
vt 0.823929 0.210572
vt 0.827726 0.207190
vt 0.830695 0.254456
vt 0.350635 0.936288
vt 0.353884 0.975482
vt 0.349197 0.977574
vt 0.344954 0.936272
vt 0.353465 0.897190
vt 0.355476 0.895050
vt 0.394454 0.936313
vt 0.739495 0.253613
vt 0.743197 0.214657
vt 0.745191 0.211793
vt 0.783637 0.253690
vt 0.737680 0.295111
vt 0.742419 0.292784
vt 0.744435 0.294932
vt 0.740536 0.298791
vt 0.742758 0.207444
vt 0.744166 0.301721
vt 0.746522 0.297006
vt 0.784377 0.299878
vt 0.784524 0.305727
vt 0.822934 0.297922
vt 0.826645 0.301404
vt 0.437489 0.888819
vt 0.433774 0.892285
vt 0.358264 0.983130
vt 0.359677 0.978317
vt 0.396080 0.982147
vt 0.396373 0.987868
vt 0.434557 0.979314
vt 0.438342 0.982702
vt 0.435548 0.935783
vt 0.441399 0.935725
vt 0.738859 0.211981
vt 0.733812 0.253451
vt 0.348743 0.894848
vt 0.356674 0.977004
vt 0.351597 0.891185
vt 0.353283 0.980912
vn -0.000890 0.999653 0.026329
vn -0.000890 0.999653 0.026329
vn -0.000890 0.999653 0.026329
vn -0.000890 0.999653 0.026329
vn -0.161183 -0.984744 0.065573
vn -0.161183 -0.984744 0.065573
vn -0.161183 -0.984744 0.065573
vn -0.161183 -0.984744 0.065573
vn -0.512500 0.000000 -0.858687
vn -0.512500 0.000000 -0.858687
vn -0.512500 0.000000 -0.858687
vn -0.512500 0.000000 -0.858687
vn -0.498380 -0.064320 0.864569
vn -0.498380 -0.064320 0.864569
vn -0.498380 -0.064320 0.864569
vn -0.498380 -0.064320 0.864569
vn -0.981557 -0.000189 -0.191169
vn -0.981557 -0.000189 -0.191169
vn -0.981557 -0.000189 -0.191169
vn -0.981557 -0.000189 -0.191169
vn 0.882592 0.036927 -0.468688
vn 0.882592 0.036927 -0.468688
vn 0.882592 0.036927 -0.468688
vn 0.882592 0.036927 -0.468688
vn 0.165634 0.762286 0.625688
vn 0.165634 0.762286 0.625688
vn 0.165634 0.762286 0.625688
vn 0.165634 0.762286 0.625688
vn -0.269491 -0.876209 0.399540
vn -0.269491 -0.876209 0.399540
vn -0.269491 -0.876209 0.399540
vn -0.269491 -0.876209 0.399540
vn -0.000665 0.999657 0.026172
vn -0.000665 0.999657 0.026172
vn -0.000665 0.999657 0.026172
vn -0.000665 0.999657 0.026172
vn -0.014544 0.999749 -0.017053
vn -0.014544 0.999749 -0.017053
vn -0.014544 0.999749 -0.017053
vn -0.014544 0.999749 -0.017053
vn 0.121214 0.992455 -0.018433
vn 0.121214 0.992455 -0.018433
vn 0.121214 0.992455 -0.018433
vn 0.121214 0.992455 -0.018433
vn 0.002751 -0.999845 0.017377
vn 0.002751 -0.999845 0.017377
vn 0.002751 -0.999845 0.017377
vn 0.002751 -0.999845 0.017377
vn -0.214223 -0.974359 0.068792
vn -0.214223 -0.974359 0.068792
vn -0.214223 -0.974359 0.068792
vn -0.214223 -0.974359 0.068792
vn 0.014772 -0.999737 0.017525
vn 0.014772 -0.999737 0.017525
vn 0.014772 -0.999737 0.017525
vn 0.014772 -0.999737 0.017525
vn 0.817814 0.007658 -0.575432
vn 0.817814 0.007658 -0.575432
vn 0.817814 0.007658 -0.575432
vn 0.817814 0.007658 -0.575432
vn 0.765227 0.008543 -0.643704
vn 0.765227 0.008543 -0.643704
vn 0.765227 0.008543 -0.643704
vn 0.765227 0.008543 -0.643704
vn -0.512498 0.000000 -0.858688
vn -0.512498 0.000000 -0.858688
vn -0.512498 0.000000 -0.858688
vn -0.512498 0.000000 -0.858688
vn 0.321674 0.005848 0.946832
vn 0.321674 0.005848 0.946832
vn 0.321674 0.005848 0.946832
vn 0.321674 0.005848 0.946832
vn 0.247344 -0.012641 0.968845
vn 0.247344 -0.012641 0.968845
vn 0.247344 -0.012641 0.968845
vn 0.247344 -0.012641 0.968845
vn -0.449883 -0.011756 0.893010
vn -0.449883 -0.011756 0.893010
vn -0.449883 -0.011756 0.893010
vn -0.449883 -0.011756 0.893010
vn -0.807783 -0.388248 0.443566
vn -0.807783 -0.388248 0.443566
vn -0.807783 -0.388248 0.443566
vn -0.807783 -0.388248 0.443566
vn -0.885439 -0.292013 0.361560
vn -0.885439 -0.292013 0.361560
vn -0.885439 -0.292013 0.361560
vn -0.885439 -0.292013 0.361560
vn -0.877440 0.159119 0.452527
vn -0.877440 0.159119 0.452527
vn -0.877440 0.159119 0.452527
vn -0.877440 0.159119 0.452527
vn -0.856543 0.359256 0.370498
vn -0.856543 0.359256 0.370498
vn -0.856543 0.359256 0.370498
vn -0.856543 0.359256 0.370498
vn -0.987202 -0.050559 -0.151247
vn -0.987202 -0.050559 -0.151247
vn -0.987202 -0.050559 -0.151247
vn -0.987202 -0.050559 -0.151247
vn 0.910844 0.030822 -0.411598
vn 0.910844 0.030822 -0.411598
vn 0.910844 0.030822 -0.411598
vn 0.910844 0.030822 -0.411598
vn 0.945998 0.041430 -0.321514
vn 0.945998 0.041430 -0.321514
vn 0.945998 0.041430 -0.321514
vn 0.945998 0.041430 -0.321514
vn 0.960816 0.003114 -0.277171
vn 0.960815 0.003114 -0.277172
vn 0.960816 0.003114 -0.277171
vn 0.960816 0.003114 -0.277171
vn 0.904273 -0.095360 -0.416170
vn 0.904273 -0.095360 -0.416170
vn 0.904273 -0.095360 -0.416170
vn 0.904273 -0.095360 -0.416170
vn 0.881141 0.058195 -0.469259
vn 0.881141 0.058195 -0.469259
vn 0.881141 0.058195 -0.469259
vn 0.881141 0.058195 -0.469259
vn 0.030017 0.889535 0.455879
vn 0.030017 0.889535 0.455879
vn 0.030017 0.889535 0.455879
vn 0.030017 0.889535 0.455879
vn -0.147880 0.938655 0.311542
vn -0.147880 0.938655 0.311542
vn -0.147880 0.938655 0.311542
vn -0.147880 0.938655 0.311542
vn -0.447617 0.361586 0.817860
vn -0.447617 0.361586 0.817860
vn -0.447617 0.361586 0.817860
vn -0.447617 0.361586 0.817860
vn 0.078878 -0.835538 0.543741
vn 0.078878 -0.835538 0.543741
vn 0.078878 -0.835538 0.543741
vn 0.078878 -0.835538 0.543741
vn -0.271174 -0.822770 0.499514
vn -0.271174 -0.822770 0.499513
vn -0.271174 -0.822770 0.499514
vn -0.271174 -0.822770 0.499514
vn -0.023703 -0.980116 0.197004
vn -0.023703 -0.980116 0.197004
vn -0.023703 -0.980116 0.197004
vn -0.023703 -0.980116 0.197004
s off
g polySurface251 polySurface242 group14
usemtl pared1:lambert5SG
f 17/1/1 8/2/2 14/3/3 13/4/4
f 22/5/5 9/6/6 19/7/7 18/8/8
f 25/9/9 1/10/10 21/11/11 23/12/12
f 30/13/13 11/14/14 27/15/15 26/16/16
f 30/13/17 7/17/18 32/18/19 31/19/20
f 28/20/21 10/21/22 35/22/23 34/23/24
f 29/24/25 5/25/26 36/26/27 37/27/28
f 19/7/29 9/6/30 35/22/31 38/28/32
f 14/29/33 6/30/34 15/31/35 13/32/36
f 15/31/37 2/33/38 16/34/39 13/32/40
f 16/35/41 3/36/42 17/1/43 13/4/44
f 19/37/45 12/38/46 20/39/47 18/40/48
f 20/39/49 4/41/50 21/42/51 18/40/52
f 21/11/53 1/10/54 22/5/55 18/8/56
f 21/42/57 4/41/58 24/43/59 23/44/60
f 24/43/61 3/36/62 16/35/63 23/44/64
f 16/34/65 2/33/66 25/9/67 23/12/68
f 27/45/69 10/21/70 28/20/71 26/46/72
f 28/20/73 5/25/74 29/24/75 26/46/76
f 29/47/77 7/17/78 30/13/79 26/16/80
f 32/18/81 8/2/82 17/1/83 31/19/84
f 17/1/85 3/36/86 24/43/87 31/19/88
f 24/43/89 4/41/90 20/39/91 31/19/92
f 20/39/93 12/38/94 33/48/95 31/19/96
f 33/48/97 11/14/98 30/13/99 31/19/100
f 35/22/101 9/6/102 22/5/103 34/23/104
f 22/5/105 1/10/106 25/9/107 34/23/108
f 25/9/109 2/33/110 15/31/111 34/23/112
f 15/31/113 6/30/114 36/26/115 34/23/116
f 36/26/117 5/25/118 28/20/119 34/23/120
f 36/26/121 6/30/122 14/29/123 37/27/124
f 14/3/125 8/2/126 32/18/127 37/49/128
f 32/18/129 7/17/130 29/47/131 37/49/132
f 35/22/133 10/21/134 27/45/135 38/28/136
f 27/15/137 11/14/138 33/48/139 38/50/140
f 33/48/141 12/38/142 19/37/143 38/50/144
