# This file uses centimeters as units for non-parametric coordinates.

mtllib paredroca13.mtl
g default
v 8.070049 0.150979 14.699202
v 8.070049 1.075917 14.699202
v 7.922946 1.075917 14.851733
v 7.922946 0.150979 14.851733
v 8.347203 1.030083 15.449421
v 8.326757 1.084737 15.405607
v 8.181411 1.029950 15.580678
v 8.173504 1.061513 15.540348
v 8.343139 0.150979 15.540070
v 8.347300 0.197365 15.427624
v 8.181411 0.196947 15.580678
v 8.181190 0.150979 15.540973
v 8.090294 1.090310 14.893091
v 8.260293 1.062123 15.386423
v 8.167318 1.091865 14.837379
v 7.996498 1.075917 14.775468
v 7.986532 1.075917 15.171052
v 8.060082 0.150979 15.094787
v 8.262164 0.150979 15.540522
v 7.986532 0.150979 15.171052
v 7.996498 0.150979 14.775468
v 8.133633 0.150979 15.018521
v 7.996498 0.613448 14.775468
v 7.922946 0.613448 14.851733
v 8.070049 0.613448 14.699202
v 8.266716 0.614185 15.417056
v 8.266766 0.197826 15.406157
v 8.347252 0.613724 15.438523
v 8.266667 1.030544 15.427954
v 8.181411 0.613448 15.580678
v 8.151584 0.613448 15.205171
v 8.178894 1.048425 15.560630
v 8.181300 0.173963 15.560826
v 8.142865 0.628675 14.857678
v 8.348207 0.174906 15.407309
v 8.344788 1.054718 15.429476
v 8.265386 1.049923 15.407958
v 8.262275 0.173963 15.560374
vt 0.834549 0.622793
vt 0.872414 0.619047
vt 0.874876 0.623938
vt 0.834382 0.628510
vt 0.923625 0.272282
vt 0.885522 0.275269
vt 0.883179 0.270558
vt 0.923787 0.266440
vt 0.964116 0.317844
vt 0.962240 0.274353
vt 0.965961 0.270888
vt 0.969973 0.317795
vt 0.879674 0.576821
vt 0.876653 0.537435
vt 0.881361 0.535075
vt 0.885475 0.576834
vt 0.876623 0.616135
vt 0.874566 0.617869
vt 0.835861 0.576852
vt 0.878874 0.318979
vt 0.881386 0.279511
vt 0.883417 0.277351
vt 0.922905 0.318304
vt 0.878338 0.360878
vt 0.882741 0.357945
vt 0.884797 0.360105
vt 0.881563 0.364211
vt 0.879517 0.273509
vt 0.884715 0.367010
vt 0.887063 0.362821
vt 0.924832 0.364305
vt 0.924990 0.370149
vt 0.963179 0.361560
vt 0.966950 0.364967
vt 0.792461 0.623997
vt 0.796193 0.620550
vt 0.874735 0.528512
vt 0.872468 0.533256
vt 0.834402 0.530844
vt 0.834145 0.525009
vt 0.795844 0.533531
vt 0.792068 0.530132
vt 0.794688 0.576975
vt 0.788836 0.577018
vt 0.876636 0.277229
vt 0.873059 0.319165
vt 0.881241 0.618581
vt 0.874597 0.535306
vt 0.878197 0.621767
vt 0.878433 0.531405
vn 0.017101 0.998961 0.042246
vn 0.017101 0.998961 0.042246
vn 0.017101 0.998961 0.042246
vn 0.017101 0.998961 0.042246
vn -0.000003 -1.000000 0.000000
vn -0.000003 -1.000000 0.000000
vn -0.000003 -1.000000 0.000000
vn -0.000003 -1.000000 0.000000
vn -0.719801 0.000000 -0.694181
vn -0.719801 0.000000 -0.694181
vn -0.719801 0.000000 -0.694181
vn -0.719801 0.000000 -0.694181
vn 0.892740 -0.005843 0.450535
vn 0.892740 -0.005843 0.450535
vn 0.892740 -0.005843 0.450535
vn 0.892740 -0.005843 0.450535
vn -0.996680 -0.002014 0.081400
vn -0.996680 -0.002014 0.081400
vn -0.996680 -0.002014 0.081400
vn -0.996680 -0.002014 0.081400
vn 0.946823 0.024879 -0.320791
vn 0.946823 0.024879 -0.320791
vn 0.946823 0.024879 -0.320791
vn 0.946823 0.024879 -0.320791
vn -0.214301 0.646453 0.732239
vn -0.214301 0.646453 0.732239
vn -0.214301 0.646453 0.732239
vn -0.214301 0.646453 0.732239
vn 0.339252 0.863088 0.374148
vn 0.339252 0.863088 0.374148
vn 0.339252 0.863088 0.374148
vn 0.339252 0.863088 0.374148
vn -0.146199 0.986161 0.078178
vn -0.146199 0.986161 0.078178
vn -0.146199 0.986161 0.078178
vn -0.146199 0.986161 0.078178
vn -0.068750 0.995401 -0.066712
vn -0.068750 0.995401 -0.066712
vn -0.068750 0.995401 -0.066712
vn -0.068750 0.995401 -0.066712
vn -0.085163 0.996365 -0.002145
vn -0.085163 0.996365 -0.002145
vn -0.085163 0.996365 -0.002145
vn -0.085163 0.996365 -0.002145
vn 0.000000 -1.000000 -0.000000
vn 0.000000 -1.000000 -0.000000
vn 0.000000 -1.000000 -0.000000
vn 0.000000 -1.000000 -0.000000
vn 0.000004 -1.000000 -0.000000
vn 0.000004 -1.000000 -0.000000
vn 0.000004 -1.000000 -0.000000
vn 0.000004 -1.000000 -0.000000
vn 0.000000 -1.000000 -0.000000
vn 0.000000 -1.000000 -0.000000
vn 0.000000 -1.000000 -0.000000
vn 0.000000 -1.000000 -0.000000
vn -0.719802 0.000000 -0.694180
vn -0.719802 0.000000 -0.694180
vn -0.719802 0.000000 -0.694180
vn -0.719802 0.000000 -0.694180
vn -0.719802 0.000000 -0.694180
vn -0.719802 0.000000 -0.694180
vn -0.719802 0.000000 -0.694180
vn -0.719802 0.000000 -0.694180
vn -0.719801 0.000000 -0.694181
vn -0.719801 0.000000 -0.694181
vn -0.719801 0.000000 -0.694181
vn -0.719801 0.000000 -0.694181
vn -0.257612 -0.025314 0.965917
vn -0.257612 -0.025314 0.965917
vn -0.257612 -0.025314 0.965917
vn -0.257612 -0.025314 0.965917
vn -0.257612 -0.025312 0.965917
vn -0.257612 -0.025312 0.965917
vn -0.257612 -0.025312 0.965917
vn -0.257612 -0.025312 0.965917
vn 0.880207 -0.006158 0.474550
vn 0.880207 -0.006158 0.474550
vn 0.880207 -0.006158 0.474550
vn 0.880207 -0.006158 0.474550
vn -0.871807 -0.265360 0.411749
vn -0.871807 -0.265360 0.411749
vn -0.871807 -0.265360 0.411749
vn -0.871807 -0.265360 0.411749
vn -0.907198 -0.147351 0.394056
vn -0.907198 -0.147351 0.394056
vn -0.907198 -0.147351 0.394056
vn -0.907198 -0.147351 0.394056
vn -0.907198 0.147351 0.394056
vn -0.907198 0.147351 0.394056
vn -0.907198 0.147351 0.394056
vn -0.907198 0.147351 0.394056
vn -0.871973 0.249863 0.420989
vn -0.871973 0.249863 0.420989
vn -0.871973 0.249863 0.420989
vn -0.871973 0.249863 0.420989
vn -0.997127 -0.003168 0.075688
vn -0.997127 -0.003168 0.075688
vn -0.997127 -0.003168 0.075688
vn -0.997127 -0.003168 0.075688
vn 0.846025 -0.287072 -0.449257
vn 0.846025 -0.287072 -0.449257
vn 0.846025 -0.287072 -0.449257
vn 0.846025 -0.287072 -0.449257
vn 0.960542 -0.056039 -0.272432
vn 0.960542 -0.056039 -0.272432
vn 0.960542 -0.056039 -0.272432
vn 0.960542 -0.056039 -0.272432
vn 0.868556 -0.033788 -0.494438
vn 0.868556 -0.033788 -0.494438
vn 0.868556 -0.033788 -0.494438
vn 0.868556 -0.033788 -0.494438
vn 0.956528 -0.038347 -0.289108
vn 0.956528 -0.038347 -0.289108
vn 0.956528 -0.038347 -0.289108
vn 0.956528 -0.038347 -0.289108
vn 0.945522 -0.001397 -0.325557
vn 0.945522 -0.001397 -0.325557
vn 0.945522 -0.001397 -0.325557
vn 0.945522 -0.001397 -0.325557
vn -0.317287 0.608490 0.727371
vn -0.317287 0.608490 0.727371
vn -0.317287 0.608490 0.727371
vn -0.317287 0.608490 0.727371
vn 0.559670 0.763780 0.321574
vn 0.559670 0.763780 0.321574
vn 0.559670 0.763780 0.321574
vn 0.559670 0.763780 0.321574
vn 0.742871 0.520216 0.421329
vn 0.742871 0.520216 0.421329
vn 0.742871 0.520216 0.421329
vn 0.742871 0.520216 0.421329
vn 0.252217 0.912389 0.322386
vn 0.252217 0.912389 0.322386
vn 0.252217 0.912389 0.322386
vn 0.252217 0.912389 0.322386
vn 0.332589 0.886899 0.320616
vn 0.332589 0.886899 0.320616
vn 0.332589 0.886899 0.320616
vn 0.332589 0.886899 0.320616
vn 0.004218 -0.653693 0.756748
vn 0.004218 -0.653693 0.756748
vn 0.004218 -0.653693 0.756748
vn 0.004218 -0.653693 0.756748
s off
g polySurface253 polySurface242 group14
usemtl pared1:lambert5SG
f 17/1/1 8/2/2 14/3/3 13/4/4
f 22/5/5 9/6/6 19/7/7 18/8/8
f 25/9/9 1/10/10 21/11/11 23/12/12
f 30/13/13 11/14/14 27/15/15 26/16/16
f 30/13/17 7/17/18 32/18/19 31/19/20
f 28/20/21 10/21/22 35/22/23 34/23/24
f 29/24/25 5/25/26 36/26/27 37/27/28
f 19/7/29 9/6/30 35/22/31 38/28/32
f 14/29/33 6/30/34 15/31/35 13/32/36
f 15/31/37 2/33/38 16/34/39 13/32/40
f 16/35/41 3/36/42 17/1/43 13/4/44
f 19/37/45 12/38/46 20/39/47 18/40/48
f 20/39/49 4/41/50 21/42/51 18/40/52
f 21/11/53 1/10/54 22/5/55 18/8/56
f 21/42/57 4/41/58 24/43/59 23/44/60
f 24/43/61 3/36/62 16/35/63 23/44/64
f 16/34/65 2/33/66 25/9/67 23/12/68
f 27/45/69 10/21/70 28/20/71 26/46/72
f 28/20/73 5/25/74 29/24/75 26/46/76
f 29/47/77 7/17/78 30/13/79 26/16/80
f 32/18/81 8/2/82 17/1/83 31/19/84
f 17/1/85 3/36/86 24/43/87 31/19/88
f 24/43/89 4/41/90 20/39/91 31/19/92
f 20/39/93 12/38/94 33/48/95 31/19/96
f 33/48/97 11/14/98 30/13/99 31/19/100
f 35/22/101 9/6/102 22/5/103 34/23/104
f 22/5/105 1/10/106 25/9/107 34/23/108
f 25/9/109 2/33/110 15/31/111 34/23/112
f 15/31/113 6/30/114 36/26/115 34/23/116
f 36/26/117 5/25/118 28/20/119 34/23/120
f 36/26/121 6/30/122 14/29/123 37/27/124
f 14/3/125 8/2/126 32/18/127 37/49/128
f 32/18/129 7/17/130 29/47/131 37/49/132
f 35/22/133 10/21/134 27/45/135 38/28/136
f 27/15/137 11/14/138 33/48/139 38/50/140
f 33/48/141 12/38/142 19/37/143 38/50/144
