# This file uses centimeters as units for non-parametric coordinates.

mtllib paredroca8.mtl
g default
v 8.016456 2.128254 14.660424
v 8.016456 3.053192 14.660424
v 7.843021 3.053192 14.813102
v 7.843021 2.128254 14.813102
v 8.335288 3.001756 15.649934
v 8.337448 3.048742 15.611707
v 8.151532 3.007224 15.730070
v 8.146544 3.053192 15.502089
v 8.344184 2.129046 15.399682
v 8.335426 2.169039 15.628138
v 8.151532 2.174221 15.730070
v 8.146544 2.128254 15.502089
v 7.972677 3.049929 14.946860
v 8.242600 3.049204 15.590321
v 8.051506 3.045198 15.082166
v 7.929739 3.053192 14.736764
v 7.851583 3.036882 15.190481
v 8.039940 2.142286 14.881832
v 8.249335 2.129506 15.378295
v 7.917606 2.128254 15.132359
v 7.929739 2.128254 14.736764
v 8.130728 2.143842 14.826042
v 7.929739 2.590723 14.736764
v 7.843021 2.590723 14.813102
v 8.016456 2.590723 14.660424
v 8.246921 2.590723 15.729539
v 8.246921 2.174221 15.729539
v 8.335358 2.585397 15.639036
v 8.246921 3.007224 15.729539
v 8.151532 2.590723 15.730070
v 8.144672 2.590723 15.166133
v 8.151421 3.030210 15.710217
v 8.146655 2.151238 15.521942
v 8.126262 2.600883 15.039283
v 8.336514 2.146580 15.607822
v 8.336369 3.025249 15.630821
v 8.246810 3.030208 15.709686
v 8.241665 2.147041 15.586433
vt 0.930250 0.432172
vt 0.892156 0.433124
vt 0.889617 0.428347
vt 0.930370 0.426231
vt 0.928439 0.630934
vt 0.890580 0.634027
vt 0.888182 0.629332
vt 0.928494 0.625080
vt 0.969164 0.676026
vt 0.966765 0.632305
vt 0.970411 0.628754
vt 0.975041 0.675853
vt 0.885655 0.476777
vt 0.889008 0.516106
vt 0.884322 0.518501
vt 0.879864 0.476833
vt 0.888039 0.437353
vt 0.890060 0.435200
vt 0.929461 0.476418
vt 0.884324 0.677404
vt 0.886479 0.638241
vt 0.888493 0.636096
vt 0.928369 0.677089
vt 0.882989 0.718542
vt 0.887650 0.716080
vt 0.889718 0.718145
vt 0.886008 0.722163
vt 0.884560 0.632272
vt 0.889850 0.724962
vt 0.891855 0.720123
vt 0.929949 0.722452
vt 0.930189 0.727726
vt 0.969295 0.718857
vt 0.972883 0.722391
vt 0.972369 0.428348
vt 0.968533 0.431881
vt 0.891012 0.524997
vt 0.893239 0.520238
vt 0.931353 0.522276
vt 0.931653 0.528105
vt 0.969910 0.519215
vt 0.973706 0.522587
vt 0.970798 0.475666
vt 0.976642 0.475552
vt 0.881709 0.635982
vt 0.878516 0.677508
vt 0.883283 0.435073
vt 0.891088 0.518212
vt 0.886088 0.431351
vt 0.887288 0.522143
vn -0.037488 0.999280 0.005865
vn -0.037488 0.999280 0.005865
vn -0.037488 0.999280 0.005865
vn -0.037488 0.999280 0.005865
vn 0.001036 -0.999657 -0.026174
vn 0.001036 -0.999657 -0.026174
vn 0.001036 -0.999657 -0.026174
vn 0.001036 -0.999657 -0.026174
vn -0.660761 0.000000 -0.750596
vn -0.660761 0.000000 -0.750596
vn -0.660761 0.000000 -0.750596
vn -0.660761 0.000000 -0.750596
vn 0.005573 0.000000 0.999985
vn 0.005573 0.000000 0.999985
vn 0.005573 0.000000 0.999985
vn 0.005573 0.000000 0.999985
vn -0.999929 0.000288 0.011952
vn -0.999929 0.000288 0.011952
vn -0.999929 0.000288 0.011952
vn -0.999929 0.000288 0.011952
vn 0.947692 0.025131 -0.318195
vn 0.947692 0.025131 -0.318195
vn 0.947692 0.025131 -0.318195
vn 0.947692 0.025131 -0.318195
vn 0.587628 0.512608 0.626040
vn 0.587628 0.512609 0.626040
vn 0.587628 0.512609 0.626040
vn 0.587628 0.512609 0.626040
vn -0.023563 -0.996266 0.083062
vn -0.023563 -0.996266 0.083062
vn -0.023563 -0.996266 0.083062
vn -0.023563 -0.996266 0.083062
vn 0.055890 0.998019 -0.028886
vn 0.055890 0.998019 -0.028886
vn 0.055890 0.998019 -0.028886
vn 0.055890 0.998019 -0.028886
vn 0.023235 0.999618 0.014941
vn 0.023235 0.999618 0.014941
vn 0.023235 0.999618 0.014941
vn 0.023235 0.999618 0.014941
vn -0.010114 0.999364 0.034183
vn -0.010114 0.999364 0.034183
vn -0.010114 0.999364 0.034183
vn -0.010114 0.999364 0.034183
vn 0.023533 -0.999368 -0.026654
vn 0.023533 -0.999368 -0.026654
vn 0.023533 -0.999368 -0.026654
vn 0.023533 -0.999368 -0.026654
vn 0.070339 -0.997521 0.002157
vn 0.070339 -0.997521 0.002157
vn 0.070339 -0.997521 0.002157
vn 0.070339 -0.997521 0.002157
vn 0.051686 -0.996995 0.057705
vn 0.051686 -0.996995 0.057705
vn 0.051686 -0.996995 0.057705
vn 0.051686 -0.996995 0.057705
vn -0.660762 0.000000 -0.750595
vn -0.660762 0.000000 -0.750595
vn -0.660762 0.000000 -0.750595
vn -0.660762 0.000000 -0.750595
vn -0.660761 0.000000 -0.750596
vn -0.660761 0.000000 -0.750596
vn -0.660761 0.000000 -0.750596
vn -0.660761 0.000000 -0.750596
vn -0.660760 0.000000 -0.750597
vn -0.660760 0.000000 -0.750597
vn -0.660760 0.000000 -0.750597
vn -0.660760 0.000000 -0.750597
vn 0.734915 -0.008813 0.678102
vn 0.734915 -0.008813 0.678102
vn 0.734915 -0.008813 0.678102
vn 0.734915 -0.008813 0.678102
vn 0.692996 -0.009375 0.720880
vn 0.692996 -0.009375 0.720880
vn 0.692996 -0.009375 0.720880
vn 0.692996 -0.009375 0.720880
vn 0.005573 0.000000 0.999985
vn 0.005573 0.000000 0.999985
vn 0.005573 0.000000 0.999985
vn 0.005573 0.000000 0.999985
vn -0.817630 -0.336213 0.467379
vn -0.817630 -0.336213 0.467379
vn -0.817630 -0.336213 0.467379
vn -0.817630 -0.336213 0.467379
vn -0.881994 -0.294360 0.368020
vn -0.881994 -0.294360 0.368020
vn -0.881994 -0.294360 0.368020
vn -0.881994 -0.294360 0.368020
vn -0.856284 0.192713 0.479207
vn -0.856284 0.192713 0.479207
vn -0.856284 0.192713 0.479207
vn -0.856284 0.192713 0.479207
vn -0.821256 0.333156 0.463190
vn -0.821256 0.333156 0.463190
vn -0.821256 0.333156 0.463190
vn -0.821256 0.333156 0.463190
vn -0.999878 0.003954 0.015084
vn -0.999878 0.003954 0.015084
vn -0.999878 0.003954 0.015084
vn -0.999878 0.003954 0.015084
vn 0.937646 0.243887 -0.247666
vn 0.937646 0.243887 -0.247666
vn 0.937646 0.243887 -0.247666
vn 0.937646 0.243887 -0.247666
vn 0.919163 0.093214 -0.382688
vn 0.919163 0.093214 -0.382688
vn 0.919163 0.093214 -0.382688
vn 0.919163 0.093214 -0.382688
vn 0.980058 0.089194 -0.177568
vn 0.980058 0.089194 -0.177568
vn 0.980058 0.089194 -0.177568
vn 0.980058 0.089194 -0.177568
vn 0.878285 0.161193 -0.450147
vn 0.878285 0.161193 -0.450147
vn 0.878285 0.161193 -0.450147
vn 0.878285 0.161193 -0.450147
vn 0.947701 -0.008138 -0.319057
vn 0.947701 -0.008138 -0.319057
vn 0.947701 -0.008138 -0.319057
vn 0.947701 -0.008138 -0.319057
vn 0.117942 0.950083 0.288845
vn 0.117942 0.950083 0.288845
vn 0.117942 0.950083 0.288845
vn 0.117942 0.950083 0.288845
vn -0.038024 0.991033 0.128091
vn -0.038024 0.991033 0.128091
vn -0.038024 0.991033 0.128091
vn -0.038024 0.991033 0.128091
vn 0.004223 0.653685 0.756755
vn 0.004223 0.653685 0.756755
vn 0.004223 0.653685 0.756755
vn 0.004223 0.653685 0.756755
vn 0.095942 -0.953097 0.287056
vn 0.095942 -0.953097 0.287056
vn 0.095942 -0.953097 0.287056
vn 0.095942 -0.953097 0.287056
vn -0.069805 -0.987256 0.143014
vn -0.069805 -0.987256 0.143014
vn -0.069805 -0.987256 0.143014
vn -0.069805 -0.987256 0.143014
vn 0.038144 -0.983637 0.176078
vn 0.038144 -0.983637 0.176078
vn 0.038144 -0.983637 0.176078
vn 0.038144 -0.983637 0.176078
s off
g polySurface246 polySurface242 group14
usemtl pared1:lambert5SG
f 17/1/1 8/2/2 14/3/3 13/4/4
f 22/5/5 9/6/6 19/7/7 18/8/8
f 25/9/9 1/10/10 21/11/11 23/12/12
f 30/13/13 11/14/14 27/15/15 26/16/16
f 30/13/17 7/17/18 32/18/19 31/19/20
f 28/20/21 10/21/22 35/22/23 34/23/24
f 29/24/25 5/25/26 36/26/27 37/27/28
f 19/7/29 9/6/30 35/22/31 38/28/32
f 14/29/33 6/30/34 15/31/35 13/32/36
f 15/31/37 2/33/38 16/34/39 13/32/40
f 16/35/41 3/36/42 17/1/43 13/4/44
f 19/37/45 12/38/46 20/39/47 18/40/48
f 20/39/49 4/41/50 21/42/51 18/40/52
f 21/11/53 1/10/54 22/5/55 18/8/56
f 21/42/57 4/41/58 24/43/59 23/44/60
f 24/43/61 3/36/62 16/35/63 23/44/64
f 16/34/65 2/33/66 25/9/67 23/12/68
f 27/45/69 10/21/70 28/20/71 26/46/72
f 28/20/73 5/25/74 29/24/75 26/46/76
f 29/47/77 7/17/78 30/13/79 26/16/80
f 32/18/81 8/2/82 17/1/83 31/19/84
f 17/1/85 3/36/86 24/43/87 31/19/88
f 24/43/89 4/41/90 20/39/91 31/19/92
f 20/39/93 12/38/94 33/48/95 31/19/96
f 33/48/97 11/14/98 30/13/99 31/19/100
f 35/22/101 9/6/102 22/5/103 34/23/104
f 22/5/105 1/10/106 25/9/107 34/23/108
f 25/9/109 2/33/110 15/31/111 34/23/112
f 15/31/113 6/30/114 36/26/115 34/23/116
f 36/26/117 5/25/118 28/20/119 34/23/120
f 36/26/121 6/30/122 14/29/123 37/27/124
f 14/3/125 8/2/126 32/18/127 37/49/128
f 32/18/129 7/17/130 29/47/131 37/49/132
f 35/22/133 10/21/134 27/45/135 38/28/136
f 27/15/137 11/14/138 33/48/139 38/50/140
f 33/48/141 12/38/142 19/37/143 38/50/144
