# This file uses centimeters as units for non-parametric coordinates.

mtllib paredroca12.mtl
g default
v 8.413546 1.025100 16.996420
v 8.413359 1.071068 16.962945
v 8.131749 1.025100 16.997991
v 8.131562 1.071068 16.964516
v 8.412933 1.071068 15.901204
v 8.412746 1.025100 15.867729
v 8.168076 1.025100 15.710332
v 8.124761 1.071068 15.744052
v 8.413359 0.146130 16.962945
v 8.413546 0.192098 16.996420
v 8.131749 0.192098 16.997991
v 8.131562 0.146130 16.964516
v 8.417608 0.193579 15.580823
v 8.406557 0.146130 15.742481
v 8.168263 0.146130 15.743809
v 8.168076 0.192098 15.710332
v 8.275435 1.071068 16.512222
v 8.272460 1.071068 16.963730
v 8.416334 1.071068 16.511437
v 8.272034 1.071068 15.901989
v 8.128162 1.071068 16.354283
v 8.269059 0.146130 16.353498
v 8.272460 0.146130 16.963730
v 8.128162 0.146130 16.354283
v 8.265658 0.146130 15.743266
v 8.409958 0.146130 16.352713
v 8.320947 0.610399 15.572072
v 8.321087 0.194041 15.562882
v 8.168076 0.608599 15.710332
v 8.308974 1.025100 15.709547
v 8.407082 0.605014 15.748394
v 8.170878 0.608599 16.995139
v 8.272647 0.192098 16.997206
v 8.309694 0.608599 16.994311
v 8.272647 1.025100 16.997206
v 8.032537 0.608599 16.995976
v 8.171664 0.608599 16.354041
v 8.131656 1.048084 16.981253
v 8.168170 1.048084 15.727071
v 8.168170 0.169114 15.727071
v 8.131656 0.169114 16.981253
v 8.342838 0.585121 16.387798
v 8.413452 0.169114 16.979683
v 8.415946 0.170086 15.596942
v 8.412840 1.048084 15.884466
v 8.413452 1.048084 16.979683
v 8.272554 1.048084 16.980468
v 8.309067 1.048084 15.726285
v 8.272554 0.169114 16.980468
v 8.309067 0.169114 15.726285
vt 0.106849 0.632054
vt 0.027464 0.634637
vt 0.025398 0.629685
vt 0.106839 0.626392
vt 0.298080 0.514793
vt 0.219454 0.518189
vt 0.217310 0.513274
vt 0.298040 0.509121
vt 0.385513 0.559948
vt 0.381418 0.521043
vt 0.386034 0.518573
vt 0.391260 0.559896
vt 0.020661 0.677961
vt 0.023220 0.717075
vt 0.018536 0.719715
vt 0.015080 0.677960
vt 0.023231 0.638848
vt 0.025311 0.636718
vt 0.106994 0.677972
vt 0.210874 0.561536
vt 0.215338 0.522464
vt 0.217353 0.520301
vt 0.298297 0.560742
vt 0.211360 0.602842
vt 0.216047 0.600522
vt 0.218101 0.602647
vt 0.214350 0.606618
vt 0.380096 0.608112
vt 0.377962 0.603188
vt 0.380083 0.601078
vt 0.383854 0.605041
vt 0.213530 0.516399
vt 0.379336 0.518924
vt 0.383034 0.514893
vt 0.218186 0.609674
vt 0.220241 0.604720
vt 0.298915 0.606688
vt 0.298979 0.612359
vt 0.188026 0.629860
vt 0.185949 0.634800
vt 0.025386 0.726239
vt 0.027452 0.721287
vt 0.106837 0.723890
vt 0.106826 0.729552
vt 0.185937 0.721165
vt 0.188013 0.726105
vt 0.379220 0.511891
vt 0.377177 0.516854
vt 0.194772 0.719367
vt 0.190143 0.716938
vt 0.193927 0.677983
vt 0.199666 0.677984
vt 0.190153 0.639027
vt 0.194783 0.636600
vt 0.386787 0.601307
vt 0.382127 0.598921
vt 0.210610 0.520229
vt 0.205401 0.561586
vt 0.018547 0.636207
vt 0.188090 0.636889
vt 0.188079 0.719076
vt 0.025300 0.719205
vt 0.021590 0.632638
vt 0.191814 0.632895
vt 0.021578 0.723285
vt 0.191802 0.723071
vn -0.000002 1.000000 0.000000
vn -0.000002 1.000000 0.000000
vn -0.000002 1.000000 0.000000
vn -0.000002 1.000000 0.000000
vn 0.000000 -1.000000 -0.000000
vn 0.000000 -1.000000 -0.000000
vn 0.000000 -1.000000 -0.000000
vn 0.000000 -1.000000 -0.000000
vn 0.722215 0.153325 -0.674460
vn 0.722215 0.153325 -0.674460
vn 0.722215 0.153325 -0.674460
vn 0.722215 0.153325 -0.674460
vn 0.005810 0.006301 0.999963
vn 0.005810 0.006301 0.999963
vn 0.005810 0.006301 0.999963
vn 0.005810 0.006301 0.999963
vn -0.958165 0.209568 -0.194938
vn -0.958165 0.209568 -0.194938
vn -0.958165 0.209568 -0.194938
vn -0.958165 0.209568 -0.194938
vn 0.972920 0.228545 0.034554
vn 0.972920 0.228545 0.034554
vn 0.972920 0.228545 0.034554
vn 0.972920 0.228545 0.034554
vn 0.004505 0.588690 0.808346
vn 0.004505 0.588690 0.808346
vn 0.004505 0.588690 0.808346
vn 0.004505 0.588690 0.808346
vn 0.132597 0.969500 -0.206124
vn 0.132597 0.969500 -0.206124
vn 0.132597 0.969500 -0.206124
vn 0.132597 0.969500 -0.206124
vn 0.004505 -0.588698 0.808341
vn 0.004505 -0.588698 0.808341
vn 0.004505 -0.588698 0.808341
vn 0.004505 -0.588698 0.808341
vn -0.144358 -0.952563 -0.267926
vn -0.144358 -0.952563 -0.267926
vn -0.144358 -0.952563 -0.267926
vn -0.144358 -0.952563 -0.267926
vn 0.000000 1.000000 0.000000
vn 0.000000 1.000000 0.000000
vn 0.000000 1.000000 0.000000
vn 0.000000 1.000000 0.000000
vn 0.000000 1.000000 0.000000
vn 0.000000 1.000000 0.000000
vn 0.000000 1.000000 0.000000
vn 0.000000 1.000000 0.000000
vn 0.000000 1.000000 0.000000
vn 0.000000 1.000000 0.000000
vn 0.000000 1.000000 0.000000
vn 0.000000 1.000000 0.000000
vn 0.000000 -1.000000 -0.000000
vn 0.000000 -1.000000 -0.000000
vn 0.000000 -1.000000 -0.000000
vn 0.000000 -1.000000 -0.000000
vn 0.000000 -1.000000 -0.000000
vn 0.000000 -1.000000 -0.000000
vn 0.000000 -1.000000 -0.000000
vn 0.000000 -1.000000 -0.000000
vn 0.000000 -1.000000 -0.000000
vn 0.000000 -1.000000 -0.000000
vn 0.000000 -1.000000 -0.000000
vn 0.000000 -1.000000 -0.000000
vn -0.682630 0.007948 -0.730721
vn -0.682630 0.007948 -0.730721
vn -0.682630 0.007948 -0.730721
vn -0.682630 0.007948 -0.730721
vn -0.424201 0.141816 -0.894395
vn -0.424201 0.141816 -0.894395
vn -0.424201 0.141816 -0.894395
vn -0.424201 0.141816 -0.894395
vn 0.860064 0.155940 -0.485771
vn 0.860064 0.155940 -0.485771
vn 0.860063 0.155940 -0.485771
vn 0.860063 0.155940 -0.485771
vn 0.005766 0.006437 0.999963
vn 0.005766 0.006437 0.999963
vn 0.005766 0.006437 0.999963
vn 0.005766 0.006437 0.999963
vn 0.005766 -0.006437 0.999963
vn 0.005766 -0.006437 0.999963
vn 0.005766 -0.006437 0.999963
vn 0.005766 -0.006437 0.999963
vn 0.005810 -0.006301 0.999963
vn 0.005810 -0.006301 0.999963
vn 0.005810 -0.006301 0.999963
vn 0.005810 -0.006301 0.999963
vn -0.995996 -0.089367 0.002275
vn -0.995996 -0.089367 0.002275
vn -0.995996 -0.089367 0.002275
vn -0.995996 -0.089367 0.002275
vn -0.983131 -0.174012 -0.056334
vn -0.983131 -0.174012 -0.056334
vn -0.983131 -0.174012 -0.056334
vn -0.983131 -0.174012 -0.056334
vn -0.999985 0.000000 0.005573
vn -0.999985 0.000000 0.005573
vn -0.999985 0.000000 0.005573
vn -0.999985 0.000000 0.005573
vn -0.999985 0.000000 0.005573
vn -0.999985 0.000000 0.005573
vn -0.999985 0.000000 0.005573
vn -0.999985 0.000000 0.005573
vn -0.994401 0.086811 -0.060249
vn -0.994401 0.086812 -0.060249
vn -0.994401 0.086812 -0.060249
vn -0.994401 0.086812 -0.060249
vn -0.995996 0.089367 0.002275
vn -0.995996 0.089367 0.002275
vn -0.995996 0.089367 0.002275
vn -0.995996 0.089367 0.002275
vn -0.958166 -0.209567 -0.194937
vn -0.958166 -0.209567 -0.194937
vn -0.958166 -0.209567 -0.194937
vn -0.958166 -0.209567 -0.194937
vn 0.989407 0.144766 -0.010821
vn 0.989407 0.144766 -0.010821
vn 0.989407 0.144766 -0.010821
vn 0.989407 0.144766 -0.010821
vn 0.991892 0.126525 0.011869
vn 0.991892 0.126525 0.011869
vn 0.991892 0.126525 0.011869
vn 0.991892 0.126525 0.011869
vn 0.994976 -0.014229 0.099094
vn 0.994976 -0.014229 0.099094
vn 0.994976 -0.014229 0.099094
vn 0.994976 -0.014229 0.099094
vn 0.994321 -0.042839 0.097416
vn 0.994321 -0.042839 0.097416
vn 0.994321 -0.042839 0.097416
vn 0.994321 -0.042839 0.097416
vn 0.989718 -0.143034 -0.000273
vn 0.989718 -0.143034 -0.000273
vn 0.989718 -0.143034 -0.000273
vn 0.989718 -0.143034 -0.000273
vn 0.989785 -0.142566 -0.000906
vn 0.989785 -0.142566 -0.000906
vn 0.989785 -0.142566 -0.000906
vn 0.989785 -0.142566 -0.000906
vn 0.972325 -0.227833 0.051741
vn 0.972325 -0.227833 0.051741
vn 0.972325 -0.227833 0.051741
vn 0.972325 -0.227833 0.051741
vn 0.004505 0.588698 0.808341
vn 0.004505 0.588698 0.808341
vn 0.004505 0.588698 0.808341
vn 0.004505 0.588698 0.808341
vn 0.004505 0.588698 0.808341
vn 0.004505 0.588698 0.808341
vn 0.004505 0.588698 0.808341
vn 0.004505 0.588698 0.808341
vn 0.004505 0.588690 0.808346
vn 0.004505 0.588690 0.808346
vn 0.004505 0.588690 0.808346
vn 0.004505 0.588690 0.808346
vn 0.777378 0.368237 -0.509985
vn 0.777378 0.368237 -0.509985
vn 0.777378 0.368237 -0.509985
vn 0.777378 0.368237 -0.509985
vn -0.004505 0.588697 -0.808341
vn -0.004505 0.588697 -0.808341
vn -0.004505 0.588697 -0.808341
vn -0.004505 0.588697 -0.808341
vn 0.103466 0.976370 -0.189728
vn 0.103466 0.976370 -0.189728
vn 0.103466 0.976370 -0.189728
vn 0.103466 0.976370 -0.189728
vn 0.004505 -0.588690 0.808346
vn 0.004505 -0.588690 0.808346
vn 0.004505 -0.588690 0.808346
vn 0.004505 -0.588690 0.808346
vn 0.004505 -0.588690 0.808346
vn 0.004505 -0.588690 0.808346
vn 0.004505 -0.588690 0.808346
vn 0.004505 -0.588690 0.808346
vn 0.004505 -0.588698 0.808341
vn 0.004505 -0.588698 0.808341
vn 0.004505 -0.588698 0.808341
vn 0.004505 -0.588698 0.808341
vn -0.165997 -0.931717 -0.323030
vn -0.165997 -0.931717 -0.323030
vn -0.165997 -0.931717 -0.323030
vn -0.165997 -0.931717 -0.323030
vn -0.004505 -0.588710 -0.808332
vn -0.004505 -0.588710 -0.808332
vn -0.004505 -0.588710 -0.808332
vn -0.004505 -0.588710 -0.808332
vn -0.126209 -0.956568 -0.262770
vn -0.126209 -0.956568 -0.262770
vn -0.126209 -0.956568 -0.262770
vn -0.126209 -0.956568 -0.262770
s off
g polySurface254 polySurface242 group14
usemtl pared1:lambert5SG
f 21/1/1 4/2/2 18/3/3 17/4/4
f 26/5/5 9/6/6 23/7/7 22/8/8
f 31/9/9 13/10/10 28/11/11 27/12/12
f 36/13/13 11/14/14 33/15/15 32/16/16
f 36/13/17 3/17/18 38/18/19 37/19/20
f 34/20/21 10/21/22 43/22/23 42/23/24
f 35/24/25 1/25/26 46/26/27 47/27/28
f 20/28/29 5/29/30 45/30/31 48/31/32
f 23/7/33 9/6/34 43/22/35 49/32/36
f 28/11/37 13/10/38 44/33/39 50/34/40
f 18/35/41 2/36/42 19/37/43 17/38/44
f 19/37/45 5/29/46 20/28/47 17/38/48
f 20/39/49 8/40/50 21/1/51 17/4/52
f 23/41/53 12/42/54 24/43/55 22/44/56
f 24/43/57 15/45/58 25/46/59 22/44/60
f 25/47/61 14/48/62 26/5/63 22/8/64
f 28/49/65 16/50/66 29/51/67 27/52/68
f 29/51/69 7/53/70 30/54/71 27/52/72
f 30/55/73 6/56/74 31/9/75 27/12/76
f 33/57/77 10/21/78 34/20/79 32/58/80
f 34/20/81 1/25/82 35/24/83 32/58/84
f 35/59/85 3/17/86 36/13/87 32/16/88
f 38/18/89 4/2/90 21/1/91 37/19/92
f 21/1/93 8/40/94 39/60/95 37/19/96
f 39/60/97 7/53/98 29/51/99 37/19/100
f 29/51/101 16/50/102 40/61/103 37/19/104
f 40/61/105 15/45/106 24/43/107 37/19/108
f 24/43/109 12/42/110 41/62/111 37/19/112
f 41/62/113 11/14/114 36/13/115 37/19/116
f 43/22/117 9/6/118 26/5/119 42/23/120
f 26/5/121 14/48/122 44/33/123 42/23/124
f 44/33/125 13/10/126 31/9/127 42/23/128
f 31/9/129 6/56/130 45/30/131 42/23/132
f 45/30/133 5/29/134 19/37/135 42/23/136
f 19/37/137 2/36/138 46/26/139 42/23/140
f 46/26/141 1/25/142 34/20/143 42/23/144
f 46/26/145 2/36/146 18/35/147 47/27/148
f 18/3/149 4/2/150 38/18/151 47/63/152
f 38/18/153 3/17/154 35/59/155 47/63/156
f 45/30/157 6/56/158 30/55/159 48/31/160
f 30/54/161 7/53/162 39/60/163 48/64/164
f 39/60/165 8/40/166 20/39/167 48/64/168
f 43/22/169 10/21/170 33/57/171 49/32/172
f 33/15/173 11/14/174 41/62/175 49/65/176
f 41/62/177 12/42/178 23/41/179 49/65/180
f 44/33/181 14/48/182 25/47/183 50/34/184
f 25/46/185 15/45/186 40/61/187 50/66/188
f 40/61/189 16/50/190 28/49/191 50/66/192
