# This file uses centimeters as units for non-parametric coordinates.

mtllib verde encendido.mtl
g default
v 10.444062 1.407611 6.439669
v 11.024722 1.407611 6.449551
v 10.444062 1.657611 6.439669
v 11.024722 1.657611 6.449551
v 10.392264 1.657611 5.979091
v 11.092162 1.657611 5.991002
v 10.392264 1.407611 5.979091
v 11.092162 1.407611 5.991002
v 10.385556 1.657611 6.373238
v 11.085455 1.657611 6.385149
v 11.085455 1.407611 6.385149
v 10.385556 1.407611 6.373238
v 10.509506 1.407611 6.481159
v 10.511307 1.305232 6.375378
v 10.518014 1.407611 5.981231
v 10.518014 1.657611 5.981231
v 10.511307 1.759991 6.375378
v 10.509506 1.657611 6.481159
v 10.955579 1.305232 6.382939
v 10.953779 1.407611 6.488719
v 10.953779 1.657611 6.488719
v 10.955579 1.759991 6.382939
v 10.962287 1.657611 5.988792
v 10.962287 1.407611 5.988792
vt 0.211853 0.013941
vt 0.401718 0.013941
vt 0.211853 0.203806
vt 0.401718 0.203806
vt 0.211853 0.393672
vt 0.401718 0.393672
vt 0.211853 0.583537
vt 0.401718 0.583537
vt 0.211853 0.773402
vt 0.401718 0.773402
vt 0.591583 0.013941
vt 0.591583 0.203806
vt 0.021988 0.013941
vt 0.021988 0.203806
vt 0.171679 0.203806
vt 0.211853 0.243980
vt 0.401718 0.243980
vt 0.441892 0.203806
vt 0.401718 0.733228
vt 0.441892 0.013941
vt 0.171679 0.013941
vt 0.211853 0.733228
vt 0.245966 0.013941
vt 0.245966 0.773402
vt 0.245966 0.733228
vt 0.245966 0.583537
vt 0.245966 0.393672
vt 0.245966 0.243980
vt 0.245966 0.203806
vt 0.366486 0.733228
vt 0.366486 0.013941
vt 0.366486 0.773402
vt 0.366486 0.203806
vt 0.366486 0.243980
vt 0.366486 0.393672
vt 0.366486 0.583537
vn -0.095788 0.000000 0.995402
vn -0.095788 0.000000 0.995402
vn 0.061233 0.000000 0.998123
vn 0.061233 0.000000 0.998123
vn -0.083323 0.970621 -0.225728
vn -0.063784 0.997922 -0.009149
vn 0.063931 0.997929 -0.007115
vn 0.090337 0.970827 -0.222114
vn 0.017016 0.000000 -0.999855
vn 0.017016 0.000000 -0.999855
vn 0.017016 0.000000 -0.999855
vn 0.017016 0.000000 -0.999855
vn -0.063784 -0.997922 -0.009149
vn -0.083323 -0.970621 -0.225728
vn 0.090337 -0.970827 -0.222114
vn 0.063931 -0.997929 -0.007115
vn 0.989357 0.000000 0.145508
vn 0.989357 0.000000 0.145508
vn 0.999855 0.000000 0.017016
vn 0.999855 0.000000 0.017016
vn -0.999855 0.000000 -0.017016
vn -0.993735 0.000000 0.111759
vn -0.993735 0.000000 0.111759
vn -0.999855 0.000000 -0.017016
vn -0.071129 0.722419 0.687788
vn 0.047890 0.723139 0.689040
vn 0.727528 0.000000 0.686078
vn 0.727528 0.000000 0.686078
vn -0.071129 -0.722419 0.687788
vn 0.047890 -0.723139 0.689040
vn -0.750452 0.000000 0.660925
vn -0.750452 0.000000 0.660925
vn -0.404295 -0.914373 -0.021640
vn -0.486898 -0.670973 0.559218
vn -0.372202 -0.919592 -0.125766
vn 0.017016 0.000000 -0.999855
vn 0.017016 0.000000 -0.999855
vn -0.404295 0.914373 -0.021640
vn -0.372202 0.919592 -0.125766
vn -0.486898 0.670973 0.559218
vn -0.535433 0.000000 0.844577
vn -0.535433 0.000000 0.844577
vn 0.393361 -0.919344 -0.008542
vn 0.452957 -0.680589 0.575872
vn 0.483339 0.000000 0.875433
vn 0.483339 0.000000 0.875433
vn 0.452957 0.680589 0.575872
vn 0.393361 0.919344 -0.008542
vn 0.365987 0.923644 -0.113730
vn 0.017016 0.000000 -0.999855
vn 0.017016 0.000000 -0.999855
vn 0.365987 -0.923644 -0.113730
s 1
g pCube113 group4
usemtl initialShadingGroup
f 18/29/1 13/23/2 20/31/3 21/33/4
s 2
f 16/27/5 17/28/6 22/34/7 23/35/8
s 3
f 15/26/9 16/27/10 23/35/11 24/36/12
s 4
f 14/25/13 15/26/14 24/36/15 19/30/16
s 5
f 10/18/17 11/20/18 8/11/19 6/12/20
s 6
f 7/13/21 12/21/22 9/15/23 5/14/24
s 2
f 17/28/6 18/29/25 21/33/26 22/34/7
s 5
f 2/2/27 11/20/18 10/18/17 4/4/28
s 4
f 13/24/29 14/25/13 19/30/16 20/32/30
s 6
f 9/15/23 12/21/22 1/1/31 3/3/32
s 4
f 12/22/33 14/25/13 13/24/29 1/9/34
f 7/7/35 15/26/14 14/25/13 12/22/33
s 3
f 5/5/36 16/27/10 15/26/9 7/7/37
s 2
f 9/16/38 17/28/6 16/27/5 5/5/39
f 3/3/40 18/29/25 17/28/6 9/16/38
s 1
f 1/1/41 13/23/2 18/29/1 3/3/42
s 4
f 20/32/30 19/30/16 11/19/43 2/10/44
s 1
f 21/33/4 20/31/3 2/2/45 4/4/46
s 2
f 22/34/7 21/33/26 4/4/47 10/17/48
f 23/35/8 22/34/7 10/17/48 6/6/49
s 3
f 24/36/12 23/35/11 6/6/50 8/8/51
s 4
f 19/30/16 24/36/15 8/8/52 11/19/43
