# This file uses centimeters as units for non-parametric coordinates.

mtllib cañon de pistola.mtl
g default
v -15.925060 1.606850 18.652509
v -15.985522 1.631894 18.652509
v -16.045984 1.606850 18.652509
v -16.071028 1.546387 18.652509
v -16.045984 1.485925 18.652509
v -15.985522 1.460881 18.652509
v -15.925060 1.485925 18.652509
v -15.900016 1.546387 18.652509
v -15.864598 1.667312 18.652509
v -15.985522 1.717400 18.652509
v -16.106446 1.667312 18.652509
v -16.156535 1.546387 18.652509
v -16.106446 1.425463 18.652509
v -15.985522 1.375375 18.652509
v -15.864598 1.425463 18.652509
v -15.814510 1.546387 18.652509
v -15.833288 1.698622 19.717554
v -15.985522 1.761679 19.717554
v -16.137757 1.698622 19.717554
v -16.200814 1.546387 19.717554
v -16.137757 1.394153 19.717554
v -15.985522 1.331096 19.717554
v -15.833288 1.394153 19.717554
v -15.770231 1.546387 19.717554
v -15.909405 1.622505 19.717554
v -15.985522 1.654033 19.717554
v -16.061639 1.622505 19.717554
v -16.093168 1.546387 19.717554
v -16.061639 1.470270 19.717554
v -15.985522 1.438741 19.717554
v -15.909405 1.470270 19.717554
v -15.877877 1.546387 19.717554
v -15.985522 1.546387 18.652509
v -15.985522 1.631894 19.430980
v -15.925060 1.485925 19.430980
v -15.900016 1.546387 19.430980
v -15.925060 1.606850 19.430980
v -16.045984 1.606850 19.430980
v -16.071028 1.546387 19.430980
v -16.045984 1.485925 19.430980
v -15.985522 1.460881 19.430980
v -15.864598 1.667312 19.385908
v -15.985522 1.717400 19.385908
v -16.106446 1.667312 19.385908
v -16.156535 1.546387 19.385908
v -16.106446 1.425463 19.385908
v -15.985522 1.375375 19.385908
v -15.864598 1.425463 19.385908
v -15.814510 1.546387 19.385908
v -15.864598 1.667312 19.045495
v -15.985522 1.717415 19.045495
v -16.106446 1.667327 19.045495
v -16.156535 1.546387 19.045495
v -16.106446 1.425463 19.045495
v -15.985522 1.375375 19.045495
v -15.864598 1.425463 19.045495
v -15.814510 1.546387 19.045495
v -15.864598 1.667312 18.955927
v -15.985522 1.717400 18.955927
v -16.106446 1.667312 18.955927
v -16.156535 1.546387 18.955927
v -16.106446 1.425463 18.955927
v -15.985522 1.375375 18.955927
v -15.864598 1.425463 18.955927
v -15.814510 1.546387 18.955927
v -15.920031 1.815207 18.981427
v -15.972101 1.836775 18.981427
v -15.972101 1.836775 19.019995
v -15.920031 1.815207 19.019995
v -15.999092 1.836775 18.981427
v -16.051162 1.815207 18.981427
v -16.051162 1.815214 19.019995
v -15.999092 1.836782 19.019995
v -16.014369 1.351523 18.955927
v -15.987498 1.301435 18.955927
v -15.987498 1.301435 19.045495
v -16.014369 1.351523 19.045495
v -15.960626 1.351523 18.955927
v -15.960626 1.351523 19.045495
v -16.015498 1.248079 18.945665
v -15.986847 1.236950 18.926073
v -15.988142 1.180213 18.995151
v -16.014254 1.191341 19.014743
v -15.963288 1.246793 18.969478
v -15.962043 1.190730 19.038557
v -16.014369 1.226173 18.761681
v -15.987498 1.176085 18.761681
v -15.990037 1.176085 18.851248
v -16.014369 1.226173 18.851248
v -15.960626 1.185677 18.761681
v -15.960626 1.186351 18.851248
vt 0.055703 0.103166
vt 0.070222 0.094270
vt 0.088219 0.107347
vt 0.059183 0.125139
vt 0.074197 0.077713
vt 0.096170 0.074234
vt 0.065301 0.063195
vt 0.078378 0.045197
vt 0.048744 0.059219
vt 0.045265 0.037246
vt 0.034226 0.068115
vt 0.016228 0.055038
vt 0.030250 0.084672
vt 0.008277 0.088152
vt 0.039147 0.099190
vt 0.026069 0.117188
vt 0.824235 0.829988
vt 0.877805 0.825017
vt 0.907174 0.956531
vt 0.841107 0.966456
vt 0.362529 0.755086
vt 0.361107 0.701712
vt 0.496900 0.705277
vt 0.493831 0.770788
vt 0.357430 0.648178
vt 0.495183 0.640752
vt 0.352719 0.595247
vt 0.489575 0.576172
vt 0.347281 0.542100
vt 0.478862 0.510531
vt 0.663747 0.834118
vt 0.716689 0.834154
vt 0.710612 0.970945
vt 0.644950 0.966268
vt 0.770400 0.832855
vt 0.775742 0.970820
vt 0.227160 0.171413
vt 0.163781 0.176998
vt 0.174702 0.143063
vt 0.210901 0.139708
vt 0.115038 0.136235
vt 0.146757 0.119983
vt 0.109429 0.072764
vt 0.143336 0.083712
vt 0.150397 0.023907
vt 0.166606 0.055635
vt 0.213819 0.018409
vt 0.202881 0.052336
vt 0.262430 0.059138
vt 0.230694 0.075401
vt 0.268105 0.122534
vt 0.234190 0.111615
vt 0.052224 0.081193
vt 0.180072 0.115441
vt 0.207772 0.091346
vt 0.207404 0.106802
vt 0.195611 0.116731
vt 0.168741 0.104312
vt 0.169607 0.088418
vt 0.181530 0.078209
vt 0.196509 0.080475
vt 0.816880 0.691492
vt 0.873781 0.693882
vt 0.235608 0.768220
vt 0.225169 0.711015
vt 0.216425 0.657476
vt 0.208375 0.603234
vt 0.212299 0.551300
vt 0.654997 0.702581
vt 0.708165 0.691872
vt 0.762729 0.690934
vt 0.850369 0.662858
vt 0.864163 0.665229
vt 0.858754 0.672255
vt 0.846517 0.674518
vt 0.206113 0.754381
vt 0.204356 0.742977
vt 0.215740 0.747979
vt 0.212171 0.759652
vt 0.184681 0.717351
vt 0.178488 0.663127
vt 0.169466 0.608702
vt 0.121619 0.464952
vt 0.105017 0.455751
vt 0.144977 0.459760
vt 0.136122 0.482510
vt 0.564897 0.628954
vt 0.568724 0.636438
vt 0.573537 0.646257
vt 0.561552 0.649017
vt 0.707073 0.651901
vt 0.761894 0.652285
vt 0.815934 0.649688
vt 0.818075 0.527190
vt 0.870616 0.526128
vt 0.873836 0.644159
vt 0.072140 0.794014
vt 0.064695 0.741390
vt 0.188414 0.774411
vt 0.056886 0.690641
vt 0.046725 0.641086
vt 0.032418 0.592957
vt 0.147160 0.559346
vt 0.663321 0.519507
vt 0.715783 0.525092
vt 0.654777 0.640720
vt 0.766489 0.527563
vt 0.147191 0.535979
vt 0.160689 0.556353
vt 0.198745 0.553356
vt 0.202853 0.530051
vt 0.654839 0.652624
vt 0.630954 0.645118
vt 0.655600 0.690824
vt 0.632266 0.698366
vt 0.137061 0.510843
vt 0.153488 0.511559
vt 0.182473 0.500595
vt 0.186871 0.488276
vt 0.613711 0.657399
vt 0.603130 0.642889
vt 0.603068 0.683892
vt 0.586335 0.685903
vn 0.000001 0.000000 -1.000000
vn 0.000000 0.000000 -1.000000
vn 0.000001 0.000000 -1.000000
vn 0.000001 0.000000 -1.000000
vn -0.000001 0.000000 -1.000000
vn 0.000000 0.000000 -1.000000
vn 0.000000 0.000000 -1.000000
vn 0.000000 0.000000 -1.000000
vn -0.000001 0.000000 -1.000000
vn -0.000001 0.000000 -1.000000
vn 0.000002 0.000000 -1.000000
vn 0.000001 0.000000 -1.000000
vn 0.000002 0.000000 -1.000000
vn 0.000001 0.000000 -1.000000
vn -0.000001 0.000000 -1.000000
vn -0.000001 0.000000 -1.000000
vn 0.381885 0.921890 -0.065447
vn 0.381885 0.921890 -0.065447
vn 0.379804 0.916931 -0.122423
vn 0.379804 0.916931 -0.122423
vn -0.381861 0.921900 -0.065438
vn -0.381861 0.921900 -0.065438
vn -0.379803 0.916931 -0.122422
vn -0.379803 0.916931 -0.122422
vn -0.921903 0.381852 -0.065451
vn -0.921903 0.381852 -0.065452
vn -0.916931 0.379803 -0.122423
vn -0.916931 0.379803 -0.122423
vn -0.921898 -0.381862 -0.065458
vn -0.921898 -0.381862 -0.065458
vn -0.916931 -0.379804 -0.122423
vn -0.916931 -0.379804 -0.122423
vn -0.381861 -0.921899 -0.065458
vn -0.381861 -0.921899 -0.065458
vn -0.379803 -0.916931 -0.122423
vn -0.379803 -0.916931 -0.122423
vn 0.381861 -0.921899 -0.065458
vn 0.381861 -0.921899 -0.065458
vn 0.379804 -0.916931 -0.122423
vn 0.379804 -0.916931 -0.122423
vn 0.921898 -0.381862 -0.065458
vn 0.921898 -0.381862 -0.065458
vn 0.916931 -0.379804 -0.122423
vn 0.916931 -0.379804 -0.122423
vn 0.921898 0.381862 -0.065458
vn 0.921898 0.381862 -0.065458
vn 0.916931 0.379803 -0.122423
vn 0.916931 0.379803 -0.122423
vn 0.000000 0.000000 1.000000
vn -0.000002 0.000000 1.000000
vn -0.000002 0.000000 1.000000
vn 0.000000 0.000000 1.000000
vn -0.000002 0.000000 1.000000
vn -0.000002 0.000000 1.000000
vn -0.000002 0.000000 1.000000
vn -0.000002 0.000000 1.000000
vn -0.000000 0.000000 1.000000
vn -0.000000 0.000000 1.000000
vn 0.000002 0.000000 1.000000
vn 0.000002 0.000000 1.000000
vn 0.000002 0.000000 1.000000
vn 0.000002 0.000000 1.000000
vn 0.000002 0.000000 1.000000
vn 0.000002 0.000000 1.000000
vn -0.000000 0.000000 -1.000000
vn 0.000005 0.000000 1.000000
vn 0.000005 0.000000 1.000000
vn 0.000008 0.000000 1.000000
vn 0.000008 0.000000 1.000000
vn 0.000003 0.000000 1.000000
vn 0.000000 0.000000 1.000000
vn 0.000000 0.000000 1.000000
vn 0.000003 0.000000 1.000000
vn -0.921537 0.381708 0.071194
vn -0.921537 0.381708 0.071194
vn -0.921537 0.381708 0.071194
vn -0.921537 0.381708 0.071194
vn -0.921537 -0.381708 0.071195
vn -0.921537 -0.381708 0.071195
vn -0.921537 -0.381708 0.071195
vn -0.921537 -0.381708 0.071195
vn -0.381713 -0.921535 0.071195
vn -0.381713 -0.921535 0.071195
vn -0.381713 -0.921535 0.071195
vn -0.381713 -0.921535 0.071195
vn 0.921534 -0.381714 0.071194
vn 0.921534 -0.381714 0.071194
vn 0.921534 -0.381714 0.071194
vn 0.921534 -0.381714 0.071194
vn 0.921534 0.381714 0.071194
vn 0.921534 0.381714 0.071194
vn 0.921534 0.381714 0.071194
vn 0.921534 0.381714 0.071194
vn 0.381713 0.921535 0.071194
vn 0.381713 0.921535 0.071194
vn 0.381713 0.921535 0.071194
vn 0.381713 0.921535 0.071194
vn -0.381713 0.921535 0.071195
vn -0.381713 0.921535 0.071195
vn -0.381713 0.921535 0.071195
vn -0.381713 0.921535 0.071195
vn 0.381713 -0.921535 0.071194
vn 0.381713 -0.921535 0.071194
vn 0.381713 -0.921535 0.071194
vn 0.381713 -0.921535 0.071194
vn 0.382732 0.923859 0.000021
vn 0.382732 0.923859 0.000021
vn -0.382682 0.923880 0.000043
vn -0.382682 0.923880 0.000043
vn -0.923888 0.382663 0.000000
vn -0.923888 0.382663 -0.000000
vn -0.923879 -0.382684 0.000000
vn -0.923879 -0.382684 0.000000
vn -0.382682 -0.923880 0.000000
vn -0.382682 -0.923880 0.000000
vn 0.382681 -0.923881 0.000000
vn 0.382681 -0.923881 0.000000
vn 0.923879 -0.382684 0.000000
vn 0.923879 -0.382684 0.000000
vn 0.923879 0.382684 0.000000
vn 0.923879 0.382684 0.000000
vn 0.382682 0.923880 0.000000
vn 0.382682 0.923880 0.000000
vn 0.382682 0.923880 0.000000
vn 0.382682 0.923880 0.000000
vn -0.382681 0.923880 -0.000162
vn -0.382681 0.923880 -0.000162
vn -0.382681 0.923880 -0.000162
vn -0.382681 0.923880 -0.000162
vn -0.923880 0.382682 -0.000008
vn -0.923880 0.382682 -0.000008
vn -0.923878 -0.382686 0.000000
vn -0.923878 -0.382686 0.000000
vn -0.890352 -0.455098 -0.012624
vn -0.890352 -0.455098 -0.012624
vn -0.890352 -0.455098 -0.012624
vn -0.890352 -0.455098 -0.012624
vn 0.332693 -0.942999 0.008269
vn 0.332693 -0.942999 0.008269
vn 0.332693 -0.942999 0.008269
vn 0.332693 -0.942999 0.008269
vn 0.923880 -0.382683 0.000000
vn 0.923880 -0.382683 0.000000
vn 0.923880 0.382684 0.000000
vn 0.923880 0.382684 0.000000
vn 0.382682 0.923880 0.000000
vn 0.382682 0.923880 0.000000
vn 0.382682 0.923880 0.000000
vn 0.382682 0.923880 0.000000
vn -0.382682 0.923880 0.000000
vn -0.382682 0.923880 0.000000
vn -0.382682 0.923880 0.000000
vn -0.382682 0.923880 0.000000
vn -0.923878 0.382687 0.000000
vn -0.923878 0.382687 0.000000
vn -0.923878 -0.382686 0.000000
vn -0.923878 -0.382686 0.000000
vn -0.382681 -0.923881 0.000000
vn -0.382681 -0.923881 0.000000
vn -0.382681 -0.923881 0.000000
vn -0.382681 -0.923881 0.000000
vn 0.382681 -0.923880 0.000000
vn 0.382681 -0.923880 0.000000
vn 0.382681 -0.923880 0.000000
vn 0.382681 -0.923880 0.000000
vn 0.923880 -0.382683 0.000000
vn 0.923880 -0.382683 0.000000
vn 0.923880 0.382683 0.000000
vn 0.923880 0.382683 0.000000
vn 0.082547 0.199297 -0.976456
vn 0.082547 0.199297 -0.976456
vn 0.082547 0.199297 -0.976456
vn 0.082547 0.199297 -0.976456
vn -0.993738 0.111732 -0.000014
vn -0.993738 0.111732 -0.000014
vn -0.993738 0.111732 -0.000014
vn -0.993738 0.111732 -0.000014
vn 0.082574 0.199312 0.976451
vn 0.082574 0.199312 0.976451
vn 0.082574 0.199312 0.976451
vn 0.082574 0.199312 0.976451
vn 0.936387 0.350968 0.000000
vn 0.936387 0.350968 0.000000
vn 0.936387 0.350968 0.000000
vn 0.936387 0.350968 0.000000
vn -0.082512 0.199202 -0.976479
vn -0.082512 0.199202 -0.976479
vn -0.082512 0.199202 -0.976479
vn -0.082512 0.199202 -0.976479
vn -0.936694 0.350149 -0.000061
vn -0.936694 0.350149 -0.000061
vn -0.936694 0.350149 -0.000061
vn -0.936694 0.350149 -0.000061
vn -0.082521 0.199216 0.976475
vn -0.082521 0.199216 0.976475
vn -0.082521 0.199216 0.976475
vn -0.082521 0.199216 0.976475
vn 0.993600 0.112958 -0.000020
vn 0.993600 0.112958 -0.000020
vn 0.993600 0.112958 -0.000020
vn 0.993600 0.112958 -0.000020
vn 0.000000 0.000000 -1.000000
vn 0.000000 0.000000 -1.000000
vn 0.000000 0.000000 -1.000000
vn 0.000000 0.000000 -1.000000
vn 0.000000 0.000000 1.000000
vn 0.000000 0.000000 1.000000
vn 0.000000 0.000000 1.000000
vn 0.000000 0.000000 1.000000
vn -0.626132 -0.779717 0.000000
vn -0.626132 -0.779717 0.000000
vn -0.626132 -0.779717 0.000000
vn -0.626132 -0.779717 0.000000
vn 0.000000 0.000000 -1.000000
vn 0.000000 0.000000 -1.000000
vn 0.000000 0.000000 -1.000000
vn 0.000000 0.000000 -1.000000
vn 0.610089 -0.792333 0.000000
vn 0.610089 -0.792333 0.000000
vn 0.610089 -0.792333 0.000000
vn 0.610089 -0.792333 0.000000
vn 0.000013 0.000000 1.000000
vn 0.000013 0.000000 1.000000
vn 0.000013 0.000000 1.000000
vn 0.000013 0.000000 1.000000
vn -0.086457 0.231714 -0.968934
vn -0.086457 0.231714 -0.968934
vn -0.086457 0.231714 -0.968934
vn -0.086457 0.231714 -0.968934
vn 0.035272 -0.276804 0.960279
vn 0.035272 -0.276804 0.960279
vn 0.035272 -0.276804 0.960279
vn 0.035272 -0.276804 0.960279
vn -0.999959 0.002486 0.008733
vn -0.999959 0.002486 0.008733
vn -0.999959 0.002486 0.008733
vn -0.999959 0.002486 0.008733
vn 0.602061 0.069483 -0.795421
vn 0.602061 0.069483 -0.795421
vn 0.602061 0.069483 -0.795421
vn 0.602061 0.069483 -0.795421
vn 0.999787 -0.015696 -0.013389
vn 0.999787 -0.015696 -0.013389
vn 0.999787 -0.015696 -0.013389
vn 0.999787 -0.015696 -0.013389
vn -0.502137 -0.168606 0.848192
vn -0.502137 -0.168606 0.848192
vn -0.502137 -0.168606 0.848192
vn -0.502137 -0.168606 0.848192
vn 0.704225 0.690966 -0.163199
vn 0.704225 0.690966 -0.163199
vn 0.704225 0.690966 -0.163199
vn 0.704225 0.690966 -0.163199
vn -0.779387 -0.623924 -0.057222
vn -0.779388 -0.623924 -0.057222
vn -0.779387 -0.623924 -0.057222
vn -0.779387 -0.623924 -0.057222
vn -0.999428 -0.033553 -0.004164
vn -0.999428 -0.033553 -0.004164
vn -0.999428 -0.033553 -0.004164
vn -0.999428 -0.033553 -0.004164
vn -0.097215 0.945608 -0.310443
vn -0.097215 0.945608 -0.310443
vn -0.097215 0.945608 -0.310443
vn -0.097215 0.945608 -0.310443
vn 0.999368 0.035274 0.004474
vn 0.999368 0.035274 0.004474
vn 0.999368 0.035274 0.004474
vn 0.999368 0.035274 0.004474
vn 0.334218 -0.942198 0.023714
vn 0.334218 -0.942198 0.023714
vn 0.334218 -0.942198 0.023714
vn 0.334218 -0.942198 0.023714
s 1
g polySurface277 pCylinder14
usemtl initialShadingGroup
f 1/1/1 2/2/2 10/3/3 9/4/4
f 2/2/2 3/5/5 11/6/6 10/3/3
f 3/5/5 4/7/7 12/8/8 11/6/6
f 4/7/7 5/9/9 13/10/10 12/8/8
f 5/9/9 6/11/11 14/12/12 13/10/10
f 6/11/11 7/13/13 15/14/14 14/12/12
f 7/13/13 8/15/15 16/16/16 15/14/14
f 8/15/15 1/1/1 9/4/4 16/16/16
s 2
f 42/17/17 43/18/18 18/19/19 17/20/20
s 3
f 43/21/21 44/22/22 19/23/23 18/24/24
s 4
f 44/22/25 45/25/26 20/26/27 19/23/28
s 5
f 45/25/29 46/27/30 21/28/31 20/26/32
s 6
f 46/27/33 47/29/34 22/30/35 21/28/36
s 7
f 47/31/37 48/32/38 23/33/39 22/34/40
s 8
f 48/32/41 49/35/42 24/36/43 23/33/44
s 9
f 49/35/45 42/17/46 17/20/47 24/36/48
s 10
f 17/37/49 18/38/50 26/39/51 25/40/52
f 18/38/50 19/41/53 27/42/54 26/39/51
f 19/41/53 20/43/55 28/44/56 27/42/54
f 20/43/55 21/45/57 29/46/58 28/44/56
f 21/45/57 22/47/59 30/48/60 29/46/58
f 22/47/59 23/49/61 31/50/62 30/48/60
f 23/49/61 24/51/63 32/52/64 31/50/62
f 24/51/63 17/37/49 25/40/52 32/52/64
s 1
f 2/2/2 1/1/1 33/53/65
f 3/5/5 2/2/2 33/53/65
f 4/7/7 3/5/5 33/53/65
f 5/9/9 4/7/7 33/53/65
f 6/11/11 5/9/9 33/53/65
f 7/13/13 6/11/11 33/53/65
f 8/15/15 7/13/13 33/53/65
f 1/1/1 8/15/15 33/53/65
s 11
f 34/54/66 35/55/67 36/56/68 37/57/69
f 38/58/70 39/59/71 40/60/72 41/61/73
f 38/58/70 41/61/73 35/55/67 34/54/66
s off
f 31/50/74 32/52/75 36/56/76 35/55/77
f 32/52/78 25/40/79 37/57/80 36/56/81
f 25/40/82 26/39/83 34/54/84 37/57/85
f 27/42/86 28/44/87 39/59/88 38/58/89
f 28/44/90 29/46/91 40/60/92 39/59/93
f 29/46/94 30/48/95 41/61/96 40/60/97
f 30/48/98 31/50/99 35/55/100 41/61/101
f 26/39/102 27/42/103 38/58/104 34/54/105
s 2
f 50/62/106 51/63/107 43/18/18 42/17/17
s 3
f 51/64/108 52/65/109 44/22/22 43/21/21
s 4
f 52/65/110 53/66/111 45/25/26 44/22/25
s 5
f 53/66/112 54/67/113 46/27/30 45/25/29
s 6
f 54/67/114 55/68/115 47/29/34 46/27/33
s 7
f 55/69/116 56/70/117 48/32/38 47/31/37
s 8
f 56/70/118 57/71/119 49/35/42 48/32/41
s 9
f 57/71/120 50/62/121 42/17/46 49/35/45
s off
f 66/72/122 67/73/123 68/74/124 69/75/125
f 70/76/126 71/77/127 72/78/128 73/79/129
s 4
f 60/80/130 61/81/131 53/66/111 52/65/110
s 5
f 61/81/132 62/82/133 54/67/113 53/66/112
s off
f 86/83/134 87/84/135 88/85/136 89/86/137
f 87/87/138 90/88/139 91/89/140 88/90/141
s 8
f 64/91/142 65/92/143 57/71/119 56/70/118
s 9
f 65/92/144 58/93/145 50/62/121 57/71/120
s off
f 9/94/146 10/95/147 59/96/148 58/93/149
f 10/97/150 11/98/151 60/80/152 59/99/153
s 4
f 11/98/154 12/100/155 61/81/131 60/80/130
s 5
f 12/100/156 13/101/157 62/82/133 61/81/132
s off
f 13/101/158 14/102/159 63/103/160 62/82/161
f 14/104/162 15/105/163 64/91/164 63/106/165
s 8
f 15/105/166 16/107/167 65/92/143 64/91/142
s 9
f 16/107/168 9/94/169 58/93/145 65/92/144
s off
f 58/93/170 59/96/171 67/73/172 66/72/173
f 59/96/174 51/63/175 68/74/176 67/73/177
f 51/63/178 50/62/179 69/75/180 68/74/181
f 50/62/182 58/93/183 66/72/184 69/75/185
f 59/99/186 60/80/187 71/77/188 70/76/189
f 60/80/190 52/65/191 72/78/192 71/77/193
f 52/65/194 51/64/195 73/79/196 72/78/197
f 51/64/198 59/99/199 70/76/200 73/79/201
f 62/82/202 63/103/203 75/108/204 74/109/205
f 55/68/206 54/67/207 77/110/208 76/111/209
f 54/67/210 62/82/211 74/109/212 77/110/213
f 63/106/214 64/91/215 78/112/216 75/113/217
f 64/91/218 56/70/219 79/114/220 78/112/221
f 56/70/222 55/69/223 76/115/224 79/114/225
f 74/109/226 75/108/227 81/116/228 80/117/229
f 76/111/230 77/110/231 83/118/232 82/119/233
f 77/110/234 74/109/235 80/117/236 83/118/237
f 75/113/238 78/112/239 84/120/240 81/121/241
f 78/112/242 79/114/243 85/122/244 84/120/245
f 79/114/246 76/115/247 82/123/248 85/122/249
f 80/117/250 81/116/251 87/84/252 86/83/253
f 82/119/254 83/118/255 89/86/256 88/85/257
f 83/118/258 80/117/259 86/83/260 89/86/261
f 81/121/262 84/120/263 90/88/264 87/87/265
f 84/120/266 85/122/267 91/89/268 90/88/269
f 85/122/270 82/123/271 88/90/272 91/89/273
