# This file uses centimeters as units for non-parametric coordinates.

mtllib latig.mtl
g default
v -22.024666 1.021167 21.424534
v -22.100077 1.021167 21.393298
v -22.175487 1.021167 21.424534
v -22.206724 1.021167 21.499944
v -22.175487 1.021167 21.575355
v -22.100077 1.021167 21.606591
v -22.024666 1.021167 21.575355
v -21.993430 1.021167 21.499944
v -22.096198 8.462684 21.496066
v -22.100077 8.462684 21.494459
v -22.103955 8.462684 21.496066
v -22.105562 8.462684 21.499944
v -22.103955 8.462684 21.503823
v -22.100077 8.462684 21.505429
v -22.096198 8.462684 21.503823
v -22.094592 8.462684 21.499944
vt 0.139201 0.096789
vt 0.078042 0.162401
vt 0.081191 0.252041
vt 0.146802 0.313200
vt 0.236443 0.310051
vt 0.297601 0.244440
vt 0.294453 0.154799
vt 0.228841 0.093640
vt 0.342720 0.038895
vt 0.419457 0.038895
vt 0.496194 0.038895
vt 0.572931 0.038895
vt 0.649668 0.038895
vt 0.726404 0.038895
vt 0.803141 0.038895
vt 0.879878 0.038895
vt 0.956615 0.038895
vt 0.342720 0.962045
vt 0.419457 0.962045
vt 0.496194 0.962045
vt 0.572931 0.962045
vt 0.649668 0.962045
vt 0.726404 0.962045
vt 0.803141 0.962045
vt 0.879878 0.962045
vt 0.956615 0.962045
vt 0.310817 0.746162
vt 0.240026 0.673592
vt 0.138655 0.672334
vt 0.066085 0.743125
vt 0.064827 0.844496
vt 0.135617 0.917066
vt 0.236988 0.918324
vt 0.309558 0.847534
vn 0.382653 0.012558 -0.923807
vn 0.382653 0.012558 -0.923807
vn 0.382653 0.012558 -0.923807
vn 0.382653 0.012558 -0.923807
vn -0.382653 0.012558 -0.923807
vn -0.382653 0.012558 -0.923807
vn -0.382653 0.012558 -0.923807
vn -0.382653 0.012558 -0.923807
vn -0.923807 0.012558 -0.382653
vn -0.923807 0.012558 -0.382653
vn -0.923807 0.012558 -0.382653
vn -0.923807 0.012558 -0.382653
vn -0.923807 0.012558 0.382653
vn -0.923807 0.012558 0.382653
vn -0.923807 0.012558 0.382653
vn -0.923807 0.012558 0.382653
vn -0.382653 0.012558 0.923807
vn -0.382653 0.012558 0.923807
vn -0.382653 0.012558 0.923807
vn -0.382653 0.012558 0.923807
vn 0.382653 0.012558 0.923807
vn 0.382653 0.012558 0.923807
vn 0.382653 0.012558 0.923807
vn 0.382653 0.012558 0.923807
vn 0.923807 0.012558 0.382653
vn 0.923807 0.012558 0.382653
vn 0.923807 0.012558 0.382653
vn 0.923807 0.012558 0.382653
vn 0.923807 0.012558 -0.382653
vn 0.923807 0.012558 -0.382653
vn 0.923807 0.012558 -0.382653
vn 0.923807 0.012558 -0.382653
vn 0.000000 -1.000000 0.000002
vn 0.000000 -1.000000 0.000002
vn 0.000000 -1.000000 -0.000004
vn 0.000000 -1.000000 -0.000004
vn 0.000000 1.000000 0.000000
vn 0.000000 1.000000 0.000000
vn 0.000000 1.000000 0.000000
vn 0.000000 1.000000 0.000000
vn 0.000000 1.000000 0.000000
vn 0.000000 1.000000 0.000000
vn 0.000000 1.000000 0.000000
vn 0.000000 1.000000 0.000000
vn 0.000000 -1.000000 0.000003
vn 0.000000 -1.000000 0.000003
vn 0.000000 -1.000000 0.000000
vn 0.000000 -1.000000 0.000000
s off
g pCylinder13
usemtl initialShadingGroup
f 1/9/1 2/10/2 10/19/3 9/18/4
f 2/10/5 3/11/6 11/20/7 10/19/8
f 3/11/9 4/12/10 12/21/11 11/20/12
f 4/12/13 5/13/14 13/22/15 12/21/16
f 5/13/17 6/14/18 14/23/19 13/22/20
f 6/14/21 7/15/22 15/24/23 14/23/24
f 7/15/25 8/16/26 16/25/27 15/24/28
f 8/16/29 1/17/30 9/26/31 16/25/32
s 1
f 5/5/33 8/8/34 7/7/35 6/6/36
s 2
f 9/33/37 14/28/38 15/27/39 16/34/40
f 13/29/41 10/32/42 11/31/43 12/30/44
f 9/33/37 10/32/42 13/29/41 14/28/38
s 1
f 1/1/45 4/4/46 3/3/47 2/2/48
f 1/1/45 8/8/34 5/5/33 4/4/46
