# This file uses centimeters as units for non-parametric coordinates.

mtllib mango de pistola.mtl
g default
v -15.929523 1.106721 18.655095
v -15.979508 1.106721 18.625702
v -16.029493 1.106721 18.655095
v -16.050198 1.106721 18.726057
v -16.029493 1.072669 18.827666
v -15.979508 1.072669 18.857059
v -15.929523 1.072669 18.827666
v -15.908819 1.106721 18.726057
v -15.887148 1.119270 18.594937
v -15.979508 1.119270 18.533815
v -16.071869 1.119270 18.594937
v -16.110126 1.119270 18.726057
v -16.071869 1.119270 18.857177
v -15.979508 1.119270 18.911489
v -15.887148 1.119270 18.857177
v -15.848892 1.119270 18.726057
v -15.858834 1.233778 18.554740
v -15.979508 1.233778 18.524641
v -16.100183 1.233778 18.554740
v -16.127733 1.233778 18.726057
v -16.100183 1.233778 18.808837
v -15.979508 1.233778 18.879799
v -15.858834 1.233778 18.808837
v -15.838763 1.233778 18.726057
v -15.848892 1.368850 18.540625
v -15.979508 1.368850 18.523410
v -16.110126 1.368850 18.540625
v -16.141794 1.368850 18.726057
v -16.110126 1.368850 18.843384
v -15.979508 1.368850 18.988297
v -15.848892 1.368850 18.846789
v -15.824702 1.368850 18.726057
v -15.824321 1.503922 18.554740
v -15.979508 1.503922 18.533155
v -16.108812 1.503922 18.554740
v -16.157932 1.473274 18.726057
v -16.100183 1.503922 18.897374
v -15.979508 1.503922 18.968335
v -15.858834 1.503922 18.897374
v -15.823785 1.470070 18.726057
v -15.854792 1.618430 18.594937
v -15.979508 1.618430 18.540625
v -16.112853 1.618430 18.594937
v -16.168366 1.543515 18.722652
v -16.071869 1.618430 18.857177
v -15.979508 1.618430 18.911489
v -15.887148 1.618430 18.857177
v -15.803825 1.592274 18.726057
v -15.929523 1.718779 18.631259
v -15.979508 1.718779 18.601865
v -16.029493 1.718779 18.631259
v -16.119224 1.664743 18.726057
v -16.029493 1.694942 18.797018
v -15.979508 1.694942 18.826412
v -15.929523 1.694942 18.797018
v -15.861872 1.668805 18.726057
v -15.979508 1.098273 18.726057
v -15.979508 1.721809 18.726057
vt 0.798605 0.100388
vt 0.838016 0.074759
vt 0.894530 0.110864
vt 0.824325 0.144207
vt 0.377306 0.075737
vt 0.414007 0.104361
vt 0.387870 0.144822
vt 0.320425 0.107517
vt 0.468227 0.109814
vt 0.461320 0.158779
vt 0.549162 0.115619
vt 0.533581 0.154161
vt 0.605655 0.119005
vt 0.605211 0.149099
vt 0.662452 0.115199
vt 0.677141 0.152995
vt 0.744528 0.110748
vt 0.749367 0.156395
vt 0.927237 0.163773
vt 0.844370 0.197299
vt 0.366844 0.197733
vt 0.286139 0.158002
vt 0.454926 0.208011
vt 0.502911 0.206797
vt 0.604803 0.199899
vt 0.708164 0.204072
vt 0.755104 0.203458
vt 0.951302 0.234898
vt 0.855390 0.251654
vt 0.353632 0.251927
vt 0.259406 0.226098
vt 0.446797 0.265947
vt 0.505838 0.266254
vt 0.605194 0.273962
vt 0.704231 0.262240
vt 0.761683 0.260452
vt 0.955628 0.310596
vt 0.843784 0.306176
vt 0.351349 0.307512
vt 0.251293 0.298971
vt 0.441674 0.312397
vt 0.526693 0.326824
vt 0.606493 0.325418
vt 0.686743 0.321208
vt 0.765633 0.304859
vt 0.940259 0.370562
vt 0.840657 0.360326
vt 0.367490 0.359264
vt 0.257227 0.359767
vt 0.439573 0.343554
vt 0.532893 0.385298
vt 0.608863 0.377057
vt 0.685779 0.375902
vt 0.769246 0.357260
vt 0.908658 0.429982
vt 0.861542 0.425521
vt 0.329412 0.422363
vt 0.281801 0.421253
vt 0.443033 0.406402
vt 0.555133 0.440589
vt 0.612252 0.426950
vt 0.670099 0.428791
vt 0.763812 0.409330
vt 0.783943 0.046179
vt 0.432871 0.051194
vt 0.449041 0.053873
vt 0.497096 0.056045
vt 0.577365 0.046384
vt 0.635226 0.045986
vt 0.716981 0.056426
vt 0.755504 0.054220
vt 0.868507 0.492746
vt 0.313731 0.488336
vt 0.344978 0.489082
vt 0.561443 0.501692
vt 0.620551 0.482531
vt 0.667786 0.488840
vt 0.832189 0.489130
vn 0.087955 -0.986475 -0.138317
vn 0.087955 -0.986475 -0.138317
vn 0.087955 -0.986475 -0.138317
vn 0.087955 -0.986475 -0.138317
vn -0.087954 -0.986475 -0.138316
vn -0.087954 -0.986475 -0.138316
vn -0.087954 -0.986475 -0.138316
vn -0.087954 -0.986475 -0.138316
vn -0.204584 -0.977027 -0.059691
vn -0.204584 -0.977027 -0.059691
vn -0.204584 -0.977027 -0.059691
vn -0.204584 -0.977027 -0.059691
vn -0.500511 -0.865730 0.000129
vn -0.500511 -0.865730 0.000129
vn -0.500511 -0.865730 0.000129
vn -0.500511 -0.865730 0.000129
vn -0.357201 -0.709513 0.607452
vn -0.357201 -0.709513 0.607452
vn -0.357201 -0.709513 0.607452
vn -0.357201 -0.709513 0.607452
vn 0.357206 -0.709506 0.607458
vn 0.357206 -0.709506 0.607458
vn 0.357206 -0.709506 0.607458
vn 0.357206 -0.709506 0.607458
vn 0.500515 -0.865728 0.000129
vn 0.500515 -0.865728 0.000129
vn 0.500515 -0.865728 0.000129
vn 0.500515 -0.865728 0.000129
vn 0.204586 -0.977027 -0.059691
vn 0.204586 -0.977027 -0.059691
vn 0.204586 -0.977027 -0.059691
vn 0.204586 -0.977027 -0.059691
vn 0.382165 -0.239640 -0.892481
vn 0.382165 -0.239640 -0.892481
vn 0.382165 -0.239640 -0.892481
vn 0.382165 -0.239640 -0.892481
vn -0.382162 -0.239640 -0.892483
vn -0.382161 -0.239640 -0.892483
vn -0.382162 -0.239640 -0.892483
vn -0.382161 -0.239640 -0.892483
vn -0.951594 -0.227152 -0.207055
vn -0.951594 -0.227152 -0.207055
vn -0.951594 -0.227152 -0.207055
vn -0.951594 -0.227152 -0.207055
vn -0.947865 -0.128513 0.291610
vn -0.947865 -0.128512 0.291610
vn -0.947865 -0.128513 0.291610
vn -0.947865 -0.128512 0.291610
vn -0.493055 0.232050 0.838480
vn -0.493055 0.232050 0.838480
vn -0.493055 0.232050 0.838480
vn -0.493055 0.232050 0.838480
vn 0.493060 0.232047 0.838479
vn 0.493060 0.232047 0.838479
vn 0.493060 0.232047 0.838479
vn 0.493060 0.232047 0.838479
vn 0.959358 -0.105819 0.261601
vn 0.959358 -0.105819 0.261601
vn 0.959358 -0.105819 0.261601
vn 0.959358 -0.105819 0.261601
vn 0.963196 -0.194287 -0.185760
vn 0.963196 -0.194287 -0.185760
vn 0.963196 -0.194287 -0.185760
vn 0.963196 -0.194287 -0.185760
vn 0.184671 -0.062516 -0.980810
vn 0.184671 -0.062516 -0.980810
vn 0.184671 -0.062516 -0.980810
vn 0.184671 -0.062516 -0.980810
vn -0.184669 -0.062516 -0.980810
vn -0.184669 -0.062516 -0.980810
vn -0.184669 -0.062516 -0.980810
vn -0.184669 -0.062516 -0.980810
vn -0.981966 -0.095771 -0.163003
vn -0.981966 -0.095771 -0.163003
vn -0.981966 -0.095771 -0.163003
vn -0.981966 -0.095771 -0.163003
vn -0.951893 -0.120604 0.281699
vn -0.951893 -0.120604 0.281699
vn -0.951893 -0.120604 0.281699
vn -0.951893 -0.120604 0.281699
vn -0.599577 -0.391637 0.697945
vn -0.599577 -0.391637 0.697945
vn -0.599577 -0.391637 0.697945
vn -0.599577 -0.391637 0.697945
vn 0.591471 -0.401003 0.699542
vn 0.591471 -0.401003 0.699542
vn 0.591471 -0.401003 0.699542
vn 0.591471 -0.401003 0.699542
vn 0.970574 -0.115891 0.211082
vn 0.970574 -0.115891 0.211082
vn 0.970574 -0.115891 0.211082
vn 0.970574 -0.115891 0.211082
vn 0.987980 -0.094187 -0.122575
vn 0.987980 -0.094187 -0.122575
vn 0.987980 -0.094187 -0.122575
vn 0.987980 -0.094187 -0.122575
vn 0.134145 0.075076 -0.988114
vn 0.134145 0.075076 -0.988114
vn 0.134145 0.075076 -0.988114
vn 0.134145 0.075076 -0.988114
vn -0.147072 0.087737 -0.985227
vn -0.147072 0.087737 -0.985227
vn -0.147072 0.087737 -0.985227
vn -0.147072 0.087737 -0.985227
vn -0.973348 -0.047017 -0.224462
vn -0.973348 -0.047017 -0.224462
vn -0.973348 -0.047017 -0.224462
vn -0.973348 -0.047017 -0.224462
vn -0.948245 -0.092975 0.303624
vn -0.948245 -0.092975 0.303624
vn -0.948245 -0.092975 0.303624
vn -0.948245 -0.092975 0.303624
vn -0.649965 -0.071382 0.756604
vn -0.649965 -0.071382 0.756604
vn -0.649965 -0.071382 0.756604
vn -0.649965 -0.071382 0.756604
vn 0.644387 -0.062676 0.762127
vn 0.644387 -0.062676 0.762126
vn 0.644387 -0.062676 0.762127
vn 0.644387 -0.062676 0.762127
vn 0.979910 -0.005255 0.199373
vn 0.979910 -0.005255 0.199373
vn 0.979910 -0.005255 0.199373
vn 0.979910 -0.005255 0.199373
vn 0.991658 -0.102284 -0.078436
vn 0.991658 -0.102284 -0.078436
vn 0.991658 -0.102284 -0.078436
vn 0.991658 -0.102284 -0.078436
vn 0.254722 0.229414 -0.939407
vn 0.254722 0.229414 -0.939407
vn 0.254722 0.229414 -0.939407
vn 0.254722 0.229414 -0.939407
vn -0.272473 0.191446 -0.942925
vn -0.272473 0.191446 -0.942925
vn -0.272473 0.191446 -0.942925
vn -0.272473 0.191446 -0.942925
vn -0.943015 -0.007642 -0.332663
vn -0.943015 -0.007642 -0.332663
vn -0.943015 -0.007642 -0.332663
vn -0.943015 -0.007642 -0.332663
vn -0.901874 0.179965 0.392729
vn -0.901874 0.179965 0.392729
vn -0.901874 0.179965 0.392729
vn -0.901874 0.179965 0.392729
vn -0.466019 0.393423 0.792493
vn -0.466019 0.393423 0.792493
vn -0.466019 0.393423 0.792493
vn -0.466019 0.393423 0.792493
vn 0.466022 0.393423 0.792491
vn 0.466022 0.393423 0.792491
vn 0.466022 0.393423 0.792491
vn 0.466022 0.393423 0.792491
vn 0.933327 0.091875 0.347072
vn 0.933327 0.091875 0.347072
vn 0.933327 0.091875 0.347072
vn 0.933327 0.091875 0.347072
vn 0.985599 0.069909 -0.153972
vn 0.985599 0.069909 -0.153972
vn 0.985599 0.069909 -0.153972
vn 0.985599 0.069909 -0.153972
vn 0.370636 0.514046 -0.773554
vn 0.370636 0.514046 -0.773554
vn 0.370636 0.514046 -0.773554
vn 0.370636 0.514046 -0.773554
vn -0.353832 0.523684 -0.774957
vn -0.353832 0.523684 -0.774957
vn -0.353832 0.523684 -0.774957
vn -0.353832 0.523684 -0.774957
vn -0.817454 0.529489 -0.226739
vn -0.817454 0.529489 -0.226739
vn -0.817454 0.529488 -0.226739
vn -0.817454 0.529489 -0.226739
vn -0.758485 0.478138 0.442815
vn -0.758485 0.478138 0.442815
vn -0.758485 0.478138 0.442815
vn -0.758485 0.478138 0.442815
vn -0.365937 0.691973 0.622305
vn -0.365937 0.691973 0.622305
vn -0.365937 0.691973 0.622305
vn -0.365937 0.691973 0.622305
vn 0.365941 0.691969 0.622308
vn 0.365941 0.691969 0.622308
vn 0.365941 0.691969 0.622308
vn 0.365941 0.691969 0.622308
vn 0.703971 0.606923 0.368876
vn 0.703971 0.606923 0.368876
vn 0.703970 0.606923 0.368876
vn 0.703971 0.606923 0.368876
vn 0.764842 0.614113 -0.194634
vn 0.764841 0.614113 -0.194634
vn 0.764842 0.614113 -0.194634
vn 0.764842 0.614113 -0.194634
vn 0.049267 -0.995266 -0.083780
vn 0.049267 -0.995266 -0.083780
vn 0.049267 -0.995266 -0.083780
vn -0.049268 -0.995265 -0.083781
vn -0.049268 -0.995266 -0.083781
vn -0.049268 -0.995266 -0.083781
vn -0.118587 -0.992341 -0.034601
vn -0.118586 -0.992341 -0.034601
vn -0.118586 -0.992341 -0.034601
vn -0.113382 -0.948790 -0.294860
vn -0.113382 -0.948790 -0.294860
vn -0.113382 -0.948790 -0.294860
vn 0.112089 -0.975244 -0.190615
vn 0.112089 -0.975244 -0.190615
vn 0.112089 -0.975244 -0.190615
vn -0.112088 -0.975245 -0.190614
vn -0.112088 -0.975245 -0.190614
vn -0.112088 -0.975245 -0.190614
vn 0.113386 -0.948787 -0.294866
vn 0.113386 -0.948787 -0.294866
vn 0.113386 -0.948787 -0.294866
vn 0.118589 -0.992340 -0.034600
vn 0.118589 -0.992340 -0.034600
vn 0.118589 -0.992340 -0.034600
vn 0.014345 0.999600 -0.024394
vn 0.014345 0.999599 -0.024394
vn 0.014345 0.999600 -0.024394
vn -0.014345 0.999600 -0.024394
vn -0.014345 0.999600 -0.024394
vn -0.014345 0.999600 -0.024394
vn -0.372788 0.912695 0.167383
vn -0.372788 0.912695 0.167383
vn -0.372788 0.912695 0.167383
vn -0.376789 0.922495 0.083867
vn -0.376789 0.922495 0.083867
vn -0.376789 0.922495 0.083867
vn -0.150357 0.954998 0.255678
vn -0.150357 0.954998 0.255678
vn -0.150357 0.954998 0.255678
vn 0.150354 0.955000 0.255674
vn 0.150354 0.955000 0.255675
vn 0.150354 0.955000 0.255674
vn 0.410164 0.910307 0.055739
vn 0.410164 0.910307 0.055739
vn 0.410164 0.910307 0.055739
vn 0.403770 0.896115 0.184251
vn 0.403770 0.896115 0.184251
vn 0.403770 0.896115 0.184251
s off
g polySurface278 pCylinder14
usemtl initialShadingGroup
f 1/1/1 2/2/2 10/3/3 9/4/4
f 2/5/5 3/6/6 11/7/7 10/8/8
f 3/6/9 4/9/10 12/10/11 11/7/12
f 4/9/13 5/11/14 13/12/15 12/10/16
f 5/11/17 6/13/18 14/14/19 13/12/20
f 6/13/21 7/15/22 15/16/23 14/14/24
f 7/15/25 8/17/26 16/18/27 15/16/28
f 8/17/29 1/1/30 9/4/31 16/18/32
f 9/4/33 10/3/34 18/19/35 17/20/36
f 10/8/37 11/7/38 19/21/39 18/22/40
f 11/7/41 12/10/42 20/23/43 19/21/44
f 12/10/45 13/12/46 21/24/47 20/23/48
f 13/12/49 14/14/50 22/25/51 21/24/52
f 14/14/53 15/16/54 23/26/55 22/25/56
f 15/16/57 16/18/58 24/27/59 23/26/60
f 16/18/61 9/4/62 17/20/63 24/27/64
f 17/20/65 18/19/66 26/28/67 25/29/68
f 18/22/69 19/21/70 27/30/71 26/31/72
f 19/21/73 20/23/74 28/32/75 27/30/76
f 20/23/77 21/24/78 29/33/79 28/32/80
f 21/24/81 22/25/82 30/34/83 29/33/84
f 22/25/85 23/26/86 31/35/87 30/34/88
f 23/26/89 24/27/90 32/36/91 31/35/92
f 24/27/93 17/20/94 25/29/95 32/36/96
f 25/29/97 26/28/98 34/37/99 33/38/100
f 26/31/101 27/30/102 35/39/103 34/40/104
f 27/30/105 28/32/106 36/41/107 35/39/108
f 28/32/109 29/33/110 37/42/111 36/41/112
f 29/33/113 30/34/114 38/43/115 37/42/116
f 30/34/117 31/35/118 39/44/119 38/43/120
f 31/35/121 32/36/122 40/45/123 39/44/124
f 32/36/125 25/29/126 33/38/127 40/45/128
f 33/38/129 34/37/130 42/46/131 41/47/132
f 34/40/133 35/39/134 43/48/135 42/49/136
f 35/39/137 36/41/138 44/50/139 43/48/140
f 36/41/141 37/42/142 45/51/143 44/50/144
f 37/42/145 38/43/146 46/52/147 45/51/148
f 38/43/149 39/44/150 47/53/151 46/52/152
f 39/44/153 40/45/154 48/54/155 47/53/156
f 40/45/157 33/38/158 41/47/159 48/54/160
f 41/47/161 42/46/162 50/55/163 49/56/164
f 42/49/165 43/48/166 51/57/167 50/58/168
f 43/48/169 44/50/170 52/59/171 51/57/172
f 44/50/173 45/51/174 53/60/175 52/59/176
f 45/51/177 46/52/178 54/61/179 53/60/180
f 46/52/181 47/53/182 55/62/183 54/61/184
f 47/53/185 48/54/186 56/63/187 55/62/188
f 48/54/189 41/47/190 49/56/191 56/63/192
f 2/2/193 1/1/194 57/64/195
f 3/6/196 2/5/197 57/65/198
f 4/9/199 3/6/200 57/66/201
f 5/11/202 4/9/203 57/67/204
f 6/13/205 5/11/206 57/68/207
f 7/15/208 6/13/209 57/69/210
f 8/17/211 7/15/212 57/70/213
f 1/1/214 8/17/215 57/71/216
f 49/56/217 50/55/218 58/72/219
f 50/58/220 51/57/221 58/73/222
f 51/57/223 52/59/224 58/74/225
f 52/59/226 53/60/227 58/75/228
f 53/60/229 54/61/230 58/76/231
f 54/61/232 55/62/233 58/76/234
f 55/62/235 56/63/236 58/77/237
f 56/63/238 49/56/239 58/78/240
