# This file uses centimeters as units for non-parametric coordinates.

mtllib puerta.mtl
g default
v 7.866458 0.139831 -2.831408
v 11.957492 0.139831 -2.831408
v 7.866458 6.179537 -2.831408
v 11.957492 6.179537 -2.831408
v 7.866458 6.179537 -3.824945
v 11.957492 6.179537 -3.824945
v 7.866458 0.139831 -3.824945
v 11.957492 0.139831 -3.824945
vt 0.044794 0.345796
vt 0.041402 0.196210
vt 0.190988 0.192818
vt 0.194380 0.342404
vt 0.340574 0.189426
vt 0.343966 0.339012
vt 0.490160 0.186034
vt 0.493552 0.335620
vt 0.639747 0.182642
vt 0.643138 0.332228
vt 0.038010 0.046624
vt 0.187596 0.043232
vt 0.048186 0.495382
vt 0.197772 0.491991
vn 0.000000 0.000000 1.000000
vn 0.000000 0.000000 1.000000
vn 0.000000 0.000000 1.000000
vn 0.000000 0.000000 1.000000
vn 0.000000 1.000000 0.000000
vn 0.000000 1.000000 0.000000
vn 0.000000 1.000000 0.000000
vn 0.000000 1.000000 0.000000
vn 0.000000 0.000000 -1.000000
vn 0.000000 0.000000 -1.000000
vn 0.000000 0.000000 -1.000000
vn 0.000000 0.000000 -1.000000
vn 0.000000 -1.000000 0.000000
vn 0.000000 -1.000000 0.000000
vn 0.000000 -1.000000 0.000000
vn 0.000000 -1.000000 0.000000
vn 1.000000 0.000000 0.000000
vn 1.000000 0.000000 0.000000
vn 1.000000 0.000000 0.000000
vn 1.000000 0.000000 0.000000
vn -1.000000 0.000000 0.000000
vn -1.000000 0.000000 0.000000
vn -1.000000 0.000000 0.000000
vn -1.000000 0.000000 0.000000
s off
g polySurface219 pCube41
usemtl lambert15SG
f 1/1/1 2/2/2 4/3/3 3/4/4
f 3/4/5 4/3/6 6/5/7 5/6/8
f 5/6/9 6/5/10 8/7/11 7/8/12
f 7/8/13 8/7/14 2/9/15 1/10/16
f 2/2/17 8/11/18 6/12/19 4/3/20
f 7/13/21 1/1/22 3/4/23 5/14/24
